<?xml version="1.0" encoding="utf-8"?>
<!-- Generator: Adobe Illustrator 25.4.8, SVG Export Plug-In . SVG Version: 6.00 Build 0)  -->
<svg version="1.1" id="Layer_1" xmlns="http://www.w3.org/2000/svg" xmlns:xlink="http://www.w3.org/1999/xlink" x="0px" y="0px"
	 viewBox="0 0 612 792" style="enable-background:new 0 0 612 792;" xml:space="preserve">
<style type="text/css">
	.st0{fill:none;stroke:#000000;stroke-width:0.25;stroke-miterlimit:10;}
</style>
<path class="st0" d="M309.16,211.81c-0.12,0.27-0.21,0.46-0.32,0.71c0.3-0.09,0.53-0.16,0.77-0.23c0.14,0.8,0.26,1.53,0.39,2.27
	c0.04-0.01,0.09-0.01,0.13-0.02c0.11-0.71,0.22-1.43,0.35-2.3c0.82,0.54,0.63-0.09,0.63-0.47c0.6-0.13,1.17-0.26,2-0.45
	c-0.91-0.19-1.52-0.31-2.16-0.44c0.15-0.33,0.24-0.53,0.33-0.74c-0.11,0.06-0.22,0.13-0.34,0.19c-0.18-0.17-0.48-0.33-0.5-0.53
	c-0.42-3.01-0.41-4.02-0.32-3.13c-0.05,0-0.1,0-0.15,0c-0.13,1.23-0.26,2.47-0.39,3.75c-0.31-0.13-0.52-0.22-0.82-0.35
	c0.16,0.33,0.27,0.55,0.4,0.81c-0.74,0.13-1.42,0.24-2.42,0.41C307.73,211.52,308.42,211.66,309.16,211.81z"/>
<path class="st0" d="M88.13,224.57c-0.17,0.2-0.34,0.39-0.51,0.58c0.19,0,0.37,0,0.55,0c0,0.05,0.01,0.1,0.01,0.15
	c0-0.05,0.02-0.1,0.04-0.15c0.87,0,1.62,0,2.37,0c0.04,0.08,0.09,0.15,0.13,0.23c-2.05,2.08-4.11,4.17-6.3,6.39
	c1.86,0,3.53,0,5.21,0c0.04,0.08,0.08,0.16,0.13,0.23c-2.26,2.08-4.51,4.15-6.91,6.37c1.79,0,3.42,0,5.06,0
	c0.04,0.09,0.07,0.17,0.11,0.26c-2.71,2.13-5.43,4.26-8.33,6.54c2.75,0,5.27,0,7.78,0c0.04,0.08,0.08,0.17,0.12,0.25
	c-2.91,2.12-5.82,4.24-8.98,6.54c6.59,0,12.87,0,19.17,0c0,0.87,0,1.66,0,2.46l5.28,0.38c0-0.92,0-1.83,0-2.84c6.66,0,13.33,0,20,0
	c0.03-0.08,0.06-0.16,0.08-0.24L119.3,249c-0.1-0.03-0.19-0.07-0.29-0.14c-0.08-0.05-0.16-0.11-0.24-0.18
	c-0.83-0.71-1.74-1.34-2.62-2c-0.58-0.44-1.17-0.88-1.76-1.32c0.04-0.08,0.08-0.15,0.12-0.23c2.12,0,4.23,0,6.54,0
	c-2.87-2.25-5.58-4.38-8.3-6.51c0.04-0.1,0.09-0.19,0.13-0.29c1.63,0,3.27,0,4.98,0c-2.35-2.18-4.59-4.25-6.84-6.33
	c0.06-0.1,0.12-0.19,0.18-0.29c1.67,0,3.34,0,5.05,0c-2.13-2.17-4.18-4.26-6.24-6.35c0.05-0.09,0.11-0.19,0.16-0.28
	c0.94,0,1.87,0,2.91,0c-2.02-2.3-3.93-4.48-5.85-6.66c0.06-0.08,0.12-0.16,0.18-0.24c0.82,0,1.63,0,2.58,0
	c-4.26-9.28-7.74-18.68-9.62-28.63c-1.88,9.97-5.41,19.36-9.62,28.67c0.99,0,1.81,0,2.95,0c-1.01,1.15-1.98,2.26-2.95,3.36
	L88.13,224.57z"/>
<path class="st0" d="M231.16,233.11c0.63,0,1.28,0,1.98,0c-2.04-2.36-3.97-4.6-5.9-6.84c0.06-0.09,0.11-0.18,0.17-0.28
	c0.84,0,1.67,0,2.39,0c-1.86-4.85-3.87-9.56-5.48-14.41c-1.61-4.86-2.81-9.85-4.14-14.61c-0.87,4.85-2.11,9.82-3.86,14.64
	c-1.74,4.81-3.64,9.57-5.5,14.46c0.83,0,1.65,0,2.77,0c-2.12,2.45-4.06,4.69-6.17,7.12c1.17,0,2.12,0,3.39,0
	c-2.3,2.38-4.37,4.53-6.55,6.78c1.82,0,3.53,0,5.24,0c0.04,0.08,0.09,0.16,0.13,0.23c-2.29,2.16-4.59,4.31-7.03,6.61
	c1.86,0,3.5,0,5.4,0c-1.3,1.09-2.41,2.03-3.58,3.02c-2.53-2.02-5.01-4.01-7.49-6c0.04-0.09,0.08-0.18,0.11-0.27c1.7,0,3.4,0,5.23,0
	c-2.49-2.33-4.84-4.52-7.18-6.72c0.06-0.1,0.12-0.2,0.19-0.31c1.74,0,3.47,0,5.29,0c-2.25-2.32-4.41-4.54-6.56-6.76
	c0.05-0.09,0.1-0.19,0.16-0.28c1,0,1.99,0,3.06,0c-2.07-2.4-4.05-4.69-6.03-6.97c0.07-0.09,0.13-0.19,0.2-0.28c0.84,0,1.69,0,2.67,0
	c-4.54-9.79-7.96-19.78-10.05-30.26c-1.95,10.5-5.6,20.43-10.05,30.31c1.04,0,1.88,0,2.72,0c0.05,0.09,0.1,0.18,0.15,0.27
	c-1.99,2.29-3.98,4.57-6.1,7.01c1.15,0,2.15,0,3.15,0c0.04,0.08,0.07,0.17,0.11,0.25c-2.16,2.22-4.31,4.44-6.64,6.84
	c1.98,0,3.75,0,5.79,0c-2.48,2.32-4.74,4.42-7.05,6.58c-1.93-1.75-3.78-3.41-5.62-5.08c0.05-0.1,0.1-0.2,0.16-0.3
	c1.5,0,2.99,0,4.49,0c0.03-0.08,0.06-0.16,0.09-0.23c-1.84-1.82-3.69-3.64-5.72-5.65c1.05-0.05,1.84-0.09,2.74-0.13
	c-1.86-2.05-3.6-3.98-5.35-5.91c0.05-0.08,0.11-0.17,0.16-0.25c0.74,0,1.49,0,2.36,0c-3.95-8.28-7.13-16.67-8.91-25.57
	c-1.75,8.92-4.97,17.29-8.91,25.6c0.94,0,1.68,0,2.73,0c-1.96,2.16-3.72,4.1-5.63,6.21c1.07,0,1.91,0,2.75,0
	c0.04,0.08,0.09,0.17,0.13,0.25c-1.88,1.88-5.23,3.75-7.26,5.78c1.67,0,4.66,0,6.19,0c0.02,0.08,0.04,0.16,0.06,0.23
	c-2.04,1.82-7.01,3.63-9.22,5.61c1.72,0,6.13,0,7.61,0l-9.84,6.33c1.93,0,7.63-0.21,9.35-0.21c0.05,0.08,0.1,0.16,0.15,0.23
	c-2.66,1.86-7.51,3.72-10.39,5.75c0.23,0,0.26,0,0,0c0,0,0,0,0,0l8.14,0c3.77-0.01,7.53,0,11.3,0c0.13,0,0.26,0.04,0.45,0.07
	c0,0.87,0,1.72,0,2.51h4.9c0-0.84,0-1.66,0-2.53c3.59,0,7.13,0,10.96,0c-0.9,0.63-1.61,1.13-2.33,1.64c0.02,0.07,0.04,0.13,0.06,0.2
	c6.53,0,13.06,0,19.64,0c0,0.97,0,1.84,0,2.72l5.49,0.76c0-1.07,0-2.18,0-3.38c5.07,0,10.11,0,15.46,0
	c-1.33,0.93-2.49,1.75-3.9,2.74c6.61,0,12.93,0,19.35,0c0,1.34,0,2.53,0,3.69l5.31,0.74c0-1.45,0-2.89,0-4.42
	c6.82,0,13.56,0,20.44,0c-3.11-2.29-6.07-4.48-9.03-6.66c0.05-0.11,0.1-0.22,0.15-0.33c2.16,0,4.32,0,6.57,0
	c-2.85-2.27-5.59-4.45-8.32-6.63c0.05-0.09,0.09-0.19,0.14-0.28c1.64,0,3.28,0,5.05,0c-2.41-2.26-4.69-4.41-6.97-6.55
	c0.04-0.08,0.08-0.16,0.12-0.24c1.7,0,3.41,0,5.23,0L231.16,233.11z"/>
<path class="st0" d="M328.47,257.96c0-0.96,0-1.85,0-2.87c6.24,0,12.43,0,18.79,0c-2.88-2.03-5.57-3.92-8.27-5.81
	c0.05-0.1,0.09-0.19,0.14-0.29c1.94,0,3.88,0,5.99,0c-2.65-2.01-5.14-3.9-7.64-5.79c0.03-0.08,0.06-0.16,0.1-0.25c1.5,0,3,0,4.66,0
	c-2.2-1.97-4.25-3.81-6.3-5.65c0.05-0.1,0.09-0.19,0.14-0.29c1.53,0,3.06,0,4.61,0c-1.95-1.97-3.83-3.86-5.7-5.75
	c0.04-0.09,0.08-0.17,0.12-0.26c0.86,0,1.72,0,2.68,0c-1.87-2.05-3.63-3.97-5.39-5.89c0.05-0.08,0.09-0.15,0.14-0.23
	c0.75,0,1.49,0,2.21,0c-1.69-4.23-3.51-8.33-4.98-12.55c-1.48-4.24-2.61-8.61-3.84-12.72c-1.59,8.63-4.88,17-8.78,25.34
	c0.94,0,1.66,0,2.71,0c-1.95,2.15-3.71,4.07-5.61,6.16c1.04,0,1.93,0,2.98,0c-1.41,1.42-2.64,2.66-3.79,3.82
	c-1.96-1.8-3.89-3.56-5.81-5.33c0.07-0.12,0.14-0.23,0.21-0.35c0.97,0,1.94,0,3.01,0c-2.03-2.31-3.96-4.48-6.09-6.9
	c1.17,0,2.01,0,3,0c-4.3-9.22-7.68-18.57-9.63-28.41c-1.92,9.89-5.35,19.23-9.61,28.44c1.03,0,1.85,0,2.96,0
	c-2.1,2.38-4.03,4.57-6.09,6.91c1.13,0,2.11,0,3.08,0c0.1,0.14,0.19,0.27,0.29,0.41c-2.14,2.04-4.29,4.08-6.6,6.28
	c1.9,0,3.57,0,5.55,0c-2.06,1.92-3.91,3.64-5.81,5.41h-0.14c-1.79-1.84-3.49-3.59-5.32-5.46c1,0,1.87,0,2.82,0
	c-1.86-2.05-3.62-4-5.38-5.95c0.06-0.08,0.11-0.15,0.17-0.23c0.75,0,1.5,0,2.39,0c-3.9-8.19-7.09-16.5-8.87-25.33
	c-1.8,8.85-4.95,17.17-8.9,25.38c0.94,0,1.72,0,2.78,0c-1.96,2.15-3.74,4.1-5.65,6.19c1.04,0,1.91,0,3.09,0
	c-2.09,2.1-3.97,3.99-5.98,6.01c1.66,0,3.19,0,4.72,0c0.02,0.07,0.05,0.15,0.07,0.22c-2.06,1.84-4.11,3.68-6.41,5.74
	c1.76,0,3.22,0,4.68,0c0.02,0.08,0.04,0.16,0.06,0.24c-2.47,1.87-4.94,3.74-7.67,5.81c2.63,0,4.95,0,7.27,0
	c0.02,0.08,0.04,0.16,0.06,0.23c-2.66,1.87-5.33,3.75-8.22,5.78c6.07,0,11.86,0,17.63,0c0,1.25,0,2.41,0,3.58l4.88-0.93
	c0-0.85,0-1.7,0-2.64c6.18,0,12.36,0,18.53,0c0.02-0.06,0.04-0.13,0.06-0.19c-1.73-1.18-3.46-2.36-5.19-3.54
	c0.02-0.06,0.04-0.12,0.07-0.18c4,0,8,0,12.05,0c0,0.92,0,1.81,0,2.69l5.32-0.68c0-0.62,0-1.31,0-2.06c6.64,0,13.28,0,20.21,0
	c-0.46-0.4-0.68-0.59-1-0.87c1.25,0,2.35,0,3.54,0c0,0.9,0,1.78,0,2.67L328.47,257.96z"/>
<g>
	<path class="st0" d="M334.25,153.47c-0.09-0.71-0.37-1.34-0.6-1.87c-0.16-0.37-0.41-0.93-0.33-1.07c0.02-0.04,0.3-0.45,2.3-0.76
		l3.13-0.49l-2.96-1.13c-0.4-0.15-1.09-0.63-1.7-1.05c-1.28-0.88-2.11-1.42-2.83-1.42c-0.4,0-0.75,0.17-0.97,0.47
		c-0.43,0.56-0.27,1.37-0.06,2.12c0.23,0.69,0.05,0.97-0.01,1.06c-0.56,0.86-2.98,1.11-4.93,1.32c-1.52,0.16-2.97,0.31-4.08,0.7
		c-2.2-5.06-5.03-7.94-7.81-7.94c-2.11,0-5.02,1.6-6.92,9.15c-1.4,0.97-2.04,1.18-2.33,1.18c-0.15,0-0.25-0.06-0.56-0.32
		c-0.48-0.4-1.21-1-2.69-1c-1.39,0-3.28,0.54-5.79,1.65l-0.82,0.36c-0.24,0-0.48,0.01-0.72,0.02c-2.04-0.32-4.57-0.71-6.38-0.71
		c-0.72,0-2.62,0-2.94,1.3l-0.19,0.79l0.78,0.23c0.8,0.23,1.79,0.34,3.11,0.34c1.06,0,2.22-0.07,3.33-0.14
		c0.74-0.04,1.47-0.09,2.19-0.12c1.48,0.23,2.41,0.37,2.96,0.37c0.3,0,0.52-0.06,0.69-0.14c0.94,0.24,1.26,0.62,1.41,0.93
		c0.02,2.62,0.36,3.56,1.28,3.56l0.44-0.04l0.25-0.27c0.16-0.18,0.29-0.47,0.37-0.87c1.87,3.09,1.92,4.03,1.88,4.25
		c-0.03,0.01-0.08,0.01-0.15,0.01c-1.36,0-4.76-1.79-7.75-3.38c-3.89-2.06-7.57-4-9.77-4c-1.04,0-1.58,0.44-1.85,0.81
		c-0.51,0.7-0.54,1.75-0.07,3.25c0.68,1.78,0.74,3.09,0.2,3.87c-0.54,0.78-1.78,1.18-3.67,1.18c0,0,0,0,0,0
		c-5.98,0-16.65-4.01-23.71-6.67c-2.15-0.81-4.03-1.52-5.41-1.97c-0.87-6.85-5.06-8.24-11.51-8.24l-0.29,0
		c-2.67-0.56-5.17-0.83-7.64-0.83c-1.39,0-2.52,0.08-3.43,0.15c-0.59,0.04-1.09,0.08-1.49,0.08c-0.62,0-0.75-0.1-0.78-0.13
		c-0.38-0.44,0.04-3.02,0.62-6.59l0.35-2.16l0.23-0.96c0.85-3.59,0.85-3.59,0.52-4l-0.27-0.33h-0.41c-0.46,0-0.71,0.32-0.94,0.63
		c-0.53,0.7-0.75,0.8-0.83,0.8c-0.01,0-0.72-0.24-1.48-3.46l-0.52-2.18l-1.05,1.98c-0.41,0.78-0.55,1.54-0.52,2.28h-0.13
		c-0.62,0-0.85,0.52-1.06,1.03c-0.06,0.13-0.16,0.37-0.27,0.58c-0.13-0.25-0.3-0.66-0.51-1.35l-0.11-0.35l-0.33-0.16
		c-1.9-0.93-2.54-1.11-2.96-1.11c-0.42,0-0.77,0.21-0.93,0.56c-0.32,0.69,0.18,1.29,1.28,2.59c1.09,1.29,3,3.56,2.78,4.81
		c-0.43-0.11-0.76-0.17-1.03-0.17c-0.66,0-0.96,0.34-1.08,0.54c-0.05,0.09-0.09,0.18-0.12,0.27c-0.45-0.23-1.08-0.57-1.93-1.06
		l-1.02,1.32c1.07,1.11,1.53,1.72,1.73,2.04c-0.07,0.01-0.15,0.02-0.22,0.03c-0.82,0.13-2.75,0.43-2.56,2.67l0.04,0.48l0.44,0.21
		c0.03,0.01,0.05,0.03,0.07,0.04c-0.06,0.21-0.34,0.62-0.51,0.88c-0.51,0.77-1.15,1.73-0.73,2.72c0.44,1.02,1.77,1.38,2.74,1.55
		l0.06,0.01l0.06,0c0.66,0.03,1.2,0.11,1.64,0.21c-0.39-0.01-0.83-0.04-1.32-0.1l-0.58,1.53c0.65,0.45,1.37,0.51,1.92,0.51
		c0.21,0,0.43-0.01,0.64-0.02c0.18-0.01,0.36-0.02,0.54-0.02c0.35,0,0.6,0.02,0.79,0.16c-0.23,0.13-0.4,0.34-0.44,0.67
		c-0.11,0.88,0.63,1.1,2.43,1.66c0.19,0.06,0.39,0.12,0.59,0.18c-1.64,1.35-2.23,3.18-2.76,4.83c-0.71,2.21-1.27,3.95-4,4.61
		l-0.03,1.63c0.55,0.15,1.1,0.23,1.63,0.23c3.1,0,5.26-2.49,7.35-4.89c1.16-1.34,2.36-2.71,3.65-3.56l0.61,0
		c1.16,0,2.26-0.01,3.32-0.02c0.96-0.01,1.88-0.02,2.75-0.02c9.21,0,13.67,1.12,17.66,11.82l1.61-0.5
		c-0.29-1.18-0.95-3.86-1.17-5.33c0.11,0.09,0.21,0.18,0.32,0.27c1.35,1.15,3.4,2.89,5.93,3.11l2.28,0.2l-1.6-1.63
		c-4.69-4.78-4.62-5.89-4.64-5.94c0,0,0.15-0.11,0.69-0.11c1.88,0,5.77,1.21,9.88,2.5c5.71,1.78,12.18,3.8,16.8,3.84
		c-1.03,1.2-1.56,2.56-1.45,3.86c0.08,1.01,0.65,2.87,3.54,4.03l0.06,0.02l0.06,0.01c7.41,1.81,15.17,2.62,22.67,3.4
		c3.64,0.38,7.41,0.77,11.05,1.27c2.54,0.43,4.55,0.63,6.14,0.63c0,0,0,0,0,0c2.85,0,4.64-0.66,5.64-2.07
		c1.36-1.92,1.1-5.12-0.85-10.7c-0.07-2.27,2.39-4.89,4.57-7.2c2.23-2.36,3.99-4.23,3.5-5.98
		C336.02,154.48,335.37,153.88,334.25,153.47z M221.67,139.56l0.16-0.37l0.01-0.16c0.03-0.86,0.06-1.56,0.07-2.12
		c0.13,0.28,0.26,0.56,0.39,0.83c0.51,1.06,0.88,1.89,0.93,2.6l-1.21-0.07c-0.32-0.02-0.5-0.06-0.59-0.1
		C221.47,140.01,221.6,139.72,221.67,139.56z"/>
	<path class="st0" d="M208.39,156.71c-1.41-1.27-3.97-3.59-4.24-4.48c0.07-0.02,0.18-0.05,0.35-0.06l0.96-0.09l-0.22-0.94
		c-2.22-9.43-10.63-9.73-18.76-10.01c-3.5-0.12-7.1-0.25-10.21-1.1c0.3-1.25,1.17-2.62,2.08-4.05c1.93-3.04,4.13-6.48,1.45-10.09
		l-1.5-2.03l-0.02,2.52c-0.01,0.88-0.04,1.51-0.07,1.97c-0.35-0.73-0.77-1.7-1.11-2.5l-0.5-1.16l-0.66-1.53l-0.84,1.45
		c-0.4,0.69-0.57,1.37-0.59,2.05c-0.29-0.28-0.65-0.52-1.07-0.73l-2.07-1l0.94,2.1c0.29,0.65,0.48,1.13,0.6,1.48
		c-0.6-0.46-1.36-1.13-1.8-1.53c-1.13-1.01-1.47-1.32-1.95-1.32l-0.54,0.02l-0.24,0.45c-0.29,0.56-0.1,0.97,1.58,3.41l0.1,0.14
		l0.14,0.09c1.31,0.83,2.3,3.23,2.08,3.66c0,0-0.03,0.01-0.1,0.01c-0.17,0-0.57-0.06-1.34-0.45l-2.25-1.15l0.7,1.42
		c-0.41-0.24-0.83-0.38-1.25-0.38c-0.27,0-0.53,0.06-0.76,0.18l-1.08,0.55l0.89,0.82c1.76,1.61,1.75,2.18,1.76,2.18
		c-0.11,0.15-0.75,0.33-1.06,0.42c-0.76,0.21-1.63,0.46-1.77,1.31c-0.1,0.59,0.22,1.11,0.84,1.66c-1.41,0.82-1.99,1.54-1.95,2.37
		c0.06,1.29,1.63,1.86,3.44,2.52c1.43,0.52,3.2,1.17,3.57,1.99c0.01,0.03,0.03,0.06,0.04,0.1c-10.17-1.49-12.13-3.83-14.2-6.3
		c-2.88-3.44-5.85-7-27.43-8.57c0.06-1.14,0.75-1.67,1.78-2.47c0.41-0.31,0.83-0.64,1.24-1.03l0.1-0.1l0.06-0.13
		c1.35-2.69,2.31-8.4,1.6-9.54c-0.18-0.29-0.48-0.47-0.81-0.47c-0.57,0-0.97,0.25-1.56,2.12c-1.83-3.78-1.9-3.78-2.48-3.78
		l-0.42,0.01l-0.25,0.32c-0.3,0.38-0.24,0.64,0.06,1.93c0.45,1.93,1.63,7,0.1,8.48c-0.22-1.03-0.28-3.33-0.17-6.86
		c0.05-1.57,0.05-1.63-0.23-1.91l-0.25-0.26h-0.36c-0.66,0-0.77,0-1.05,2.16c-0.43-0.4-0.8-0.76-1.13-1.06
		c-1.89-1.78-1.92-1.81-2.36-1.81l-0.5,0.01l-0.24,0.42c-0.27,0.47-0.07,0.81,0.36,1.57c0.63,1.11,1.82,3.21,2.22,5.53
		c-0.3-0.1-0.54-0.14-0.76-0.14c-0.44,0-0.81,0.2-1.02,0.54c-0.01,0.02-0.02,0.04-0.03,0.06c-0.54-0.62-1.13-1.11-1.91-1.11
		c-0.36,0-0.7,0.11-1.03,0.33l-0.85,0.58l0.74,0.72c1.74,1.7,1.64,2.25,1.63,2.25c-0.04,0.16-0.82,0.41-1.08,0.49
		c-0.72,0.23-1.62,0.51-1.76,1.38c-0.08,0.49,0.13,0.95,0.54,1.41c-0.63,0.11-1.26,0.31-1.61,0.87c-0.26,0.41-0.3,0.91-0.14,1.41
		c0.56,2.56,2.31,3.09,3.86,3.56c1.72,0.52,3.49,1.05,4.79,4.18l0.13,0.31l0.3,0.14c0.22,0.1,0.3,0.17,0.32,0.17c0,0,0,0,0,0
		c-0.03,0.28-0.69,1.02-1.12,1.52c-1.13,1.28-2.66,3.01-2.35,5.13c-0.14,0.85-0.98,1.26-2.22,1.79c-1.08,0.45-2.19,0.92-2.39,2.07
		l-0.14,0.81l0.81,0.16c0.45,0.09,0.9,0.13,1.34,0.13c3.35,0,5.75-2.48,8.07-4.89c1.17-1.21,2.38-2.46,3.67-3.33
		c1.56,0.18,3.37,0.19,4.96,0.19l2.21,0c7.96,0,14.58,0.59,15,7.87l0.01,0.11l0.03,0.1c1.26,3.94,1.68,4.54,2.48,4.54l0.43-0.04
		l0.25-0.26c0.46-0.48,0.48-1.3,0.36-4.59c-0.02-0.49-0.04-0.99-0.05-1.47c0.19,0.22,0.38,0.45,0.58,0.68
		c1.29,1.55,2.76,3.3,5.61,3.35l2.05,0.03l-1.43-1.47c-5.66-5.78-6.71-7.65-6.85-8.25c0.05-0.01,0.13-0.01,0.22-0.01
		c1.26,0,3.92,0.85,6.99,1.84c2.09,0.67,4.38,1.4,6.74,2.04c-1.5,1.16-1.67,3.12-1.8,4.56c-0.02,0.21-0.04,0.41-0.06,0.58
		c-0.28,2.13-1.31,2.51-3.18,3.2c-0.48,0.18-0.99,0.36-1.51,0.59l-2.22,0.98l2.35,0.6c0.96,0.25,1.83,0.45,2.63,0.45
		c1.31,0,2.32-0.56,3.07-1.73c4.91-5.85,9.99-6.93,18.21-6.93c0.56,0,1.13,0,1.71,0.01l0.14,0l0.13-0.04
		c0.48-0.15,0.96-0.23,1.43-0.23c4.32,0,7.46,6.57,8.8,9.37c0.72,1.5,0.91,1.91,1.56,1.91l0.42-0.01l0.25-0.3
		c0.36-0.43,0.38-0.57-0.43-5.62c0.47,0.32,0.93,0.84,1.43,1.41c1.08,1.24,2.42,2.78,4.64,2.78c0,0,0,0,0,0
		c0.2,0,0.4-0.01,0.61-0.04l1.18-0.14l-0.53-1.07C211.76,159.76,210.2,158.35,208.39,156.71z M175.38,133.56
		c0.16-0.82,0.34-1.77,0.4-2.74c1.07,2.21,1.48,3.36-0.33,4.59c-0.15,0.06-0.26,0.09-0.34,0.11
		C175.08,135.1,175.25,134.23,175.38,133.56z"/>
</g>
<path class="st0" d="M306.89,192.26c0.65-0.21,1.14-0.36,1.68-0.53c0.3,1.57,0.56,2.98,0.82,4.38c0.13-0.02,0.26-0.04,0.39-0.06
	c0.23-1.43,0.46-2.86,0.7-4.39c0.8,0.37,1.32,0.6,2.29,1.04c-0.63-0.91-0.94-1.37-1.41-2.04c1.41-0.34,2.58-0.62,3.75-0.91
	c-0.02-0.11-0.05-0.23-0.07-0.34c-1.17-0.21-2.33-0.43-3.6-0.66c0.39-0.7,0.72-1.28,1.3-2.31c-0.97,0.6-1.47,0.92-2.16,1.35
	c-0.28-2.48-0.53-4.75-0.78-7.02c-0.17,0-0.34-0.01-0.51-0.01c-0.26,2.27-0.52,4.55-0.8,7c-0.7-0.47-1.19-0.79-2.23-1.48
	c0.66,1.15,0.99,1.73,1.36,2.38c-1.45,0.27-2.78,0.53-4.11,0.78c0,0.14,0,0.28,0,0.42c1.33,0.25,2.65,0.51,4.02,0.77
	C307.27,191.3,307.1,191.73,306.89,192.26z"/>
<path class="st0" d="M145.43,197.32c-1.23-0.25-2.46-0.49-3.71-0.74c0.27-0.67,0.48-1.19,0.77-1.9c-0.73,0.36-1.2,0.6-1.77,0.88
	c-0.24-2.47-0.47-4.76-0.69-7.04c-0.15-0.03-0.29-0.05-0.44-0.08c-0.27,2.36-0.55,4.71-0.84,7.2c-0.71-0.41-1.15-0.66-1.84-1.05
	c0.39,0.85,0.64,1.39,0.91,1.98c-1.48,0.28-2.78,0.52-4.08,0.77c0,0.11,0,0.21,0,0.32c1.35,0.25,2.71,0.5,4.2,0.78
	c-0.44,0.71-0.76,1.21-1.25,2.01c0.88-0.43,1.42-0.7,2.09-1.03c0.32,1.61,0.61,3.05,0.89,4.5c0.11-0.02,0.22-0.05,0.34-0.07
	c0.23-1.48,0.45-2.96,0.69-4.52c0.6,0.32,1.11,0.59,1.84,0.99c-0.39-0.84-0.64-1.37-0.9-1.93c1.38-0.27,2.6-0.5,3.81-0.73
	C145.45,197.55,145.44,197.44,145.43,197.32z"/>
<path class="st0" d="M272.36,188.81c0.49-0.67,0.83-1.12,1.16-1.56c-0.07-0.08-0.15-0.17-0.22-0.25c-0.42,0.25-0.83,0.49-1.36,0.8
	c-0.37-2.37-0.72-4.62-1.09-7.05c-1.62,2.19,0.81,5.5-2.49,6.87c0.08,0.35,0.16,0.74,0.27,1.25c-1.36,0.26-2.62,0.49-4.26,0.8
	c1.77,0.44,3.1,0.77,4.54,1.13c-0.34,0.62-0.53,0.95-0.78,1.41c0.68-0.22,1.22-0.39,1.78-0.57c0.26,1.62,0.5,3.06,0.73,4.5
	c0.09,0,0.19,0,0.28,0c0.23-1.46,0.47-2.91,0.71-4.46c0.62,0.21,1.13,0.38,1.75,0.59c-0.33-0.63-0.57-1.09-0.87-1.67
	c1.37-0.26,2.52-0.48,3.66-0.71c-0.01-0.11-0.02-0.22-0.03-0.33C274.93,189.32,273.73,189.08,272.36,188.81z"/>
<path class="st0" d="M199.92,115.3c-2.03,0.62-1.19-1.12-1.32-1.79c-0.32-1.67-0.39-3.39-0.57-5.09c-0.1,0-0.21,0-0.31,0.01
	c-0.25,2.38-0.49,4.75-0.76,7.28c-0.68-0.35-1.15-0.59-1.93-0.99c0.43,0.77,0.68,1.24,1.01,1.84c-1.47,0.31-2.8,0.58-4.14,0.86
	c0.01,0.11,0.03,0.22,0.04,0.33c1.38,0.23,2.75,0.47,4.15,0.7c-0.24,0.53-0.42,0.94-0.66,1.47c0.67-0.22,1.11-0.36,1.57-0.51
	c0.26,1.58,0.5,3.03,0.74,4.47c0.09,0,0.18-0.01,0.26-0.01c0.26-1.52,0.52-3.04,0.8-4.64c0.63,0.34,1.09,0.59,1.76,0.96
	c-0.37-0.75-0.61-1.22-0.86-1.73c1.41-0.26,2.65-0.5,3.9-0.73C202.76,116.23,199.82,118.15,199.92,115.3z"/>
<path class="st0" d="M260.63,139.13c-0.64,0.26-1.05,0.43-1.58,0.64c-0.26-2.28-0.5-4.4-0.74-6.53c-0.14,0-0.28,0.01-0.42,0.01
	c-0.25,2.14-0.5,4.28-0.76,6.48c-0.68-0.26-1.06-0.4-1.62-0.61c0.29,0.62,0.47,0.99,0.7,1.47c-1.36,0.34-2.65,0.67-4.44,1.12
	c1.88,0.34,3.17,0.58,4.52,0.82c-0.3,0.61-0.49,1.01-0.8,1.62c0.72-0.35,1.16-0.56,1.69-0.82c0.27,1.47,0.51,2.82,0.76,4.18
	c0.12-0.01,0.25-0.01,0.37-0.02c0.23-1.36,0.45-2.73,0.69-4.16c0.56,0.24,1.02,0.44,1.66,0.71c-0.31-0.68-0.5-1.1-0.71-1.56
	c1.34-0.25,2.53-0.47,4.19-0.78c-1.66-0.42-2.89-0.73-4.2-1.05C260.17,140.14,260.36,139.74,260.63,139.13z"/>
<path class="st0" d="M231.61,183.78c-0.84,0.18-1.36,0.29-1.99,0.43c-0.42-1.44-0.82-2.79-1.22-4.14c-0.92,1.6-0.41,3.27-2.93,4.77
	c-1.08,0.09-2.65,0.23-4.22,0.37c-0.02,0.07-0.04,0.13-0.06,0.2c1.59,0.15,3.17,0.3,4.85,0.45c-0.49,0.41-0.8,0.67-1.29,1.09
	c1.02-0.26,1.66-0.42,2.37-0.6c0.32,0.93,0.6,1.75,0.92,2.67c2.79-2.76,2.79-2.76,6.89-3.79c-1.51-0.14-2.96-0.27-4.62-0.43
	C230.8,184.41,231.11,184.17,231.61,183.78z"/>
<path class="st0" d="M288.22,125.32c1.24,0.21,2.47,0.43,3.75,0.65c-0.25,0.64-0.41,1.05-0.67,1.72c0.63-0.41,0.97-0.63,1.47-0.95
	c0.31,1.72,0.57,3.24,0.84,4.76c0.09-0.01,0.18-0.01,0.27-0.02c0.23-1.53,0.46-3.07,0.72-4.78c0.53,0.32,0.93,0.56,1.51,0.9
	c-0.26-0.61-0.46-1.08-0.69-1.61c1.2-0.25,2.25-0.46,3.29-0.67c0-0.11-0.01-0.23-0.01-0.34c-1.09-0.22-2.18-0.43-3.45-0.68
	c0.35-0.6,0.61-1.05,1.01-1.73c-0.67,0.34-1.07,0.55-1.62,0.84c-0.27-2.49-0.52-4.82-0.76-7.15c-0.11,0-0.21,0.01-0.32,0.01
	c-0.25,2.32-0.51,4.64-0.77,7.05c-0.56-0.22-0.91-0.37-1.44-0.58c0.31,0.59,0.52,1,0.79,1.53c-1.43,0.29-2.7,0.55-3.97,0.81
	C288.18,125.14,288.2,125.23,288.22,125.32z"/>
<path class="st0" d="M184.93,179.77c0.27-0.61,0.44-0.97,0.67-1.48c-0.5,0.2-0.85,0.33-1.34,0.52c-0.24-2.24-0.47-4.38-0.7-6.52
	c-0.13-0.01-0.26-0.01-0.39-0.02c-0.26,2.15-0.52,4.31-0.8,6.61c-0.54-0.28-0.89-0.47-1.53-0.81c0.34,0.7,0.57,1.16,0.83,1.7
	c-1.4,0.25-2.6,0.46-3.8,0.67c0,0.11,0,0.21,0,0.32c1.17,0.2,2.34,0.4,3.62,0.62c-0.09,0.46-0.17,0.85-0.21,1.07
	c2.42,0.45,0.91,3.14,2.28,4.23c0.23-1.53,0.42-2.88,0.64-4.37c0.41,0.16,0.72,0.28,0.73,0.29c0.46-0.55,0.73-1.17,1.2-1.38
	c0.67-0.31,1.48-0.33,2.23-0.48c-0.03-0.1-0.05-0.21-0.08-0.31C187.19,180.22,186.1,180,184.93,179.77z"/>
<path class="st0" d="M85.47,125.25c-1.46-0.76-2.83-1.48-4.2-2.19c-0.22-2.14-0.43-4.28-0.65-6.41c-0.13,0-0.26,0.01-0.39,0.01
	c-0.24,2.04,0.01,4.33-0.87,6.04c-0.65,1.27-2.77,1.79-4.35,2.7c4.04-0.4,4.91,2.45,5.52,5.69C80.5,127.53,81.9,125.4,85.47,125.25z
	"/>
<path class="st0" d="M95.85,171.47c-1.12-0.24-2.25-0.48-3.44-0.73c0.33-0.56,0.56-0.94,0.89-1.49c-0.62,0.22-1.01,0.36-1.55,0.55
	c-0.27-2.39-0.53-4.69-0.79-7c-0.08,0-0.15,0.01-0.23,0.01c-0.26,2.32-0.51,4.65-0.78,7.1c-0.57-0.27-0.92-0.43-1.48-0.7
	c0.29,0.6,0.49,1.01,0.75,1.55c-1.33,0.24-2.54,0.46-3.74,0.67c0,0.11-0.01,0.23-0.01,0.34c1.15,0.21,2.31,0.42,3.56,0.65
	c-0.22,0.62-0.38,1.08-0.62,1.75c0.65-0.4,1.05-0.64,1.58-0.96c0.27,1.61,0.51,3.06,0.75,4.51c0.08,0.01,0.16,0.01,0.24,0.02
	c0.23-1.39,0.45-2.78,0.7-4.29c0.45,0.12,0.88,0.24,1.4,0.37c-0.17-0.49-0.31-0.87-0.51-1.42c1.3-0.23,2.3-0.4,3.31-0.57
	C95.88,171.7,95.86,171.58,95.85,171.47z"/>
</svg>
