<?xml version="1.0" encoding="UTF-8"?>
<svg id="Layer_1" xmlns="http://www.w3.org/2000/svg" width="612" height="792" version="1.1" viewBox="0 0 612 792">
  <!-- Generator: Adobe Illustrator 29.2.1, SVG Export Plug-In . SVG Version: 2.1.0 Build 116)  -->
  <defs>
    <style>
      .st0 {
        fill: #f2ead6;
      }
    </style>
  </defs>
  <path class="st0" d="M46.74,87.76c-5.21-15.48-2.01-33.78,5.97-48.18,5.77-10.36,15.49-18.43,27.49-16.21,25.34,5.96,36.34,50.36,22.14,71.54-13.87,20.74-47.23,16.68-55.51-6.91l-.09-.25Z"/>
  <path class="st0" d="M114.4,311.34c.45-2.78,2.6-4.18,1.56-7.27-1.93-5.74-7.55,2.73-9.1,4.33-1.41,1.46-3.1,3.33-4.61,4.61-.36.31-2.3,1.91-2.58,1.65-1.39-11.01-2.1-19.57-10.86-27.27-1.65-1.45-5.45-3.37-6.01-5.41-.38-1.4.16-2.51-1.36-3.8-.8-.68-3.31-1.81-3.88-.36,1.7-.11,2.95,2.11,1.67,3.34-6.6,3.24-15.21,4.55-20.03,10.55-5.01,6.23-5.22,14.6-5.59,22.23-.57.11-.85-.06-1.31-.35-2.8-1.81-5.47-5.72-7.71-8.13-1.32-1.41-5.36-6.06-7.21-3.05-1.76,2.86.65,5.57,1.49,8.21-6.63,0-1.57,7.39,2.21,8.11v.54c-.18.39-1,.37-1.11.81-.92,3.65,4.14,6.1,6.64,7.85.69.49,2.01.99,2.39,1.85.12.28.2.61.28.94-5.49-8.18-3.02,11.63-2.11,14.53l.05.26c4.82,29.75,45.08,34.38,56.03,6.65,2.24-6.14,4.93-14.27,1.55-20.27-.46-.63-.87-.78-1.36-.55-.07.05-.14.11-.2.16-.11-.51-.15-.95.49-1.37,1.44-.95,3.39-1.6,4.91-2.64,1.88-1.29,6.73-5.18,3.56-7.13l.04-.88c3.71-.78,8.35-7.77,2.18-8.14Z"/>
  <path class="st0" d="M108.03,201.77c-.13-.34-1.1-2.31-1.78-2.09-.42-1.72-3.13-8.3-4.11-9.7-.87-1.25-2.72-2.01-2.82-2.16-.48-.73-1.29-8.94-1.64-10.7-.34-1.67-.81-3.47-1.37-5.07-.07-.19-.34-.3-.37-.37-.04-.11.04-.26,0-.37-.08-.21-.35-.32-.37-.37-.21-.58-.31-1.23-.37-1.84l.32-.34c-.05.78,3.49,2.81,3.74,2.55.11-1.49,2.04-2.64,2.22-4.42l4.05,1.84c-4.23-10.46-12.96-22.73-23.94-26.72-16.04-5.84-27.91,8.2-32.61,21.94-.39,1.13-1.88,6.72-1.67,7.47l7.01,4.68c-.1.11-.32,2.49-.37,2.95h-.74c-.35.68.35,1.59.37,1.84.1,1.55.21,4.45,0,5.9,0,.03-.26.14-.37.37-.62,1.29-.65.5-1.29,1.09-1.14,1.04-1.75,2.78-2.4,3.33-.1.08-.64-.09-.74,0-.21.2.37.69.37.73,0,.27-.98,2.85-1.11,2.95-.52.4-.24-.59-.74.74-.87-.03-1.69-.46-2.58-.37-.26,3.72-.6,7.49-.37,11.24-1.96,32.7,51.95,49.75,62.84,7.51.7-3.55,2.11-9.24.84-12.6Z"/>
  <path class="st0" d="M44.56,481.14c-5.21-15.48-2.01-33.78,5.97-48.18,5.77-10.36,15.49-18.43,27.49-16.21,25.34,5.96,36.34,50.36,22.14,71.54-13.87,20.74-47.23,16.68-55.51-6.91l-.09-.25Z"/>
  <path class="st0" d="M114.4,704.72c.45-2.78,2.6-4.18,1.56-7.27-1.93-5.74-7.55,2.73-9.1,4.33-1.41,1.46-3.1,3.33-4.61,4.61-.36.31-2.3,1.91-2.58,1.65-1.39-11.01-2.1-19.57-10.86-27.27-1.65-1.45-5.45-3.37-6.01-5.41-.38-1.4.16-2.51-1.36-3.8-.8-.68-3.31-1.81-3.88-.36,1.7-.11,2.95,2.11,1.67,3.34-6.6,3.24-15.21,4.55-20.03,10.55-5.01,6.23-5.22,14.6-5.59,22.23-.57.11-.85-.06-1.31-.35-2.8-1.81-5.47-5.72-7.71-8.13-1.32-1.41-5.36-6.06-7.21-3.05-1.76,2.86.65,5.57,1.49,8.21-6.63,0-1.57,7.39,2.21,8.11v.54c-.18.39-1,.37-1.11.81-.92,3.65,4.14,6.1,6.64,7.85.69.49,2.01.99,2.39,1.85.12.28.2.61.28.94-5.49-8.18-3.02,11.63-2.11,14.53l.05.26c4.82,29.75,45.08,34.38,56.03,6.65,2.24-6.14,4.93-14.27,1.55-20.27-.46-.63-.87-.78-1.36-.55-.07.05-.14.11-.2.16-.11-.51-.15-.95.49-1.37,1.44-.95,3.39-1.6,4.91-2.64,1.88-1.29,6.73-5.18,3.56-7.13l.04-.88c3.71-.78,8.35-7.77,2.18-8.14Z"/>
  <path class="st0" d="M104.28,595.15c-.13-.34-1.1-2.31-1.78-2.09-.42-1.72-3.13-8.3-4.11-9.7-.87-1.25-2.72-2.01-2.82-2.16-.48-.73-1.29-8.94-1.64-10.7-.34-1.67-.81-3.47-1.37-5.07-.07-.19-.34-.3-.37-.37-.04-.11.04-.26,0-.37-.08-.21-.35-.32-.37-.37-.21-.58-.31-1.23-.37-1.84l.32-.34c-.05.78,3.49,2.81,3.74,2.55.11-1.49,2.04-2.64,2.22-4.42l4.05,1.84c-4.23-10.46-12.96-22.73-23.94-26.72-16.04-5.84-27.91,8.2-32.61,21.94-.39,1.13-1.88,6.72-1.67,7.47l7.01,4.68c-.1.11-.32,2.49-.37,2.95h-.74c-.35.68.35,1.59.37,1.84.1,1.55.21,4.45,0,5.9,0,.03-.26.14-.37.37-.62,1.29-.65.5-1.29,1.09-1.14,1.04-1.75,2.78-2.4,3.33-.1.08-.64-.09-.74,0-.21.2.37.69.37.73,0,.27-.98,2.85-1.11,2.95-.52.4-.24-.59-.74.74-.87-.03-1.69-.46-2.58-.37-.26,3.72-.6,7.49-.37,11.24-1.96,32.7,51.95,49.75,62.84,7.51.7-3.55,2.11-9.24.84-12.6Z"/>
  <path class="st0" d="M162.84,87.76c-5.21-15.48-2.01-33.78,5.97-48.18,5.77-10.36,15.49-18.43,27.49-16.21,25.34,5.96,36.34,50.36,22.14,71.54-13.87,20.74-47.23,16.68-55.51-6.91l-.09-.25Z"/>
  <path class="st0" d="M230.51,311.34c.45-2.78,2.6-4.18,1.56-7.27-1.93-5.74-7.55,2.73-9.1,4.33-1.41,1.46-3.1,3.33-4.61,4.61-.36.31-2.3,1.91-2.58,1.65-1.39-11.01-2.1-19.57-10.86-27.27-1.65-1.45-5.45-3.37-6.01-5.41-.38-1.4.16-2.51-1.36-3.8-.8-.68-3.31-1.81-3.88-.36,1.7-.11,2.95,2.11,1.67,3.34-6.6,3.24-15.21,4.55-20.03,10.55-5.01,6.23-5.22,14.6-5.59,22.23-.57.11-.85-.06-1.31-.35-2.8-1.81-5.47-5.72-7.71-8.13-1.32-1.41-5.36-6.06-7.21-3.05-1.76,2.86.65,5.57,1.49,8.21-6.63,0-1.57,7.39,2.21,8.11v.54c-.18.39-1,.37-1.11.81-.92,3.65,4.14,6.1,6.64,7.85.69.49,2.01.99,2.39,1.85.12.28.2.61.28.94-5.49-8.18-3.02,11.63-2.11,14.53l.05.26c4.82,29.75,45.08,34.38,56.03,6.65,2.24-6.14,4.93-14.27,1.55-20.27-.46-.63-.87-.78-1.36-.55-.07.05-.14.11-.2.16-.11-.51-.15-.95.49-1.37,1.44-.95,3.39-1.6,4.91-2.64,1.88-1.29,6.73-5.18,3.56-7.13l.04-.88c3.71-.78,8.35-7.77,2.18-8.14Z"/>
  <path class="st0" d="M224.13,201.77c-.13-.34-1.1-2.31-1.78-2.09-.42-1.72-3.13-8.3-4.11-9.7-.87-1.25-2.72-2.01-2.82-2.16-.48-.73-1.29-8.94-1.64-10.7-.34-1.67-.81-3.47-1.37-5.07-.07-.19-.34-.3-.37-.37-.04-.11.04-.26,0-.37-.08-.21-.35-.32-.37-.37-.21-.58-.31-1.23-.37-1.84l.32-.34c-.05.78,3.49,2.81,3.74,2.55.11-1.49,2.04-2.64,2.22-4.42l4.05,1.84c-4.23-10.46-12.96-22.73-23.94-26.72-16.04-5.84-27.91,8.2-32.61,21.94-.39,1.13-1.88,6.72-1.67,7.47l7.01,4.68c-.1.11-.32,2.49-.37,2.95h-.74c-.35.68.35,1.59.37,1.84.1,1.55.21,4.45,0,5.9,0,.03-.26.14-.37.37-.62,1.29-.65.5-1.29,1.09-1.14,1.04-1.75,2.78-2.4,3.33-.1.08-.64-.09-.74,0-.21.2.37.69.37.73,0,.27-.98,2.85-1.11,2.95-.52.4-.24-.59-.74.74-.87-.03-1.69-.46-2.58-.37-.26,3.72-.6,7.49-.37,11.24-1.96,32.7,51.95,49.75,62.84,7.51.7-3.55,2.11-9.24.84-12.6Z"/>
  <path class="st0" d="M160.66,481.14c-5.21-15.48-2.01-33.78,5.97-48.18,5.77-10.36,15.49-18.43,27.49-16.21,25.34,5.96,36.34,50.36,22.14,71.54-13.87,20.74-47.23,16.68-55.51-6.91l-.09-.25Z"/>
  <path class="st0" d="M230.51,704.72c.45-2.78,2.6-4.18,1.56-7.27-1.93-5.74-7.55,2.73-9.1,4.33-1.41,1.46-3.1,3.33-4.61,4.61-.36.31-2.3,1.91-2.58,1.65-1.39-11.01-2.1-19.57-10.86-27.27-1.65-1.45-5.45-3.37-6.01-5.41-.38-1.4.16-2.51-1.36-3.8-.8-.68-3.31-1.81-3.88-.36,1.7-.11,2.95,2.11,1.67,3.34-6.6,3.24-15.21,4.55-20.03,10.55-5.01,6.23-5.22,14.6-5.59,22.23-.57.11-.85-.06-1.31-.35-2.8-1.81-5.47-5.72-7.71-8.13-1.32-1.41-5.36-6.06-7.21-3.05-1.76,2.86.65,5.57,1.49,8.21-6.63,0-1.57,7.39,2.21,8.11v.54c-.18.39-1,.37-1.11.81-.92,3.65,4.14,6.1,6.64,7.85.69.49,2.01.99,2.39,1.85.12.28.2.61.28.94-5.49-8.18-3.02,11.63-2.11,14.53l.05.26c4.82,29.75,45.08,34.38,56.03,6.65,2.24-6.14,4.93-14.27,1.55-20.27-.46-.63-.87-.78-1.36-.55-.07.05-.14.11-.2.16-.11-.51-.15-.95.49-1.37,1.44-.95,3.39-1.6,4.91-2.64,1.88-1.29,6.73-5.18,3.56-7.13l.04-.88c3.71-.78,8.35-7.77,2.18-8.14Z"/>
  <path class="st0" d="M220.39,595.15c-.13-.34-1.1-2.31-1.78-2.09-.42-1.72-3.13-8.3-4.11-9.7-.87-1.25-2.72-2.01-2.82-2.16-.48-.73-1.29-8.94-1.64-10.7-.34-1.67-.81-3.47-1.37-5.07-.07-.19-.34-.3-.37-.37-.04-.11.04-.26,0-.37-.08-.21-.35-.32-.37-.37-.21-.58-.31-1.23-.37-1.84l.32-.34c-.05.78,3.49,2.81,3.74,2.55.11-1.49,2.04-2.64,2.22-4.42l4.05,1.84c-4.23-10.46-12.96-22.73-23.94-26.72-16.04-5.84-27.91,8.2-32.61,21.94-.39,1.13-1.88,6.72-1.67,7.47l7.01,4.68c-.1.11-.32,2.49-.37,2.95h-.74c-.35.68.35,1.59.37,1.84.1,1.55.21,4.45,0,5.9,0,.03-.26.14-.37.37-.62,1.29-.65.5-1.29,1.09-1.14,1.04-1.75,2.78-2.4,3.33-.1.08-.64-.09-.74,0-.21.2.37.69.37.73,0,.27-.98,2.85-1.11,2.95-.52.4-.24-.59-.74.74-.87-.03-1.69-.46-2.58-.37-.26,3.72-.6,7.49-.37,11.24-1.96,32.7,51.95,49.75,62.84,7.51.7-3.55,2.11-9.24.84-12.6Z"/>
  <path class="st0" d="M278.95,87.76c-5.21-15.48-2.01-33.78,5.97-48.18,5.77-10.36,15.49-18.43,27.49-16.21,25.34,5.96,36.34,50.36,22.14,71.54-13.87,20.74-47.23,16.68-55.51-6.91l-.09-.25Z"/>
  <path class="st0" d="M346.61,311.34c.45-2.78,2.6-4.18,1.56-7.27-1.93-5.74-7.55,2.73-9.1,4.33-1.41,1.46-3.1,3.33-4.61,4.61-.36.31-2.3,1.91-2.58,1.65-1.39-11.01-2.1-19.57-10.86-27.27-1.65-1.45-5.45-3.37-6.01-5.41-.38-1.4.16-2.51-1.36-3.8-.8-.68-3.31-1.81-3.88-.36,1.7-.11,2.95,2.11,1.67,3.34-6.6,3.24-15.21,4.55-20.03,10.55-5.01,6.23-5.22,14.6-5.59,22.23-.57.11-.85-.06-1.31-.35-2.8-1.81-5.47-5.72-7.71-8.13-1.32-1.41-5.36-6.06-7.21-3.05-1.76,2.86.65,5.57,1.49,8.21-6.63,0-1.57,7.39,2.21,8.11v.54c-.18.39-1,.37-1.11.81-.92,3.65,4.14,6.1,6.64,7.85.69.49,2.01.99,2.39,1.85.12.28.2.61.28.94-5.49-8.18-3.02,11.63-2.11,14.53l.05.26c4.82,29.75,45.08,34.38,56.03,6.65,2.24-6.14,4.93-14.27,1.55-20.27-.46-.63-.87-.78-1.36-.55-.07.05-.14.11-.2.16-.11-.51-.15-.95.49-1.37,1.44-.95,3.39-1.6,4.91-2.64,1.88-1.29,6.73-5.18,3.56-7.13l.04-.88c3.71-.78,8.35-7.77,2.18-8.14Z"/>
  <path class="st0" d="M340.24,201.77c-.13-.34-1.1-2.31-1.78-2.09-.42-1.72-3.13-8.3-4.11-9.7-.87-1.25-2.72-2.01-2.82-2.16-.48-.73-1.29-8.94-1.64-10.7-.34-1.67-.81-3.47-1.37-5.07-.07-.19-.34-.3-.37-.37-.04-.11.04-.26,0-.37-.08-.21-.35-.32-.37-.37-.21-.58-.31-1.23-.37-1.84l.32-.34c-.05.78,3.49,2.81,3.74,2.55.11-1.49,2.04-2.64,2.22-4.42l4.05,1.84c-4.23-10.46-12.96-22.73-23.94-26.72-16.04-5.84-27.91,8.2-32.61,21.94-.39,1.13-1.88,6.72-1.67,7.47l7.01,4.68c-.1.11-.32,2.49-.37,2.95h-.74c-.35.68.35,1.59.37,1.84.1,1.55.21,4.45,0,5.9,0,.03-.26.14-.37.37-.62,1.29-.65.5-1.29,1.09-1.14,1.04-1.75,2.78-2.4,3.33-.1.08-.64-.09-.74,0-.21.2.37.69.37.73,0,.27-.98,2.85-1.11,2.95-.52.4-.24-.59-.74.74-.87-.03-1.69-.46-2.58-.37-.26,3.72-.6,7.49-.37,11.24-1.96,32.7,51.95,49.75,62.84,7.51.7-3.55,2.11-9.24.84-12.6Z"/>
  <path class="st0" d="M276.77,481.14c-5.21-15.48-2.01-33.78,5.97-48.18,5.77-10.36,15.49-18.43,27.49-16.21,25.34,5.96,36.34,50.36,22.14,71.54-13.87,20.74-47.23,16.68-55.51-6.91l-.09-.25Z"/>
  <path class="st0" d="M346.61,704.72c.45-2.78,2.6-4.18,1.56-7.27-1.93-5.74-7.55,2.73-9.1,4.33-1.41,1.46-3.1,3.33-4.61,4.61-.36.31-2.3,1.91-2.58,1.65-1.39-11.01-2.1-19.57-10.86-27.27-1.65-1.45-5.45-3.37-6.01-5.41-.38-1.4.16-2.51-1.36-3.8-.8-.68-3.31-1.81-3.88-.36,1.7-.11,2.95,2.11,1.67,3.34-6.6,3.24-15.21,4.55-20.03,10.55-5.01,6.23-5.22,14.6-5.59,22.23-.57.11-.85-.06-1.31-.35-2.8-1.81-5.47-5.72-7.71-8.13-1.32-1.41-5.36-6.06-7.21-3.05-1.76,2.86.65,5.57,1.49,8.21-6.63,0-1.57,7.39,2.21,8.11v.54c-.18.39-1,.37-1.11.81-.92,3.65,4.14,6.1,6.64,7.85.69.49,2.01.99,2.39,1.85.12.28.2.61.28.94-5.49-8.18-3.02,11.63-2.11,14.53l.05.26c4.82,29.75,45.08,34.38,56.03,6.65,2.24-6.14,4.93-14.27,1.55-20.27-.46-.63-.87-.78-1.36-.55-.07.05-.14.11-.2.16-.11-.51-.15-.95.49-1.37,1.44-.95,3.39-1.6,4.91-2.64,1.88-1.29,6.73-5.18,3.56-7.13l.04-.88c3.71-.78,8.35-7.77,2.18-8.14Z"/>
  <path class="st0" d="M336.49,595.15c-.13-.34-1.1-2.31-1.78-2.09-.42-1.72-3.13-8.3-4.11-9.7-.87-1.25-2.72-2.01-2.82-2.16-.48-.73-1.29-8.94-1.64-10.7-.34-1.67-.81-3.47-1.37-5.07-.07-.19-.34-.3-.37-.37-.04-.11.04-.26,0-.37-.08-.21-.35-.32-.37-.37-.21-.58-.31-1.23-.37-1.84l.32-.34c-.05.78,3.49,2.81,3.74,2.55.11-1.49,2.04-2.64,2.22-4.42l4.05,1.84c-4.23-10.46-12.96-22.73-23.94-26.72-16.04-5.84-27.91,8.2-32.61,21.94-.39,1.13-1.88,6.72-1.67,7.47l7.01,4.68c-.1.11-.32,2.49-.37,2.95h-.74c-.35.68.35,1.59.37,1.84.1,1.55.21,4.45,0,5.9,0,.03-.26.14-.37.37-.62,1.29-.65.5-1.29,1.09-1.14,1.04-1.75,2.78-2.4,3.33-.1.08-.64-.09-.74,0-.21.2.37.69.37.73,0,.27-.98,2.85-1.11,2.95-.52.4-.24-.59-.74.74-.87-.03-1.69-.46-2.58-.37-.26,3.72-.6,7.49-.37,11.24-1.96,32.7,51.95,49.75,62.84,7.51.7-3.55,2.11-9.24.84-12.6Z"/>
  <path class="st0" d="M395.05,87.76c-5.21-15.48-2.01-33.78,5.97-48.18,5.77-10.36,15.49-18.43,27.49-16.21,25.34,5.96,36.34,50.36,22.14,71.54-13.87,20.74-47.23,16.68-55.51-6.91l-.09-.25Z"/>
  <path class="st0" d="M462.72,311.34c.45-2.78,2.6-4.18,1.56-7.27-1.93-5.74-7.55,2.73-9.1,4.33-1.41,1.46-3.1,3.33-4.61,4.61-.36.31-2.3,1.91-2.58,1.65-1.39-11.01-2.1-19.57-10.86-27.27-1.65-1.45-5.45-3.37-6.01-5.41-.38-1.4.16-2.51-1.36-3.8-.8-.68-3.31-1.81-3.88-.36,1.7-.11,2.95,2.11,1.67,3.34-6.6,3.24-15.21,4.55-20.03,10.55-5.01,6.23-5.22,14.6-5.59,22.23-.57.11-.85-.06-1.31-.35-2.8-1.81-5.47-5.72-7.71-8.13-1.32-1.41-5.36-6.06-7.21-3.05-1.76,2.86.65,5.57,1.49,8.21-6.63,0-1.57,7.39,2.21,8.11v.54c-.18.39-1,.37-1.11.81-.92,3.65,4.14,6.1,6.64,7.85.69.49,2.01.99,2.39,1.85.12.28.2.61.28.94-5.49-8.18-3.02,11.63-2.11,14.53l.05.26c4.82,29.75,45.08,34.38,56.03,6.65,2.24-6.14,4.93-14.27,1.55-20.27-.46-.63-.87-.78-1.36-.55-.07.05-.14.11-.2.16-.11-.51-.15-.95.49-1.37,1.44-.95,3.39-1.6,4.91-2.64,1.88-1.29,6.73-5.18,3.56-7.13l.04-.88c3.71-.78,8.35-7.77,2.18-8.14Z"/>
  <path class="st0" d="M456.34,201.77c-.13-.34-1.1-2.31-1.78-2.09-.42-1.72-3.13-8.3-4.11-9.7-.87-1.25-2.72-2.01-2.82-2.16-.48-.73-1.29-8.94-1.64-10.7-.34-1.67-.81-3.47-1.37-5.07-.07-.19-.34-.3-.37-.37-.04-.11.04-.26,0-.37-.08-.21-.35-.32-.37-.37-.21-.58-.31-1.23-.37-1.84l.32-.34c-.05.78,3.49,2.81,3.74,2.55.11-1.49,2.04-2.64,2.22-4.42l4.05,1.84c-4.23-10.46-12.96-22.73-23.94-26.72-16.04-5.84-27.91,8.2-32.61,21.94-.39,1.13-1.88,6.72-1.67,7.47l7.01,4.68c-.1.11-.32,2.49-.37,2.95h-.74c-.35.68.35,1.59.37,1.84.1,1.55.21,4.45,0,5.9,0,.03-.26.14-.37.37-.62,1.29-.65.5-1.29,1.09-1.14,1.04-1.75,2.78-2.4,3.33-.1.08-.64-.09-.74,0-.21.2.37.69.37.73,0,.27-.98,2.85-1.11,2.95-.52.4-.24-.59-.74.74-.87-.03-1.69-.46-2.58-.37-.26,3.72-.6,7.49-.37,11.24-1.96,32.7,51.95,49.75,62.84,7.51.7-3.55,2.11-9.24.84-12.6Z"/>
  <path class="st0" d="M392.87,481.14c-5.21-15.48-2.01-33.78,5.97-48.18,5.77-10.36,15.49-18.43,27.49-16.21,25.34,5.96,36.34,50.36,22.14,71.54-13.87,20.74-47.23,16.68-55.51-6.91l-.09-.25Z"/>
  <path class="st0" d="M462.72,704.72c.45-2.78,2.6-4.18,1.56-7.27-1.93-5.74-7.55,2.73-9.1,4.33-1.41,1.46-3.1,3.33-4.61,4.61-.36.31-2.3,1.91-2.58,1.65-1.39-11.01-2.1-19.57-10.86-27.27-1.65-1.45-5.45-3.37-6.01-5.41-.38-1.4.16-2.51-1.36-3.8-.8-.68-3.31-1.81-3.88-.36,1.7-.11,2.95,2.11,1.67,3.34-6.6,3.24-15.21,4.55-20.03,10.55-5.01,6.23-5.22,14.6-5.59,22.23-.57.11-.85-.06-1.31-.35-2.8-1.81-5.47-5.72-7.71-8.13-1.32-1.41-5.36-6.06-7.21-3.05-1.76,2.86.65,5.57,1.49,8.21-6.63,0-1.57,7.39,2.21,8.11v.54c-.18.39-1,.37-1.11.81-.92,3.65,4.14,6.1,6.64,7.85.69.49,2.01.99,2.39,1.85.12.28.2.61.28.94-5.49-8.18-3.02,11.63-2.11,14.53l.05.26c4.82,29.75,45.08,34.38,56.03,6.65,2.24-6.14,4.93-14.27,1.55-20.27-.46-.63-.87-.78-1.36-.55-.07.05-.14.11-.2.16-.11-.51-.15-.95.49-1.37,1.44-.95,3.39-1.6,4.91-2.64,1.88-1.29,6.73-5.18,3.56-7.13l.04-.88c3.71-.78,8.35-7.77,2.18-8.14Z"/>
  <path class="st0" d="M452.59,595.15c-.13-.34-1.1-2.31-1.78-2.09-.42-1.72-3.13-8.3-4.11-9.7-.87-1.25-2.72-2.01-2.82-2.16-.48-.73-1.29-8.94-1.64-10.7-.34-1.67-.81-3.47-1.37-5.07-.07-.19-.34-.3-.37-.37-.04-.11.04-.26,0-.37-.08-.21-.35-.32-.37-.37-.21-.58-.31-1.23-.37-1.84l.32-.34c-.05.78,3.49,2.81,3.74,2.55.11-1.49,2.04-2.64,2.22-4.42l4.05,1.84c-4.23-10.46-12.96-22.73-23.94-26.72-16.04-5.84-27.91,8.2-32.61,21.94-.39,1.13-1.88,6.72-1.67,7.47l7.01,4.68c-.1.11-.32,2.49-.37,2.95h-.74c-.35.68.35,1.59.37,1.84.1,1.55.21,4.45,0,5.9,0,.03-.26.14-.37.37-.62,1.29-.65.5-1.29,1.09-1.14,1.04-1.75,2.78-2.4,3.33-.1.08-.64-.09-.74,0-.21.2.37.69.37.73,0,.27-.98,2.85-1.11,2.95-.52.4-.24-.59-.74.74-.87-.03-1.69-.46-2.58-.37-.26,3.72-.6,7.49-.37,11.24-1.96,32.7,51.95,49.75,62.84,7.51.7-3.55,2.11-9.24.84-12.6Z"/>
  <path class="st0" d="M511.15,87.76c-5.21-15.48-2.01-33.78,5.97-48.18,5.77-10.36,15.49-18.43,27.49-16.21,25.34,5.96,36.34,50.36,22.14,71.54-13.87,20.74-47.23,16.68-55.51-6.91l-.09-.25Z"/>
  <path class="st0" d="M578.82,311.34c.45-2.78,2.6-4.18,1.56-7.27-1.93-5.74-7.55,2.73-9.1,4.33-1.41,1.46-3.1,3.33-4.61,4.61-.36.31-2.3,1.91-2.58,1.65-1.39-11.01-2.1-19.57-10.86-27.27-1.65-1.45-5.45-3.37-6.01-5.41-.38-1.4.16-2.51-1.36-3.8-.8-.68-3.31-1.81-3.88-.36,1.7-.11,2.95,2.11,1.67,3.34-6.6,3.24-15.21,4.55-20.03,10.55-5.01,6.23-5.22,14.6-5.59,22.23-.57.11-.85-.06-1.31-.35-2.8-1.81-5.47-5.72-7.71-8.13-1.32-1.41-5.36-6.06-7.21-3.05-1.76,2.86.65,5.57,1.49,8.21-6.63,0-1.57,7.39,2.21,8.11v.54c-.18.39-1,.37-1.11.81-.92,3.65,4.14,6.1,6.64,7.85.69.49,2.01.99,2.39,1.85.12.28.2.61.28.94-5.49-8.18-3.02,11.63-2.11,14.53l.05.26c4.82,29.75,45.08,34.38,56.03,6.65,2.24-6.14,4.93-14.27,1.55-20.27-.46-.63-.87-.78-1.36-.55-.07.05-.14.11-.2.16-.11-.51-.15-.95.49-1.37,1.44-.95,3.39-1.6,4.91-2.64,1.88-1.29,6.73-5.18,3.56-7.13l.04-.88c3.71-.78,8.35-7.77,2.18-8.14Z"/>
  <path class="st0" d="M572.44,201.77c-.13-.34-1.1-2.31-1.78-2.09-.42-1.72-3.13-8.3-4.11-9.7-.87-1.25-2.72-2.01-2.82-2.16-.48-.73-1.29-8.94-1.64-10.7-.34-1.67-.81-3.47-1.37-5.07-.07-.19-.34-.3-.37-.37-.04-.11.04-.26,0-.37-.08-.21-.35-.32-.37-.37-.21-.58-.31-1.23-.37-1.84l.32-.34c-.05.78,3.49,2.81,3.74,2.55.11-1.49,2.04-2.64,2.22-4.42l4.05,1.84c-4.23-10.46-12.96-22.73-23.94-26.72-16.04-5.84-27.91,8.2-32.61,21.94-.39,1.13-1.88,6.72-1.67,7.47l7.01,4.68c-.1.11-.32,2.49-.37,2.95h-.74c-.35.68.35,1.59.37,1.84.1,1.55.21,4.45,0,5.9,0,.03-.26.14-.37.37-.62,1.29-.65.5-1.29,1.09-1.14,1.04-1.75,2.78-2.4,3.33-.1.08-.64-.09-.74,0-.21.2.37.69.37.73,0,.27-.98,2.85-1.11,2.95-.52.4-.24-.59-.74.74-.87-.03-1.69-.46-2.58-.37-.26,3.72-.6,7.49-.37,11.24-1.96,32.7,51.95,49.75,62.84,7.51.7-3.55,2.11-9.24.84-12.6Z"/>
  <path class="st0" d="M508.98,481.14c-5.21-15.48-2.01-33.78,5.97-48.18,5.77-10.36,15.49-18.43,27.49-16.21,25.34,5.96,36.34,50.36,22.14,71.54-13.87,20.74-47.23,16.68-55.51-6.91l-.09-.25Z"/>
  <path class="st0" d="M578.82,704.72c.45-2.78,2.6-4.18,1.56-7.27-1.93-5.74-7.55,2.73-9.1,4.33-1.41,1.46-3.1,3.33-4.61,4.61-.36.31-2.3,1.91-2.58,1.65-1.39-11.01-2.1-19.57-10.86-27.27-1.65-1.45-5.45-3.37-6.01-5.41-.38-1.4.16-2.51-1.36-3.8-.8-.68-3.31-1.81-3.88-.36,1.7-.11,2.95,2.11,1.67,3.34-6.6,3.24-15.21,4.55-20.03,10.55-5.01,6.23-5.22,14.6-5.59,22.23-.57.11-.85-.06-1.31-.35-2.8-1.81-5.47-5.72-7.71-8.13-1.32-1.41-5.36-6.06-7.21-3.05-1.76,2.86.65,5.57,1.49,8.21-6.63,0-1.57,7.39,2.21,8.11v.54c-.18.39-1,.37-1.11.81-.92,3.65,4.14,6.1,6.64,7.85.69.49,2.01.99,2.39,1.85.12.28.2.61.28.94-5.49-8.18-3.02,11.63-2.11,14.53l.05.26c4.82,29.75,45.08,34.38,56.03,6.65,2.24-6.14,4.93-14.27,1.55-20.27-.46-.63-.87-.78-1.36-.55-.07.05-.14.11-.2.16-.11-.51-.15-.95.49-1.37,1.44-.95,3.39-1.6,4.91-2.64,1.88-1.29,6.73-5.18,3.56-7.13l.04-.88c3.71-.78,8.35-7.77,2.18-8.14Z"/>
  <path class="st0" d="M568.7,595.15c-.13-.34-1.1-2.31-1.78-2.09-.42-1.72-3.13-8.3-4.11-9.7-.87-1.25-2.72-2.01-2.82-2.16-.48-.73-1.29-8.94-1.64-10.7-.34-1.67-.81-3.47-1.37-5.07-.07-.19-.34-.3-.37-.37-.04-.11.04-.26,0-.37-.08-.21-.35-.32-.37-.37-.21-.58-.31-1.23-.37-1.84l.32-.34c-.05.78,3.49,2.81,3.74,2.55.11-1.49,2.04-2.64,2.22-4.42l4.05,1.84c-4.23-10.46-12.96-22.73-23.94-26.72-16.04-5.84-27.91,8.2-32.61,21.94-.39,1.13-1.88,6.72-1.67,7.47l7.01,4.68c-.1.11-.32,2.49-.37,2.95h-.74c-.35.68.35,1.59.37,1.84.1,1.55.21,4.45,0,5.9,0,.03-.26.14-.37.37-.62,1.29-.65.5-1.29,1.09-1.14,1.04-1.75,2.78-2.4,3.33-.1.08-.64-.09-.74,0-.21.2.37.69.37.73,0,.27-.98,2.85-1.11,2.95-.52.4-.24-.59-.74.74-.87-.03-1.69-.46-2.58-.37-.26,3.72-.6,7.49-.37,11.24-1.96,32.7,51.95,49.75,62.84,7.51.7-3.55,2.11-9.24.84-12.6Z"/>
</svg>