<?xml version="1.0" encoding="UTF-8"?>
<svg id="Layer_1" xmlns="http://www.w3.org/2000/svg" width="612" height="792" version="1.1" viewBox="0 0 612 792">
  <!-- Generator: Adobe Illustrator 29.2.1, SVG Export Plug-In . SVG Version: 2.1.0 Build 116)  -->
  <defs>
    <style>
      .st0 {
        fill: #f3a42e;
      }
    </style>
  </defs>
  <path class="st0" d="M46.61,327.92c-2.49-1.75-7.56-4.2-6.64-7.85.11-.44.93-.42,1.11-.81v-.54c-3.78-.72-8.84-8.11-2.21-8.11-.84-2.64-3.24-5.35-1.49-8.21,1.84-3.01,5.89,1.64,7.21,3.05,2.25,2.4,4.92,6.32,7.71,8.13.45.29.73.46,1.31.35.37-7.62.58-16,5.59-22.23,4.82-5.99,13.44-7.3,20.03-10.55,1.28-1.23.03-3.45-1.67-3.34.56-1.45,3.07-.31,3.88.36,1.52,1.28.98,2.4,1.36,3.8.56,2.04,4.36,3.96,6.01,5.41,8.76,7.71,9.47,16.26,10.86,27.27.28.26,2.22-1.34,2.58-1.65,1.51-1.28,3.2-3.15,4.61-4.61,1.55-1.6,7.18-10.07,9.1-4.33,1.04,3.09-1.1,4.49-1.56,7.27,6.17.37,1.53,7.36-2.18,8.14l-.04.88c3.17,1.95-1.68,5.84-3.56,7.13-1.52,1.04-3.47,1.69-4.91,2.64-1.19.78-.06,1.59-.39,2.93-2.22-.34-6.09,3.51-7.56,3.7s-3.86-1.12-5.7-.94c-2.39.23-5.75,2.55-8.27,3.02-1.19-.4-3.18-3.06-4.35-2.78-.41.1-5.08,5.25-5.79,6.04-.62.7-3.12,4.85-4.23,4.61l-6.61-16.25c-.36-.32-.57-.36-1.04-.27-1.45.29-7.45,4.51-8.53,4.31-1.97-1.08-1.66-3.33-2.27-4.73-.37-.86-1.69-1.36-2.39-1.85Z"/>
  <path class="st0" d="M54.29,176.11c.08-.09,1.4-.36,2.18-.95.99-.74,5.77-5.76,6.43-5.65l7.39,8.84,1.44.37,6.73-9.95,7.34,4.4c1.56,0,5.49-7.35,7.48-6.2l1.2,2.11.71.03c.06.62.16,1.26.37,1.84l.37.37c.04.11-.04.26,0,.37l.37.37c.56,1.6,1.04,3.4,1.37,5.07.36,1.76,1.16,9.97,1.64,10.7.1.15,1.94.9,2.82,2.16.98,1.41,3.7,7.98,4.11,9.7.09.39.21,1.06.19,1.47-3.19-2.35-5.65,2.65-8.56,3.24-1.97.4-5.06-.87-6.82-.59-2.1.34-7.83,3.84-9.48,3.08-.91-.42-2.76-3.01-3.81-2.73-1.63.43-9.61,11.27-10.75,11.02l-6.87-17.64c-.61-.19-1.2-.07-1.78.15-1.96.76-5,3.27-7.03,4.02-.79.29-1.33.38-2.04-.15-.17-.13-2.53-3.13-2.6-3.33-.26-.84.3-1.44.6-2.22.24,0,.49.02.73,0v-.73c.13-.1,1.11-2.68,1.11-2.95l.37-.74c.65-.55,1.26-2.29,2.4-3.33.64-.59.67.2,1.29-1.09l.37-.37c.21-1.45.1-4.34,0-5.9.62-.32.31-1.26.37-1.84.04-.46.27-2.83.37-2.95Z"/>
  <path class="st0" d="M46.61,721.3c-2.49-1.75-7.56-4.2-6.64-7.85.11-.44.93-.42,1.11-.81v-.54c-3.78-.72-8.84-8.11-2.21-8.11-.84-2.64-3.24-5.35-1.49-8.21,1.84-3.01,5.89,1.64,7.21,3.05,2.25,2.4,4.92,6.32,7.71,8.13.45.29.73.46,1.31.35.37-7.62.58-16,5.59-22.23,4.82-5.99,13.44-7.3,20.03-10.55,1.28-1.23.03-3.45-1.67-3.34.56-1.45,3.07-.31,3.88.36,1.52,1.28.98,2.4,1.36,3.8.56,2.04,4.36,3.96,6.01,5.41,8.76,7.71,9.47,16.26,10.86,27.27.28.26,2.22-1.34,2.58-1.65,1.51-1.28,3.2-3.15,4.61-4.61,1.55-1.6,7.18-10.07,9.1-4.33,1.04,3.09-1.1,4.49-1.56,7.27,6.17.37,1.53,7.36-2.18,8.14l-.04.88c3.17,1.95-1.68,5.84-3.56,7.13-1.52,1.04-3.47,1.69-4.91,2.64-1.19.78-.06,1.59-.39,2.93-2.22-.34-6.09,3.51-7.56,3.7s-3.86-1.12-5.7-.94c-2.39.23-5.75,2.55-8.27,3.02-1.19-.4-3.18-3.06-4.35-2.78-.41.1-5.08,5.25-5.79,6.04-.62.7-3.12,4.85-4.23,4.61l-6.61-16.25c-.36-.32-.57-.36-1.04-.27-1.45.29-7.45,4.51-8.53,4.31-1.97-1.08-1.66-3.33-2.27-4.73-.37-.86-1.69-1.36-2.39-1.85Z"/>
  <path class="st0" d="M50.55,569.49c.08-.09,1.4-.36,2.18-.95.99-.74,5.77-5.76,6.43-5.65l7.39,8.84,1.44.37,6.73-9.95,7.34,4.4c1.56,0,5.49-7.35,7.48-6.2l1.2,2.11.71.03c.06.62.16,1.26.37,1.84l.37.37c.04.11-.04.26,0,.37l.37.37c.56,1.6,1.04,3.4,1.37,5.07.36,1.76,1.16,9.97,1.64,10.7.1.15,1.94.9,2.82,2.16.98,1.41,3.7,7.98,4.11,9.7.09.39.21,1.06.19,1.47-3.19-2.35-5.65,2.65-8.56,3.24-1.97.4-5.06-.87-6.82-.59-2.1.34-7.83,3.84-9.48,3.08-.91-.42-2.76-3.01-3.81-2.73-1.63.43-9.61,11.27-10.75,11.02l-6.87-17.64c-.61-.19-1.2-.07-1.78.15-1.96.76-5,3.27-7.03,4.02-.79.29-1.33.38-2.04-.15-.17-.13-2.53-3.13-2.6-3.33-.26-.84.3-1.44.6-2.22.24,0,.49.02.73,0v-.73c.13-.1,1.11-2.68,1.11-2.95l.37-.74c.65-.55,1.26-2.29,2.4-3.33.64-.59.67.2,1.29-1.09l.37-.37c.21-1.45.1-4.34,0-5.9.62-.32.31-1.26.37-1.84.04-.46.27-2.83.37-2.95Z"/>
  <path class="st0" d="M162.72,327.92c-2.49-1.75-7.56-4.2-6.64-7.85.11-.44.93-.42,1.11-.81v-.54c-3.78-.72-8.84-8.11-2.21-8.11-.84-2.64-3.24-5.35-1.49-8.21,1.84-3.01,5.89,1.64,7.21,3.05,2.25,2.4,4.92,6.32,7.71,8.13.45.29.73.46,1.31.35.37-7.62.58-16,5.59-22.23,4.82-5.99,13.44-7.3,20.03-10.55,1.28-1.23.03-3.45-1.67-3.34.56-1.45,3.07-.31,3.88.36,1.52,1.28.98,2.4,1.36,3.8.56,2.04,4.36,3.96,6.01,5.41,8.76,7.71,9.47,16.26,10.86,27.27.28.26,2.22-1.34,2.58-1.65,1.51-1.28,3.2-3.15,4.61-4.61,1.55-1.6,7.18-10.07,9.1-4.33,1.04,3.09-1.1,4.49-1.56,7.27,6.17.37,1.53,7.36-2.18,8.14l-.04.88c3.17,1.95-1.68,5.84-3.56,7.13-1.52,1.04-3.47,1.69-4.91,2.64-1.19.78-.06,1.59-.39,2.93-2.22-.34-6.09,3.51-7.56,3.7s-3.86-1.12-5.7-.94c-2.39.23-5.75,2.55-8.27,3.02-1.19-.4-3.18-3.06-4.35-2.78-.41.1-5.08,5.25-5.79,6.04-.62.7-3.12,4.85-4.23,4.61l-6.61-16.25c-.36-.32-.57-.36-1.04-.27-1.45.29-7.45,4.51-8.53,4.31-1.97-1.08-1.66-3.33-2.27-4.73-.37-.86-1.69-1.36-2.39-1.85Z"/>
  <path class="st0" d="M170.4,176.11c.08-.09,1.4-.36,2.18-.95.99-.74,5.77-5.76,6.43-5.65l7.39,8.84,1.44.37,6.73-9.95,7.34,4.4c1.56,0,5.49-7.35,7.48-6.2l1.2,2.11.71.03c.06.62.16,1.26.37,1.84l.37.37c.04.11-.04.26,0,.37l.37.37c.56,1.6,1.04,3.4,1.37,5.07.36,1.76,1.16,9.97,1.64,10.7.1.15,1.94.9,2.82,2.16.98,1.41,3.7,7.98,4.11,9.7.09.39.21,1.06.19,1.47-3.19-2.35-5.65,2.65-8.56,3.24-1.97.4-5.06-.87-6.82-.59-2.1.34-7.83,3.84-9.48,3.08-.91-.42-2.76-3.01-3.81-2.73-1.63.43-9.61,11.27-10.75,11.02l-6.87-17.64c-.61-.19-1.2-.07-1.78.15-1.96.76-5,3.27-7.03,4.02-.79.29-1.33.38-2.04-.15-.17-.13-2.53-3.13-2.6-3.33-.26-.84.3-1.44.6-2.22.24,0,.49.02.73,0v-.73c.13-.1,1.11-2.68,1.11-2.95l.37-.74c.65-.55,1.26-2.29,2.4-3.33.64-.59.67.2,1.29-1.09l.37-.37c.21-1.45.1-4.34,0-5.9.62-.32.31-1.26.37-1.84.04-.46.27-2.83.37-2.95Z"/>
  <path class="st0" d="M162.72,721.3c-2.49-1.75-7.56-4.2-6.64-7.85.11-.44.93-.42,1.11-.81v-.54c-3.78-.72-8.84-8.11-2.21-8.11-.84-2.64-3.24-5.35-1.49-8.21,1.84-3.01,5.89,1.64,7.21,3.05,2.25,2.4,4.92,6.32,7.71,8.13.45.29.73.46,1.31.35.37-7.62.58-16,5.59-22.23s13.44-7.3,20.03-10.55c1.28-1.23.03-3.45-1.67-3.34.56-1.45,3.07-.31,3.88.36,1.52,1.28.98,2.4,1.36,3.8.56,2.04,4.36,3.96,6.01,5.41,8.76,7.71,9.47,16.26,10.86,27.27.28.26,2.22-1.34,2.58-1.65,1.51-1.28,3.2-3.15,4.61-4.61,1.55-1.6,7.18-10.07,9.1-4.33,1.04,3.09-1.1,4.49-1.56,7.27,6.17.37,1.53,7.36-2.18,8.14l-.04.88c3.17,1.95-1.68,5.84-3.56,7.13-1.52,1.04-3.47,1.69-4.91,2.64-1.19.78-.06,1.59-.39,2.93-2.22-.34-6.09,3.51-7.56,3.7s-3.86-1.12-5.7-.94c-2.39.23-5.75,2.55-8.27,3.02-1.19-.4-3.18-3.06-4.35-2.78-.41.1-5.08,5.25-5.79,6.04-.62.7-3.12,4.85-4.23,4.61l-6.61-16.25c-.36-.32-.57-.36-1.04-.27-1.45.29-7.45,4.51-8.53,4.31-1.97-1.08-1.66-3.33-2.27-4.73-.37-.86-1.69-1.36-2.39-1.85Z"/>
  <path class="st0" d="M166.65,569.49c.08-.09,1.4-.36,2.18-.95.99-.74,5.77-5.76,6.43-5.65l7.39,8.84,1.44.37,6.73-9.95,7.34,4.4c1.56,0,5.49-7.35,7.48-6.2l1.2,2.11.71.03c.06.62.16,1.26.37,1.84l.37.37c.04.11-.04.26,0,.37l.37.37c.56,1.6,1.04,3.4,1.37,5.07.36,1.76,1.16,9.97,1.64,10.7.1.15,1.94.9,2.82,2.16.98,1.41,3.7,7.98,4.11,9.7.09.39.21,1.06.19,1.47-3.19-2.35-5.65,2.65-8.56,3.24-1.97.4-5.06-.87-6.82-.59-2.1.34-7.83,3.84-9.48,3.08-.91-.42-2.76-3.01-3.81-2.73-1.63.43-9.61,11.27-10.75,11.02l-6.87-17.64c-.61-.19-1.2-.07-1.78.15-1.96.76-5,3.27-7.03,4.02-.79.29-1.33.38-2.04-.15-.17-.13-2.53-3.13-2.6-3.33-.26-.84.3-1.44.6-2.22.24,0,.49.02.73,0v-.73c.13-.1,1.11-2.68,1.11-2.95l.37-.74c.65-.55,1.26-2.29,2.4-3.33.64-.59.67.2,1.29-1.09l.37-.37c.21-1.45.1-4.34,0-5.9.62-.32.31-1.26.37-1.84.04-.46.27-2.83.37-2.95Z"/>
  <path class="st0" d="M278.82,327.92c-2.49-1.75-7.56-4.2-6.64-7.85.11-.44.93-.42,1.11-.81v-.54c-3.78-.72-8.84-8.11-2.21-8.11-.84-2.64-3.24-5.35-1.49-8.21,1.84-3.01,5.89,1.64,7.21,3.05,2.25,2.4,4.92,6.32,7.71,8.13.45.29.73.46,1.31.35.37-7.62.58-16,5.59-22.23,4.82-5.99,13.44-7.3,20.03-10.55,1.28-1.23.03-3.45-1.67-3.34.56-1.45,3.07-.31,3.88.36,1.52,1.28.98,2.4,1.36,3.8.56,2.04,4.36,3.96,6.01,5.41,8.76,7.71,9.47,16.26,10.86,27.27.28.26,2.22-1.34,2.58-1.65,1.51-1.28,3.2-3.15,4.61-4.61,1.55-1.6,7.18-10.07,9.1-4.33,1.04,3.09-1.1,4.49-1.56,7.27,6.17.37,1.53,7.36-2.18,8.14l-.04.88c3.17,1.95-1.68,5.84-3.56,7.13-1.52,1.04-3.47,1.69-4.91,2.64-1.19.78-.06,1.59-.39,2.93-2.22-.34-6.09,3.51-7.56,3.7s-3.86-1.12-5.7-.94c-2.39.23-5.75,2.55-8.27,3.02-1.19-.4-3.18-3.06-4.35-2.78-.41.1-5.08,5.25-5.79,6.04-.62.7-3.12,4.85-4.23,4.61l-6.61-16.25c-.36-.32-.57-.36-1.04-.27-1.45.29-7.45,4.51-8.53,4.31-1.97-1.08-1.66-3.33-2.27-4.73-.37-.86-1.69-1.36-2.39-1.85Z"/>
  <path class="st0" d="M286.5,176.11c.08-.09,1.4-.36,2.18-.95.99-.74,5.77-5.76,6.43-5.65l7.39,8.84,1.44.37,6.73-9.95,7.34,4.4c1.56,0,5.49-7.35,7.48-6.2l1.2,2.11.71.03c.06.62.16,1.26.37,1.84l.37.37c.04.11-.04.26,0,.37l.37.37c.56,1.6,1.04,3.4,1.37,5.07.36,1.76,1.16,9.97,1.64,10.7.1.15,1.94.9,2.82,2.16.98,1.41,3.7,7.98,4.11,9.7.09.39.21,1.06.19,1.47-3.19-2.35-5.65,2.65-8.56,3.24-1.97.4-5.06-.87-6.82-.59-2.1.34-7.83,3.84-9.48,3.08-.91-.42-2.76-3.01-3.81-2.73-1.63.43-9.61,11.27-10.75,11.02l-6.87-17.64c-.61-.19-1.2-.07-1.78.15-1.96.76-5,3.27-7.03,4.02-.79.29-1.33.38-2.04-.15-.17-.13-2.53-3.13-2.6-3.33-.26-.84.3-1.44.6-2.22.24,0,.49.02.73,0v-.73c.13-.1,1.11-2.68,1.11-2.95l.37-.74c.65-.55,1.26-2.29,2.4-3.33.64-.59.67.2,1.29-1.09l.37-.37c.21-1.45.1-4.34,0-5.9.62-.32.31-1.26.37-1.84.04-.46.27-2.83.37-2.95Z"/>
  <path class="st0" d="M278.82,721.3c-2.49-1.75-7.56-4.2-6.64-7.85.11-.44.93-.42,1.11-.81v-.54c-3.78-.72-8.84-8.11-2.21-8.11-.84-2.64-3.24-5.35-1.49-8.21,1.84-3.01,5.89,1.64,7.21,3.05,2.25,2.4,4.92,6.32,7.71,8.13.45.29.73.46,1.31.35.37-7.62.58-16,5.59-22.23,4.82-5.99,13.44-7.3,20.03-10.55,1.28-1.23.03-3.45-1.67-3.34.56-1.45,3.07-.31,3.88.36,1.52,1.28.98,2.4,1.36,3.8.56,2.04,4.36,3.96,6.01,5.41,8.76,7.71,9.47,16.26,10.86,27.27.28.26,2.22-1.34,2.58-1.65,1.51-1.28,3.2-3.15,4.61-4.61,1.55-1.6,7.18-10.07,9.1-4.33,1.04,3.09-1.1,4.49-1.56,7.27,6.17.37,1.53,7.36-2.18,8.14l-.04.88c3.17,1.95-1.68,5.84-3.56,7.13-1.52,1.04-3.47,1.69-4.91,2.64-1.19.78-.06,1.59-.39,2.93-2.22-.34-6.09,3.51-7.56,3.7s-3.86-1.12-5.7-.94c-2.39.23-5.75,2.55-8.27,3.02-1.19-.4-3.18-3.06-4.35-2.78-.41.1-5.08,5.25-5.79,6.04-.62.7-3.12,4.85-4.23,4.61l-6.61-16.25c-.36-.32-.57-.36-1.04-.27-1.45.29-7.45,4.51-8.53,4.31-1.97-1.08-1.66-3.33-2.27-4.73-.37-.86-1.69-1.36-2.39-1.85Z"/>
  <path class="st0" d="M282.75,569.49c.08-.09,1.4-.36,2.18-.95.99-.74,5.77-5.76,6.43-5.65l7.39,8.84,1.44.37,6.73-9.95,7.34,4.4c1.56,0,5.49-7.35,7.48-6.2l1.2,2.11.71.03c.06.62.16,1.26.37,1.84l.37.37c.04.11-.04.26,0,.37l.37.37c.56,1.6,1.04,3.4,1.37,5.07.36,1.76,1.16,9.97,1.64,10.7.1.15,1.94.9,2.82,2.16.98,1.41,3.7,7.98,4.11,9.7.09.39.21,1.06.19,1.47-3.19-2.35-5.65,2.65-8.56,3.24-1.97.4-5.06-.87-6.82-.59-2.1.34-7.83,3.84-9.48,3.08-.91-.42-2.76-3.01-3.81-2.73-1.63.43-9.61,11.27-10.75,11.02l-6.87-17.64c-.61-.19-1.2-.07-1.78.15-1.96.76-5,3.27-7.03,4.02-.79.29-1.33.38-2.04-.15-.17-.13-2.53-3.13-2.6-3.33-.26-.84.3-1.44.6-2.22.24,0,.49.02.73,0v-.73c.13-.1,1.11-2.68,1.11-2.95l.37-.74c.65-.55,1.26-2.29,2.4-3.33.64-.59.67.2,1.29-1.09l.37-.37c.21-1.45.1-4.34,0-5.9.62-.32.31-1.26.37-1.84.04-.46.27-2.83.37-2.95Z"/>
  <path class="st0" d="M394.92,327.92c-2.49-1.75-7.56-4.2-6.64-7.85.11-.44.93-.42,1.11-.81v-.54c-3.78-.72-8.84-8.11-2.21-8.11-.84-2.64-3.24-5.35-1.49-8.21,1.84-3.01,5.89,1.64,7.21,3.05,2.25,2.4,4.92,6.32,7.71,8.13.45.29.73.46,1.31.35.37-7.62.58-16,5.59-22.23,4.82-5.99,13.44-7.3,20.03-10.55,1.28-1.23.03-3.45-1.67-3.34.56-1.45,3.07-.31,3.88.36,1.52,1.28.98,2.4,1.36,3.8.56,2.04,4.36,3.96,6.01,5.41,8.76,7.71,9.47,16.26,10.86,27.27.28.26,2.22-1.34,2.58-1.65,1.51-1.28,3.2-3.15,4.61-4.61,1.55-1.6,7.18-10.07,9.1-4.33,1.04,3.09-1.1,4.49-1.56,7.27,6.17.37,1.53,7.36-2.18,8.14l-.04.88c3.17,1.95-1.68,5.84-3.56,7.13-1.52,1.04-3.47,1.69-4.91,2.64-1.19.78-.06,1.59-.39,2.93-2.22-.34-6.09,3.51-7.56,3.7s-3.86-1.12-5.7-.94c-2.39.23-5.75,2.55-8.27,3.02-1.19-.4-3.18-3.06-4.35-2.78-.41.1-5.08,5.25-5.79,6.04-.62.7-3.12,4.85-4.23,4.61l-6.61-16.25c-.36-.32-.57-.36-1.04-.27-1.45.29-7.45,4.51-8.53,4.31-1.97-1.08-1.66-3.33-2.27-4.73-.37-.86-1.69-1.36-2.39-1.85Z"/>
  <path class="st0" d="M402.6,176.11c.08-.09,1.4-.36,2.18-.95.99-.74,5.77-5.76,6.43-5.65l7.39,8.84,1.44.37,6.73-9.95,7.34,4.4c1.56,0,5.49-7.35,7.48-6.2l1.2,2.11.71.03c.06.62.16,1.26.37,1.84l.37.37c.04.11-.04.26,0,.37l.37.37c.56,1.6,1.04,3.4,1.37,5.07.36,1.76,1.16,9.97,1.64,10.7.1.15,1.94.9,2.82,2.16.98,1.41,3.7,7.98,4.11,9.7.09.39.21,1.06.19,1.47-3.19-2.35-5.65,2.65-8.56,3.24-1.97.4-5.06-.87-6.82-.59-2.1.34-7.83,3.84-9.48,3.08-.91-.42-2.76-3.01-3.81-2.73-1.63.43-9.61,11.27-10.75,11.02l-6.87-17.64c-.61-.19-1.2-.07-1.78.15-1.96.76-5,3.27-7.03,4.02-.79.29-1.33.38-2.04-.15-.17-.13-2.53-3.13-2.6-3.33-.26-.84.3-1.44.6-2.22.24,0,.49.02.73,0v-.73c.13-.1,1.11-2.68,1.11-2.95l.37-.74c.65-.55,1.26-2.29,2.4-3.33.64-.59.67.2,1.29-1.09l.37-.37c.21-1.45.1-4.34,0-5.9.62-.32.31-1.26.37-1.84.04-.46.27-2.83.37-2.95Z"/>
  <path class="st0" d="M394.92,721.3c-2.49-1.75-7.56-4.2-6.64-7.85.11-.44.93-.42,1.11-.81v-.54c-3.78-.72-8.84-8.11-2.21-8.11-.84-2.64-3.24-5.35-1.49-8.21,1.84-3.01,5.89,1.64,7.21,3.05,2.25,2.4,4.92,6.32,7.71,8.13.45.29.73.46,1.31.35.37-7.62.58-16,5.59-22.23s13.44-7.3,20.03-10.55c1.28-1.23.03-3.45-1.67-3.34.56-1.45,3.07-.31,3.88.36,1.52,1.28.98,2.4,1.36,3.8.56,2.04,4.36,3.96,6.01,5.41,8.76,7.71,9.47,16.26,10.86,27.27.28.26,2.22-1.34,2.58-1.65,1.51-1.28,3.2-3.15,4.61-4.61,1.55-1.6,7.18-10.07,9.1-4.33,1.04,3.09-1.1,4.49-1.56,7.27,6.17.37,1.53,7.36-2.18,8.14l-.04.88c3.17,1.95-1.68,5.84-3.56,7.13-1.52,1.04-3.47,1.69-4.91,2.64-1.19.78-.06,1.59-.39,2.93-2.22-.34-6.09,3.51-7.56,3.7s-3.86-1.12-5.7-.94c-2.39.23-5.75,2.55-8.27,3.02-1.19-.4-3.18-3.06-4.35-2.78-.41.1-5.08,5.25-5.79,6.04-.62.7-3.12,4.85-4.23,4.61l-6.61-16.25c-.36-.32-.57-.36-1.04-.27-1.45.29-7.45,4.51-8.53,4.31-1.97-1.08-1.66-3.33-2.27-4.73-.37-.86-1.69-1.36-2.39-1.85Z"/>
  <path class="st0" d="M398.86,569.49c.08-.09,1.4-.36,2.18-.95.99-.74,5.77-5.76,6.43-5.65l7.39,8.84,1.44.37,6.73-9.95,7.34,4.4c1.56,0,5.49-7.35,7.48-6.2l1.2,2.11.71.03c.06.62.16,1.26.37,1.84l.37.37c.04.11-.04.26,0,.37l.37.37c.56,1.6,1.04,3.4,1.37,5.07.36,1.76,1.16,9.97,1.64,10.7.1.15,1.94.9,2.82,2.16.98,1.41,3.7,7.98,4.11,9.7.09.39.21,1.06.19,1.47-3.19-2.35-5.65,2.65-8.56,3.24-1.97.4-5.06-.87-6.82-.59-2.1.34-7.83,3.84-9.48,3.08-.91-.42-2.76-3.01-3.81-2.73-1.63.43-9.61,11.27-10.75,11.02l-6.87-17.64c-.61-.19-1.2-.07-1.78.15-1.96.76-5,3.27-7.03,4.02-.79.29-1.33.38-2.04-.15-.17-.13-2.53-3.13-2.6-3.33-.26-.84.3-1.44.6-2.22.24,0,.49.02.73,0v-.73c.13-.1,1.11-2.68,1.11-2.95l.37-.74c.65-.55,1.26-2.29,2.4-3.33.64-.59.67.2,1.29-1.09l.37-.37c.21-1.45.1-4.34,0-5.9.62-.32.31-1.26.37-1.84.04-.46.27-2.83.37-2.95Z"/>
  <path class="st0" d="M511.03,327.92c-2.49-1.75-7.56-4.2-6.64-7.85.11-.44.93-.42,1.11-.81v-.54c-3.78-.72-8.84-8.11-2.21-8.11-.84-2.64-3.24-5.35-1.49-8.21,1.84-3.01,5.89,1.64,7.21,3.05,2.25,2.4,4.92,6.32,7.71,8.13.45.29.73.46,1.31.35.37-7.62.58-16,5.59-22.23,4.82-5.99,13.44-7.3,20.03-10.55,1.28-1.23.03-3.45-1.67-3.34.56-1.45,3.07-.31,3.88.36,1.52,1.28.98,2.4,1.36,3.8.56,2.04,4.36,3.96,6.01,5.41,8.76,7.71,9.47,16.26,10.86,27.27.28.26,2.22-1.34,2.58-1.65,1.51-1.28,3.2-3.15,4.61-4.61,1.55-1.6,7.18-10.07,9.1-4.33,1.04,3.09-1.1,4.49-1.56,7.27,6.17.37,1.53,7.36-2.18,8.14l-.04.88c3.17,1.95-1.68,5.84-3.56,7.13-1.52,1.04-3.47,1.69-4.91,2.64-1.19.78-.06,1.59-.39,2.93-2.22-.34-6.09,3.51-7.56,3.7s-3.86-1.12-5.7-.94c-2.39.23-5.75,2.55-8.27,3.02-1.19-.4-3.18-3.06-4.35-2.78-.41.1-5.08,5.25-5.79,6.04-.62.7-3.12,4.85-4.23,4.61l-6.61-16.25c-.36-.32-.57-.36-1.04-.27-1.45.29-7.45,4.51-8.53,4.31-1.97-1.08-1.66-3.33-2.27-4.73-.37-.86-1.69-1.36-2.39-1.85Z"/>
  <path class="st0" d="M518.71,176.11c.08-.09,1.4-.36,2.18-.95.99-.74,5.77-5.76,6.43-5.65l7.39,8.84,1.44.37,6.73-9.95,7.34,4.4c1.56,0,5.49-7.35,7.48-6.2l1.2,2.11.71.03c.06.62.16,1.26.37,1.84l.37.37c.04.11-.04.26,0,.37l.37.37c.56,1.6,1.04,3.4,1.37,5.07.36,1.76,1.16,9.97,1.64,10.7.1.15,1.94.9,2.82,2.16.98,1.41,3.7,7.98,4.11,9.7.09.39.21,1.06.19,1.47-3.19-2.35-5.65,2.65-8.56,3.24-1.97.4-5.06-.87-6.82-.59-2.1.34-7.83,3.84-9.48,3.08-.91-.42-2.76-3.01-3.81-2.73-1.63.43-9.61,11.27-10.75,11.02l-6.87-17.64c-.61-.19-1.2-.07-1.78.15-1.96.76-5,3.27-7.03,4.02-.79.29-1.33.38-2.04-.15-.17-.13-2.53-3.13-2.6-3.33-.26-.84.3-1.44.6-2.22.24,0,.49.02.73,0v-.73c.13-.1,1.11-2.68,1.11-2.95l.37-.74c.65-.55,1.26-2.29,2.4-3.33.64-.59.67.2,1.29-1.09l.37-.37c.21-1.45.1-4.34,0-5.9.62-.32.31-1.26.37-1.84.04-.46.27-2.83.37-2.95Z"/>
  <path class="st0" d="M511.03,721.3c-2.49-1.75-7.56-4.2-6.64-7.85.11-.44.93-.42,1.11-.81v-.54c-3.78-.72-8.84-8.11-2.21-8.11-.84-2.64-3.24-5.35-1.49-8.21,1.84-3.01,5.89,1.64,7.21,3.05,2.25,2.4,4.92,6.32,7.71,8.13.45.29.73.46,1.31.35.37-7.62.58-16,5.59-22.23s13.44-7.3,20.03-10.55c1.28-1.23.03-3.45-1.67-3.34.56-1.45,3.07-.31,3.88.36,1.52,1.28.98,2.4,1.36,3.8.56,2.04,4.36,3.96,6.01,5.41,8.76,7.71,9.47,16.26,10.86,27.27.28.26,2.22-1.34,2.58-1.65,1.51-1.28,3.2-3.15,4.61-4.61,1.55-1.6,7.18-10.07,9.1-4.33,1.04,3.09-1.1,4.49-1.56,7.27,6.17.37,1.53,7.36-2.18,8.14l-.04.88c3.17,1.95-1.68,5.84-3.56,7.13-1.52,1.04-3.47,1.69-4.91,2.64-1.19.78-.06,1.59-.39,2.93-2.22-.34-6.09,3.51-7.56,3.7s-3.86-1.12-5.7-.94c-2.39.23-5.75,2.55-8.27,3.02-1.19-.4-3.18-3.06-4.35-2.78-.41.1-5.08,5.25-5.79,6.04-.62.7-3.12,4.85-4.23,4.61l-6.61-16.25c-.36-.32-.57-.36-1.04-.27-1.45.29-7.45,4.51-8.53,4.31-1.97-1.08-1.66-3.33-2.27-4.73-.37-.86-1.69-1.36-2.39-1.85Z"/>
  <path class="st0" d="M514.96,569.49c.08-.09,1.4-.36,2.18-.95.99-.74,5.77-5.76,6.43-5.65l7.39,8.84,1.44.37,6.73-9.95,7.34,4.4c1.56,0,5.49-7.35,7.48-6.2l1.2,2.11.71.03c.06.62.16,1.26.37,1.84l.37.37c.04.11-.04.26,0,.37l.37.37c.56,1.6,1.04,3.4,1.37,5.07.36,1.76,1.16,9.97,1.64,10.7.1.15,1.94.9,2.82,2.16.98,1.41,3.7,7.98,4.11,9.7.09.39.21,1.06.19,1.47-3.19-2.35-5.65,2.65-8.56,3.24-1.97.4-5.06-.87-6.82-.59-2.1.34-7.83,3.84-9.48,3.08-.91-.42-2.76-3.01-3.81-2.73-1.63.43-9.61,11.27-10.75,11.02l-6.87-17.64c-.61-.19-1.2-.07-1.78.15-1.96.76-5,3.27-7.03,4.02-.79.29-1.33.38-2.04-.15-.17-.13-2.53-3.13-2.6-3.33-.26-.84.3-1.44.6-2.22.24,0,.49.02.73,0v-.73c.13-.1,1.11-2.68,1.11-2.95l.37-.74c.65-.55,1.26-2.29,2.4-3.33.64-.59.67.2,1.29-1.09l.37-.37c.21-1.45.1-4.34,0-5.9.62-.32.31-1.26.37-1.84.04-.46.27-2.83.37-2.95Z"/>
</svg>