<?xml version="1.0" encoding="UTF-8"?>
<svg id="Layer_1" xmlns="http://www.w3.org/2000/svg" width="8.5in" height="11in" version="1.1" viewBox="0 0 612 792">
  <!-- Generator: Adobe Illustrator 29.1.0, SVG Export Plug-In . SVG Version: 2.1.0 Build 142)  -->
  <defs>
    <style>
      .st0 {
        fill: none;
        stroke: #231f20;
        stroke-miterlimit: 10;
      }
    </style>
  </defs>
  <circle class="st0" cx="583.8976" cy="759.8855" r="9"/>
  <circle class="st0" cx="27.5518" cy="32.1145" r="9"/>
  <path class="st0" d="M453.2643,440.5931c-17.4094,0-29.5417,27.1558-29.5417,51.5273,0,18.0161,12.9763,32.1284,29.5417,32.1284s29.5417-14.1123,29.5417-32.1284c0-24.3716-12.1324-51.5273-29.5417-51.5273Z"/>
  <path class="st0" d="M453.2643,620.9476c-17.4094,0-29.5417,27.1558-29.5417,51.5273,0,18.0161,12.9763,32.1284,29.5417,32.1284s29.5417-14.1123,29.5417-32.1284c0-24.3716-12.1324-51.5273-29.5417-51.5273Z"/>
  <path class="st0" d="M489.4228,528.7933c-17.4094,0-29.5417,27.1558-29.5417,51.5273,0,18.0161,12.9763,32.1284,29.5417,32.1284s29.5417-14.1123,29.5417-32.1284c0-24.3716-12.1324-51.5273-29.5417-51.5273Z"/>
  <path class="st0" d="M77.3148,440.5931c-17.4094,0-29.5417,27.1558-29.5417,51.5273,0,18.0161,12.9763,32.1284,29.5417,32.1284s29.5417-14.1123,29.5417-32.1284c0-24.3716-12.1324-51.5273-29.5417-51.5273Z"/>
  <path class="st0" d="M171.3022,440.5931c-17.4094,0-29.5417,27.1558-29.5417,51.5273,0,18.0161,12.9763,32.1284,29.5417,32.1284s29.5417-14.1123,29.5417-32.1284c0-24.3716-12.1324-51.5273-29.5417-51.5273Z"/>
  <path class="st0" d="M388.8187,492.1204c0-.3384-.0042-.6816-.0092-1.021-.0088-.7363-.0306-1.46-.0669-2.2104-.1706-3.8306-.64-7.7495-1.3949-11.6436l-.0343-.1797c-.1424-.7339-.3034-1.501-.4907-2.3374v-.0044l-.0602-.2715c-.8716-3.8047-1.9937-7.4712-3.3368-10.9053v-.0059l-.1706-.4307c-.2918-.729-.5874-1.4336-.8814-2.1006v-.0024l-.2085-.4692c-2.0084-4.4814-4.3505-8.3247-6.9643-11.4287l-.5477-1.0415-.374-.0034c-.4641-.5049-.9362-.9868-1.4106-1.4399l-.2779-.2656-.0188-.0093c-3.2662-3.0303-6.7446-4.8687-10.3905-5.5054v-.1782l-2.3216-.0635c-.1931-.0049-.3905-.0098-.5829-.0098-.4302,0-.8831.0186-1.3461.0547-.3111.0264-.6062.0571-.8963.0967-2.9287.3926-5.7785,1.5664-8.4766,3.4917h-.0202l-.4503.3442c-.0627.0474-.1252.0947-.1877.1426l-.9337.7153v.0361c-.2177.1836-.4333.3711-.6469.5635h-.0497l-.7108.708c-2.8752,2.7764-5.5165,6.48-7.8258,10.9849l-.4577.4141-.0022.5039c-.3128.6401-.6359,1.333-.9801,2.1025l-.2078.4644v.0122c-1.4398,3.3076-2.6688,6.8823-3.6551,10.6333l-.0782.2979v.0078c-.1313.5024-.2646,1.0381-.4077,1.6401l-.0083.0088-.145.6348c-.8949,3.9243-1.5055,7.8955-1.8153,11.8047l-.0074.0938v.0024c-.0671.8374-.1158,1.6157-.149,2.3765l-.001.0234c-.055,1.0977-.0829,2.231-.0829,3.3691,0,3.2256.4106,6.3818,1.2204,9.3809.2047.769.4422,1.543.7065,2.3027v.0068l.1418.4141c1.364,3.7759,3.3702,7.1909,5.9624,10.1499l.0387.0439.0025.0024c.544.6221,1.1281,1.2344,1.7368,1.8203,2.6223,2.5176,5.6146,4.4849,8.901,5.854.8383.3462,1.6646.644,2.4643.8892l.0518.0259.1981.0503c1.4338.4355,2.9222.7544,4.4285.9487l.0071.0024.2485.0298c.7563.0918,1.5117.1519,2.245.1797.2737.0166.5935.0225.9203.0229.0896.0039.1747.0044.268.0044.2199,0,.4397-.0044.66-.0093,2.0909-.0454,4.16-.3223,6.1566-.8223l.1299-.0317c.638-.1587,1.2823-.3452,1.9152-.5547,3.2554-1.0791,6.2792-2.7368,8.988-4.9277.6248-.5049,1.249-1.0562,1.8551-1.6382,2.4455-2.3428,4.4817-5.083,6.0659-8.1606h.8911l.0036-1.8765c.2176-.4976.4216-.998.6098-1.4961l1.2678-1.2725-.6061-.6416c1.0655-3.3965,1.6049-6.9878,1.6049-10.6973Z"/>
  <path class="st0" d="M265.2896,440.5931c-17.4094,0-29.5417,27.1558-29.5417,51.5273,0,18.0161,12.9763,32.1284,29.5417,32.1284s29.5417-14.1123,29.5417-32.1284c0-24.3716-12.1324-51.5273-29.5417-51.5273Z"/>
  <path class="st0" d="M332.302,555.3255c-5.4093-16.3638-15.1744-26.5322-25.4831-26.5322-4.2207,0-8.299,1.6328-12.1346,4.8564h-.0112l-.3177.2808c-.1227.1064-.2456.2148-.3678.3247l-.0696.0625c-.0157.0137-.0316.0278-.0473.042l-.6741.6055v.0249c-.0349.0347-.0701.0693-.1054.1045-.1386.1328-.2749.2695-.4123.4077l-.1331.1338c-.2333.2427-.4357.457-.6359.6738l-.0283.0278-.0669.0767c-3.6182,3.9497-6.7119,9.2373-9.1946,15.7158-.3996,1.042-.7769,2.1035-1.1211,3.1543-1.1823,3.5508-2.1414,7.3184-2.8475,11.1865-.492,2.6826-.8478,5.3604-1.0569,7.957-.0356.4351-.067.8691-.0938,1.2979l-.0034.0542c-.086.7134-.1519,2.0244-.1519,4.6074,0,2.5903.2657,5.147.7899,7.5981.066.3081.1323.6104.2081.9126l.0202.083c.0528.2163.1065.4346.1638.646l.0179.0698.0465.1787.0753.2656.0685.2422c.1197.4067.2259.7578.3415,1.1084,4.171,12.769,15.0878,21.0239,27.81,21.0239,12.6872,0,23.593-8.2256,27.7835-20.9551.087-.2598.1676-.5156.2389-.7524.0456-.147.0952-.3076.1407-.4731l.069-.2417c.0824-.2939.1543-.5547.217-.8154.0999-.3887.1983-.811.2876-1.2383.5329-2.4517.805-5.0327.805-7.6523,0-8.168-1.4655-17.0688-4.1269-25.062Z"/>
  <path class="st0" d="M129.681,529.659l-.0068-.0044-.3654-.1172-.0854-.0269-.0676-.0161c-.5071-.1528-1.0314-.2817-1.5623-.3843l-.2068-.0708-.1956-.0039c-.9401-.1606-1.894-.2422-2.8393-.2422-1.0838,0-2.1626.1045-3.2112.3105h-.7794l-.2167.2246c-.5266.1338-1.0482.2935-1.5575.4771-3.1383,1.124-6.135,3.1782-8.9032,6.105-1.2944,1.3643-2.5507,2.9419-3.7337,4.6885l-.0008.001-.1161.1709c-6.6964,9.96-11.0231,25.4844-11.0231,39.5503,0,17.2529,11.8775,31.0195,27.6423,32.0581.081.0093.1614.0156.2422.019.1012.0088.2055.0142.3047.0161.4289.022.8585.0352,1.2922.0352h.0602c.326,0,.6521-.0049.9777-.02h.127l.0426-.0044c.0346-.0015.069-.0034.1037-.0063,16.1332-.6978,28.2907-14.4863,28.2907-32.0977,0-20.6382-9.2469-45.7358-24.2124-50.6621Z"/>
  <path class="st0" d="M103.6628,650.4173c-4.1049-14.2808-13.1477-29.5444-26.2127-29.5444h-.0001c-2.3146,0-4.6548.5063-6.9644,1.5059h-.0162l-.4811.2212c-13.9056,6.4482-22.2152,30.4224-22.2152,49.8745,0,14.7319,8.6631,27.1836,21.5568,30.9839l.3298.0972h.016c2.4727.6953,5.0393,1.0479,7.6346,1.0479,2.6013,0,5.1714-.3525,7.645-1.0479h.0094l.329-.0967c.0704-.0205.1407-.0415.2109-.063l.3556-.1045.0081-.0083c1.3063-.415,2.5904-.9292,3.8259-1.5327,2.1201-.7329,5.8894-3.4326,8.9173-6.8716,3.6628-4.1602,8.0657-11.3145,8.2405-21.7734.1453-6.6914-1.0766-15.3892-3.1892-22.688Z"/>
  <path class="st0" d="M199.0787,656.1439v-.7017l-.2005-.2134c-.6366-2.8462-1.4027-5.5923-2.28-8.1724l-.0061.002c-.5325-2.0288-2.5302-6.5117-3.5057-8.5083v-.0127l-.2615-.5112c-.0472-.0923-.0944-.1836-.1414-.2744l-.0121-.0234h-.0003c-2.2407-4.3115-4.3745-6.9624-4.4661-7.0752-4.0277-5.2207-8.7279-8.4536-13.6855-9.4302v-.2896l-2.3828-.0044h-.0263c-.347-.0229-.6975-.0347-1.0432-.0347-10.8022,0-17.9648,10.9302-20.6938,15.9761l-.4418.4541-.005.3838c-1.2474,2.3906-2.3896,5.0059-3.3989,7.7842l-.1433.3945v.0083c-2.6908,7.5581-4.3203,16.1035-4.594,24.1128l-.0015.041v.0054c-.2642,8.123,1.3135,14.6699,4.9576,20.5293v.0137l.3862.5972c2.9018,4.4551,6.296,7.0376,6.7457,7.3687,1.9417,1.5132,4.0512,2.7627,6.2782,3.7192l.3665.3662.5362.0024c3.3126,1.2954,6.7572,1.9521,10.246,1.9521,14.5148,0,29.5282-12.0327,29.5282-32.1685,0-5.208-.6065-10.8354-1.7547-16.291Z"/>
  <path class="st0" d="M291.46,649.9071l.0157-.0161-.425-1.3433c-.0564-.1782-.1131-.356-.1706-.5327l-.0055-.0181h-.0003c-1.2538-3.8643-2.7454-7.4355-4.4412-10.6328v-.0122l-.2901-.5327c-1.5979-2.9346-3.3569-5.5171-5.2367-7.6904v-.0181l-.5102-.5586c-.0366-.0405-.0736-.0811-.1104-.1211l-.7084-.7744h-.0231c-2.4406-2.498-5.0575-4.3252-7.7967-5.4424l-.3635-.3169-.4788-.0024c-1.8914-.6602-3.8074-.9946-5.7015-.9946h-.0002c-6.9567.0005-13.7046,4.5405-19.0008,12.7827-.5199.8091-1.037,1.6724-1.5362,2.5654-1.5287,2.7241-2.9067,5.7505-4.0936,8.9907l-.1454.397v.0039c-4.0103,11.0371-6.9479,27.7998-2.3584,39.6846v.0122l.1761.437c4.3687,10.7202,13.8907,17.8936,24.85,18.7207l.0003-.0044c.6588.1133,1.3628.1133,1.9579.1133,2.6189,0,7.8085-.4116,13.1407-3.1709l.2529-.1309.0045-.0039c5.3035-2.7778,9.9049-7.542,12.7039-13.1499l.407-.4253.0034-.4189c1.6169-3.4546,2.6349-7.1938,3.0271-11.1245l.0118-.1182v-.0542l.0093-.1255c.2829-3.7114.5149-13.4956-3.1639-25.9741Z"/>
  <path class="st0" d="M384.8529,647.804v-.0039l-.1218-.3706c-3.9922-12.002-9.8095-18.8472-11.9977-20.6328l.0005-.0005c-4.0824-3.856-8.7383-5.894-13.4646-5.894h0c-2.0156.0005-4.0279.373-5.9883,1.1094h-.0137l-.4325.1724c-9.9738,4.0161-15.7184,16.4771-17.903,22.2383l-.3457.3081-.0008.0776-.0281.0278.0105.5859c-3.3404,9.1128-6.05,23.2417-4.2668,33.374.1761,4.4155,5.0701,15.3149,11.9966,20.0825,6.6252,4.981,13.6116,5.7251,17.1914,5.7251.9047,0,1.9027,0,2.7541-.1914,3.4516-.3569,6.8898-1.3843,9.9894-2.9824h.0093l.2382-.1294c.0976-.0518.1947-.1035.2916-.1562l1.2439-.6768v-.0405c5.2312-3.1821,9.3431-7.9526,11.943-13.877l.2008-.4575v-.022c5.7621-13.8457.6368-32.3086-1.3063-38.2661Z"/>
  <path class="st0" d="M547.2517,440.5931c-17.4094,0-29.5417,27.1558-29.5417,51.5273,0,18.0161,12.9763,32.1284,29.5417,32.1284s29.5417-14.1123,29.5417-32.1284c0-24.3716-12.1324-51.5273-29.5417-51.5273Z"/>
  <path class="st0" d="M547.2517,620.9476c-17.4094,0-29.5417,27.1558-29.5417,51.5273,0,18.0161,12.9763,32.1284,29.5417,32.1284s29.5417-14.1123,29.5417-32.1284c0-24.3716-12.1324-51.5273-29.5417-51.5273Z"/>
  <path class="st0" d="M450.462,99.2789c-17.4094,0-29.5417,27.1558-29.5417,51.5273,0,18.0161,12.9763,32.1284,29.5417,32.1284s29.5417-14.1123,29.5417-32.1284c0-24.3716-12.1324-51.5273-29.5417-51.5273Z"/>
  <path class="st0" d="M450.462,279.6333c-17.4094,0-29.5417,27.1558-29.5417,51.5273,0,18.0161,12.9763,32.1284,29.5417,32.1284s29.5417-14.1123,29.5417-32.1284c0-24.3716-12.1324-51.5273-29.5417-51.5273Z"/>
  <path class="st0" d="M486.6205,187.479c-17.4094,0-29.5417,27.1558-29.5417,51.5273,0,18.0161,12.9763,32.1284,29.5417,32.1284s29.5417-14.1123,29.5417-32.1284c0-24.3716-12.1324-51.5273-29.5417-51.5273Z"/>
  <path class="st0" d="M74.5125,99.2789c-17.4094,0-29.5417,27.1558-29.5417,51.5273,0,18.0161,12.9763,32.1284,29.5417,32.1284s29.5417-14.1123,29.5417-32.1284c0-24.3716-12.1324-51.5273-29.5417-51.5273Z"/>
  <path class="st0" d="M168.4998,99.2789c-17.4094,0-29.5417,27.1558-29.5417,51.5273,0,18.0161,12.9763,32.1284,29.5417,32.1284s29.5417-14.1123,29.5417-32.1284c0-24.3716-12.1324-51.5273-29.5417-51.5273Z"/>
  <path class="st0" d="M386.0164,150.8062c0-.3384-.0042-.6816-.0092-1.021-.0088-.7363-.0306-1.46-.0669-2.2104-.1706-3.8306-.64-7.7495-1.3949-11.6436l-.0343-.1797c-.1424-.7339-.3034-1.501-.4907-2.3374v-.0044l-.0602-.2715c-.8716-3.8047-1.9937-7.4712-3.3368-10.9053v-.0059l-.1706-.4307c-.2918-.729-.5874-1.4336-.8814-2.1006v-.0024l-.2085-.4692c-2.0084-4.4814-4.3505-8.3247-6.9643-11.4287l-.5477-1.0415-.374-.0034c-.4641-.5049-.9362-.9868-1.4106-1.4399l-.2779-.2656-.0188-.0093c-3.2662-3.0303-6.7446-4.8687-10.3905-5.5054v-.1782l-2.3216-.0635c-.1931-.0049-.3905-.0098-.5829-.0098-.4302,0-.8831.0186-1.3461.0547-.3111.0264-.6062.0571-.8963.0967-2.9287.3926-5.7785,1.5664-8.4766,3.4917h-.0202l-.4503.3442c-.0627.0474-.1252.0947-.1877.1426l-.9337.7153v.0361c-.2177.1836-.4333.3711-.6469.5635h-.0497l-.7108.708c-2.8752,2.7764-5.5165,6.48-7.8258,10.9849l-.4577.4141-.0022.5039c-.3128.6401-.6359,1.333-.9801,2.1025l-.2078.4644v.0122c-1.4398,3.3076-2.6688,6.8823-3.6551,10.6333l-.0782.2979v.0078c-.1313.5024-.2646,1.0381-.4077,1.6401l-.0083.0088-.145.6348c-.8949,3.9243-1.5055,7.8955-1.8153,11.8047l-.0074.0938v.0024c-.0671.8374-.1158,1.6157-.149,2.3765l-.001.0234c-.055,1.0977-.0829,2.231-.0829,3.3691,0,3.2256.4106,6.3818,1.2204,9.3809.2047.769.4422,1.543.7065,2.3027v.0068l.1418.4141c1.364,3.7759,3.3702,7.1909,5.9624,10.1499l.0387.0439.0025.0024c.544.6221,1.1281,1.2344,1.7368,1.8203,2.6223,2.5176,5.6146,4.4849,8.901,5.854.8383.3462,1.6646.644,2.4643.8892l.0518.0259.1981.0503c1.4338.4355,2.9222.7544,4.4285.9487l.0071.0024.2485.0298c.7563.0918,1.5117.1519,2.245.1797.2737.0166.5935.0225.9203.0229.0896.0039.1747.0044.268.0044.2199,0,.4397-.0044.66-.0093,2.0909-.0454,4.16-.3223,6.1566-.8223l.1299-.0317c.638-.1587,1.2823-.3452,1.9152-.5547,3.2554-1.0791,6.2792-2.7368,8.988-4.9277.6248-.5049,1.249-1.0562,1.8551-1.6382,2.4455-2.3428,4.4817-5.083,6.0659-8.1606h.8911l.0036-1.8765c.2176-.4976.4216-.998.6098-1.4961l1.2678-1.2725-.6061-.6416c1.0655-3.3965,1.6049-6.9878,1.6049-10.6973Z"/>
  <path class="st0" d="M262.4872,99.2789c-17.4094,0-29.5417,27.1558-29.5417,51.5273,0,18.0161,12.9763,32.1284,29.5417,32.1284s29.5417-14.1123,29.5417-32.1284c0-24.3716-12.1324-51.5273-29.5417-51.5273Z"/>
  <path class="st0" d="M329.4997,214.0113c-5.4093-16.3638-15.1744-26.5322-25.4831-26.5322-4.2207,0-8.299,1.6328-12.1346,4.8564h-.0112l-.3177.2808c-.1227.1064-.2456.2148-.3678.3247l-.0696.0625c-.0157.0137-.0316.0278-.0473.042l-.6741.6055v.0249c-.0349.0347-.0701.0693-.1054.1045-.1386.1328-.2749.2695-.4123.4077l-.1331.1338c-.2333.2427-.4357.457-.6359.6738l-.0283.0278-.0669.0767c-3.6182,3.9497-6.7119,9.2373-9.1946,15.7158-.3996,1.042-.7769,2.1035-1.1211,3.1543-1.1823,3.5508-2.1414,7.3184-2.8475,11.1865-.492,2.6826-.8478,5.3604-1.0569,7.957-.0356.4351-.067.8691-.0938,1.2979l-.0034.0542c-.086.7134-.1519,2.0244-.1519,4.6074,0,2.5903.2657,5.147.7899,7.5981.066.3081.1323.6104.2081.9126l.0202.083c.0528.2163.1065.4346.1638.646l.0179.0698.0465.1787.0753.2656.0685.2422c.1197.4067.2259.7578.3415,1.1084,4.171,12.769,15.0878,21.0239,27.81,21.0239,12.6872,0,23.593-8.2256,27.7835-20.9551.087-.2598.1676-.5156.2389-.7524.0456-.147.0952-.3076.1407-.4731l.069-.2417c.0824-.2939.1543-.5547.217-.8154.0999-.3887.1983-.811.2876-1.2383.5329-2.4517.805-5.0327.805-7.6523,0-8.168-1.4655-17.0688-4.1269-25.062Z"/>
  <path class="st0" d="M126.8787,188.3448l-.0068-.0044-.3654-.1172-.0854-.0269-.0676-.0161c-.5071-.1528-1.0314-.2817-1.5623-.3843l-.2068-.0708-.1956-.0039c-.9401-.1606-1.894-.2422-2.8393-.2422-1.0838,0-2.1626.1045-3.2112.3105h-.7794l-.2167.2246c-.5266.1338-1.0482.2935-1.5575.4771-3.1383,1.124-6.135,3.1782-8.9032,6.105-1.2944,1.3643-2.5507,2.9419-3.7337,4.6885l-.0008.001-.1161.1709c-6.6964,9.96-11.0231,25.4844-11.0231,39.5503,0,17.2529,11.8775,31.0195,27.6423,32.0581.081.0093.1614.0156.2422.019.1012.0088.2055.0142.3047.0161.4289.022.8585.0352,1.2922.0352h.0602c.326,0,.6521-.0049.9777-.02h.127l.0426-.0044c.0346-.0015.069-.0034.1037-.0063,16.1332-.6978,28.2907-14.4863,28.2907-32.0977,0-20.6382-9.2469-45.7358-24.2124-50.6621Z"/>
  <path class="st0" d="M100.8605,309.1031c-4.1049-14.2808-13.1477-29.5444-26.2127-29.5444h-.0001c-2.3146,0-4.6548.5063-6.9644,1.5059h-.0162l-.4811.2212c-13.9056,6.4482-22.2152,30.4224-22.2152,49.8745,0,14.7319,8.6631,27.1836,21.5568,30.9839l.3298.0972h.016c2.4727.6953,5.0393,1.0479,7.6346,1.0479,2.6013,0,5.1714-.3525,7.645-1.0479h.0094l.329-.0967c.0704-.0205.1407-.0415.2109-.063l.3556-.1045.0081-.0083c1.3063-.415,2.5904-.9292,3.8259-1.5327,2.1201-.7329,5.8894-3.4326,8.9173-6.8716,3.6628-4.1602,8.0657-11.3145,8.2405-21.7734.1453-6.6914-1.0766-15.3892-3.1892-22.688Z"/>
  <path class="st0" d="M196.2764,314.8296v-.7017l-.2005-.2134c-.6366-2.8462-1.4027-5.5923-2.28-8.1724l-.0061.002c-.5325-2.0288-2.5302-6.5117-3.5057-8.5083v-.0127l-.2615-.5112c-.0472-.0923-.0944-.1836-.1414-.2744l-.0121-.0234h-.0003c-2.2407-4.3115-4.3745-6.9624-4.4661-7.0752-4.0277-5.2207-8.7279-8.4536-13.6855-9.4302v-.2896l-2.3828-.0044h-.0263c-.347-.0229-.6975-.0347-1.0432-.0347-10.8022,0-17.9648,10.9302-20.6938,15.9761l-.4418.4541-.005.3838c-1.2474,2.3906-2.3896,5.0059-3.3989,7.7842l-.1433.3945v.0083c-2.6908,7.5581-4.3203,16.1035-4.594,24.1128l-.0015.041v.0054c-.2642,8.123,1.3135,14.6699,4.9576,20.5293v.0137l.3862.5972c2.9018,4.4551,6.296,7.0376,6.7457,7.3687,1.9417,1.5132,4.0512,2.7627,6.2782,3.7192l.3665.3662.5362.0024c3.3126,1.2954,6.7572,1.9521,10.246,1.9521,14.5148,0,29.5282-12.0327,29.5282-32.1685,0-5.208-.6065-10.8354-1.7547-16.291Z"/>
  <path class="st0" d="M288.6577,308.5928l.0157-.0161-.425-1.3433c-.0564-.1782-.1131-.356-.1706-.5327l-.0055-.0181h-.0003c-1.2538-3.8643-2.7454-7.4355-4.4412-10.6328v-.0122l-.2901-.5327c-1.5979-2.9346-3.3569-5.5171-5.2367-7.6904v-.0181l-.5102-.5586c-.0366-.0405-.0736-.0811-.1104-.1211l-.7084-.7744h-.0231c-2.4406-2.498-5.0575-4.3252-7.7967-5.4424l-.3635-.3169-.4788-.0024c-1.8914-.6602-3.8074-.9946-5.7015-.9946h-.0002c-6.9567.0005-13.7046,4.5405-19.0008,12.7827-.5199.8091-1.037,1.6724-1.5362,2.5654-1.5287,2.7241-2.9067,5.7505-4.0936,8.9907l-.1454.397v.0039c-4.0103,11.0371-6.9479,27.7998-2.3584,39.6846v.0122l.1761.437c4.3687,10.7202,13.8907,17.8936,24.85,18.7207l.0003-.0044c.6588.1133,1.3628.1133,1.9579.1133,2.6189,0,7.8085-.4116,13.1407-3.1709l.2529-.1309.0045-.0039c5.3035-2.7778,9.9049-7.542,12.7039-13.1499l.407-.4253.0034-.4189c1.6169-3.4546,2.6349-7.1938,3.0271-11.1245l.0118-.1182v-.0542l.0093-.1255c.2829-3.7114.5149-13.4956-3.1639-25.9741Z"/>
  <path class="st0" d="M382.0506,306.4898v-.0039l-.1218-.3706c-3.9922-12.002-9.8095-18.8472-11.9977-20.6328l.0005-.0005c-4.0824-3.856-8.7383-5.894-13.4646-5.894h0c-2.0156.0005-4.0279.373-5.9883,1.1094h-.0137l-.4325.1724c-9.9738,4.0161-15.7184,16.4771-17.903,22.2383l-.3457.3081-.0008.0776-.0281.0278.0105.5859c-3.3404,9.1128-6.05,23.2417-4.2668,33.374.1761,4.4155,5.0701,15.3149,11.9966,20.0825,6.6252,4.981,13.6116,5.7251,17.1914,5.7251.9047,0,1.9027,0,2.7541-.1914,3.4516-.3569,6.8898-1.3843,9.9894-2.9824h.0093l.2382-.1294c.0976-.0518.1947-.1035.2916-.1562l1.2439-.6768v-.0405c5.2312-3.1821,9.3431-7.9526,11.943-13.877l.2008-.4575v-.022c5.7621-13.8457.6368-32.3086-1.3063-38.2661Z"/>
  <path class="st0" d="M236.9024,213.5805c-5.4093-16.3638-15.1744-26.5322-25.4831-26.5322-4.2207,0-8.299,1.6328-12.1346,4.8564h-.0112l-.3177.2808c-.1227.1064-.2456.2148-.3678.3247l-.0696.0625c-.0157.0137-.0316.0278-.0473.042l-.6741.6055v.0249c-.0349.0347-.0701.0693-.1054.1045-.1386.1328-.2749.2695-.4123.4077l-.1331.1338c-.2333.2427-.4357.457-.6359.6738l-.0283.0278-.0669.0767c-3.6182,3.9497-6.7119,9.2373-9.1946,15.7158-.3996,1.042-.7769,2.1035-1.1211,3.1543-1.1823,3.5508-2.1414,7.3184-2.8475,11.1865-.492,2.6826-.8478,5.3604-1.0569,7.957-.0356.4351-.067.8691-.0938,1.2979l-.0034.0542c-.086.7134-.1519,2.0244-.1519,4.6074,0,2.5903.2657,5.147.7899,7.5981.066.3081.1323.6104.2081.9126l.0202.083c.0528.2163.1065.4346.1638.646l.0179.0698.0465.1787.0753.2656.0685.2422c.1197.4067.2259.7578.3415,1.1084,4.171,12.769,15.0878,21.0239,27.81,21.0239,12.6872,0,23.593-8.2256,27.7835-20.9551.087-.2598.1676-.5156.2389-.7524.0456-.147.0952-.3076.1407-.4731l.069-.2417c.0824-.2939.1543-.5547.217-.8154.0999-.3887.1983-.811.2876-1.2383.5329-2.4517.805-5.0327.805-7.6523,0-8.168-1.4655-17.0688-4.1269-25.062Z"/>
  <path class="st0" d="M544.4494,99.2789c-17.4094,0-29.5417,27.1558-29.5417,51.5273,0,18.0161,12.9763,32.1284,29.5417,32.1284s29.5417-14.1123,29.5417-32.1284c0-24.3716-12.1324-51.5273-29.5417-51.5273Z"/>
  <path class="st0" d="M544.4494,279.6333c-17.4094,0-29.5417,27.1558-29.5417,51.5273,0,18.0161,12.9763,32.1284,29.5417,32.1284s29.5417-14.1123,29.5417-32.1284c0-24.3716-12.1324-51.5273-29.5417-51.5273Z"/>
  <path class="st0" d="M419.4117,213.0906c-5.4093-16.3638-15.1744-26.5322-25.4831-26.5322-4.2207,0-8.299,1.6328-12.1346,4.8564h-.0112l-.3177.2808c-.1227.1064-.2456.2148-.3678.3247l-.0696.0625c-.0157.0137-.0316.0278-.0473.042l-.6741.6055v.0249c-.0349.0347-.0701.0693-.1054.1045-.1386.1328-.2749.2695-.4123.4077l-.1331.1338c-.2333.2427-.4357.457-.6359.6738l-.0283.0278-.0669.0767c-3.6182,3.9497-6.7119,9.2373-9.1946,15.7158-.3996,1.042-.7769,2.1035-1.1211,3.1543-1.1823,3.5508-2.1414,7.3184-2.8475,11.1865-.492,2.6826-.8478,5.3604-1.0569,7.957-.0356.4351-.067.8691-.0938,1.2979l-.0034.0542c-.086.7134-.1519,2.0244-.1519,4.6074,0,2.5903.2657,5.147.7899,7.5981.066.3081.1323.6104.2081.9126l.0202.083c.0528.2163.1065.4346.1638.646l.0179.0698.0465.1787.0753.2656.0685.2422c.1197.4067.2259.7578.3415,1.1084,4.171,12.769,15.0878,21.0239,27.81,21.0239,12.6872,0,23.593-8.2256,27.7835-20.9551.087-.2598.1676-.5156.2389-.7524.0456-.147.0952-.3076.1407-.4731l.069-.2417c.0824-.2939.1543-.5547.217-.8154.0999-.3887.1983-.811.2876-1.2383.5329-2.4517.805-5.0327.805-7.6523,0-8.168-1.4655-17.0688-4.1269-25.062Z"/>
  <path class="st0" d="M238.7897,552.2718c-5.4093-16.3638-15.1744-26.5322-25.4831-26.5322-4.2207,0-8.299,1.6328-12.1346,4.8564h-.0112l-.3177.2808c-.1227.1064-.2456.2148-.3678.3247l-.0696.0625c-.0157.0137-.0316.0278-.0473.042l-.6741.6055v.0249c-.0349.0347-.0701.0693-.1054.1045-.1386.1328-.2749.2695-.4123.4077l-.1331.1338c-.2333.2427-.4357.457-.6359.6738l-.0283.0278-.0669.0767c-3.6182,3.9497-6.7119,9.2373-9.1946,15.7158-.3996,1.042-.7769,2.1035-1.1211,3.1543-1.1823,3.5508-2.1414,7.3184-2.8475,11.1865-.492,2.6826-.8478,5.3604-1.0569,7.957-.0356.4351-.067.8691-.0938,1.2979l-.0034.0542c-.086.7134-.1519,2.0244-.1519,4.6074,0,2.5903.2657,5.147.7899,7.5981.066.3081.1323.6104.2081.9126l.0202.083c.0528.2163.1065.4346.1638.646l.0179.0698.0465.1787.0753.2656.0685.2422c.1197.4067.2259.7578.3415,1.1084,4.171,12.769,15.0878,21.0239,27.81,21.0239,12.6872,0,23.593-8.2256,27.7835-20.9551.087-.2598.1676-.5156.2389-.7524.0456-.147.0952-.3076.1407-.4731l.069-.2417c.0824-.2939.1543-.5547.217-.8154.0999-.3887.1983-.811.2876-1.2383.5329-2.4517.805-5.0327.805-7.6523,0-8.168-1.4655-17.0688-4.1269-25.062Z"/>
  <path class="st0" d="M423.4473,557.9478c-5.4093-16.3638-15.1744-26.5322-25.4831-26.5322-4.2207,0-8.299,1.6328-12.1346,4.8564h-.0112l-.3177.2808c-.1227.1064-.2456.2148-.3678.3247l-.0696.0625c-.0157.0137-.0316.0278-.0473.042l-.6741.6055v.0249c-.0349.0347-.0701.0693-.1054.1045-.1386.1328-.2749.2695-.4123.4077l-.1331.1338c-.2333.2427-.4357.457-.6359.6738l-.0283.0278-.0669.0767c-3.6182,3.9497-6.7119,9.2373-9.1946,15.7158-.3996,1.042-.7769,2.1035-1.1211,3.1543-1.1823,3.5508-2.1414,7.3184-2.8475,11.1865-.492,2.6826-.8478,5.3604-1.0569,7.957-.0356.4351-.067.8691-.0938,1.2979l-.0034.0542c-.086.7134-.1519,2.0244-.1519,4.6074,0,2.5903.2657,5.147.7899,7.5981.066.3081.1323.6104.2081.9126l.0202.083c.0528.2163.1065.4346.1638.646l.0179.0698.0465.1787.0753.2656.0685.2422c.1197.4067.2259.7578.3415,1.1084,4.171,12.769,15.0878,21.0239,27.81,21.0239,12.6872,0,23.593-8.2256,27.7835-20.9551.087-.2598.1676-.5156.2389-.7524.0456-.147.0952-.3076.1407-.4731l.069-.2417c.0824-.2939.1543-.5547.217-.8154.0999-.3887.1983-.811.2876-1.2383.5329-2.4517.805-5.0327.805-7.6523,0-8.168-1.4655-17.0688-4.1269-25.062Z"/>
  <rect class="st0" width="612" height="792"/>
</svg>