<?xml version="1.0" encoding="UTF-8"?>
<svg id="Layer_1" xmlns="http://www.w3.org/2000/svg" version="1.1" viewBox="0 0 612 792">
  <!-- Generator: Adobe Illustrator 29.1.0, SVG Export Plug-In . SVG Version: 2.1.0 Build 142)  -->
  <defs>
    <style>
      .st0 {
        fill: #fff;
      }
    </style>
  </defs>
  <g id="iumr4Y.tif">
    <g>
      <path class="st0" d="M229.69,269.82v7.49c-5.24-.46-9.78-1.32-13.74-5.01-9.27-8.63-8.07-30.76.24-39.92-20.23,3.75-31.05,27.58-19.2,44.88,8.81,12.87,25.17,13.79,39.31,11.38,3.51-.6,7.01-1.6,10.31-2.93.61-4.95-.95-10.97,1.14-15.59.81-1.79,2.81-3.08,2.99-5.04.2-2.26-.92-4.42-3.36-4.58-4.01-.27-9.59.45-13.96.36-2.65-.05-6.1-1.92-7.47.98-1.01,2.13-.85,5.36.98,7.01,1.02.92,2.67.87,2.77.98Z"/>
      <path class="st0" d="M233.19,254.34c2.74.19,7.27,3.05,9.22-.03.78-1.23,4.12-15.82,4.24-17.78.25-3.85-4.59-2.36-7.16-2.73-3.93-.57-6.84-1.77-11.05-1.43-6.52.54-12.52,5.55-10.75,12.47,4.88-2.36,10.31-1.43,15.49-1v10.48Z"/>
      <path class="st0" d="M331.09,245.46c-7.29.71-8.75,11.69-2.56,15.09l-.62,5.78c16.51,9.49,18.83-22.39,3.18-20.86Z"/>
      <path class="st0" d="M298.13,279.87c-1.68-.39-3.65-1.2-4.21-3.03-1.07-3.52.13-11.54-.21-15.77-1.02-13.02-14.17-15.67-25.05-13.49-5.52,1.11-15.18,5.85-11.86,12.89,2.03,4.3,8.51,3.5,12.34,2.82.59-1.89-.19-5,2.02-5.72,2.48-.81,5.66-.5,6.05,2.49.97,7.45-2.98,24.14,4.71,28.25,6.92,3.7,16.77.15,16.2-8.44Z"/>
      <path class="st0" d="M302.94,288.79h20.75c2.35-5.61-2.46-8.49-2.99-13.74-.8-7.9,1.05-17.76-.05-25.43-.61-4.22-6.74-1.93-9.71-1.78-5.73.29-12.37-2.25-10.12,6.62.59,2.32,3.15,2.57,3.63,3.36.45.72.41,14.8.19,16.68-.52,4.5-5.27,8.58-3.69,12.28.1.24,1.85,1.97,1.99,2Z"/>
      <path class="st0" d="M356.7,281.3c4.5-4.07,7.21-11.75,7.49-17.73.13-2.74-.83-5.55-.46-7.95.24-1.53,1.71-2.95,1.87-4.14.21-1.55-1.06-3.82-2.67-4.12-5.55-1.03-14.01.76-19.9-.03-1.96,2.19-1.83,6.59.39,8.52.93.81,2.22.86,3.29,1.71,7.33,5.78,10.1,14.63,9.98,23.74Z"/>
      <path class="st0" d="M343.19,306.26c14.09,4.52,22.5.51,28.93-12.3,5.85-11.64,9.9-24.84,15.97-36.48,1.89-2.74,5.23-2.91,4.58-7.35-.33-2.27-1.68-2.63-3.7-2.81-3.38-.3-11.29-.41-14.55,0-2.47.3-2.5,3.73-2.19,5.74s2.24,3.09,1.89,4.9l-15.67,35.33-2.51,3.48c-1.48-.94-.12-3.39-1.24-4.24-1.18-.9-7.4-1.48-8.79-.26-2,1.75-1.55,11.14-2.73,14Z"/>
      <path class="st0" d="M274.08,278.91c-.79-.53-3.07,0-3.4-2.38-.48-3.38,3.4-3.29,3.54-6.47.3-6.75-7.69-3.63-11.52-1.98-4.56,1.96-9.13,6.09-9.04,11.47.19,11.84,20.23,14.08,21.05,2.99.06-.8-.03-3.24-.62-3.63Z"/>
      <path class="st0" d="M243.06,446.18c-8.63,1.47-8.66,15.03,2.89,14.39,6.48-.36,10.55-7.26,5.76-12.28-2.33-2.44-5.43-2.65-8.65-2.1Z"/>
      <path class="st0" d="M347.83,492.35c-.67-.53-1.54-2.63-1.65-3.59-.52-4.31-.46-28.04.77-31.21.74-1.91,2.78-3.09,2.04-5.51-1.31-4.33-8.61-1.77-12.05-1.49-5.34.44-9.87-2.19-8.77,5.77.44,3.15,3.44,3.62,3.54,4.05.69,10.76-.99,22.78-.04,33.39,1.08,12.13,18.75,10.73,19.02-.77-.97-.02-2.06,0-2.86-.65Z"/>
      <path class="st0" d="M207.69,501.48v-38.69c0-2.79,7.75-8.55,2.19-11.68-3.14-1.76-17.36,0-21.71-.33-2.16,4.18-1.25,8.25,3.54,9.58-1,8.86,1.57,21.27-.77,29.63-.96,3.44-5.36,5.91-3.2,9.68.29.5,1.8,1.8,2.19,1.8h17.75Z"/>
      <path class="st0" d="M255.63,501.42c2.69-4.8-.81-6.02-2.18-9.42-1.27-3.15-1.21-18.25,0-21.46.8-2.11,4.08-6.01.24-7.74-3.11-1.39-14.28,2.34-18.42,1.31-1.26,2.1-1.31,6.07.58,7.77.81.73,2.05.3,2.35,1.9.58,3.03.15,14.67-.9,17.58-.86,2.37-6.01,7.7-1.48,9.76,1.05.48,18.98.84,19.81.3Z"/>
      <path class="st0" d="M262.61,473.6c.76,1.2-.13,15.94-.89,18.18-.85,2.53-5.66,7.3-.91,9.33,1.28.55,17.08.68,17.89.15,2.79-3.97-1.11-7.21-1.52-11-.53-4.9,1.07-22.05-.56-24.91-.21-.37-.57-.89-.94-1.06-2.64-1.25-12.37,1.15-15.93.32-1.2,2.37-1.54,5.56.41,7.69.72.79,2.34,1.15,2.44,1.31Z"/>
      <path class="st0" d="M302.61,501.39c3.41-4.84-1.78-7.38-2.37-11.69-.87-6.34,1.29-14.04-1.29-20.18-4.25-10.09-20.79-5.73-18.53,5.53.61.85,3.22.14,4.17,1.08,2,1.98,1.08,12.46.37,15.36-.63,2.6-3.85,8.04-.12,9.6,1.2.5,17.03.76,17.79.29Z"/>
      <path class="st0" d="M327.57,472.9c1.47-1.52.76-8.32-2.14-8.85-20.06-3.69-24.85,27.61-10.58,36.03,4.1,2.42,11.77,3.46,13.51-2.17,1.83-5.89-2.27-4.51-4.59-8.24s-2.53-12.38.95-15.36c.82-.7,2.35-.91,2.84-1.41Z"/>
      <path class="st0" d="M366.65,478.47c-1.02-6.5,7-7.93,7.56-1.73.91,9.93-4.61,27.45,11.68,25.19,4.1-.57,6.88-4.21,7.16-8.22-.14-.74-2.34-.93-3.14-1.69-3.72-3.52,2.31-18.16-4.99-24.48-6.25-5.41-25.73-5.25-29.19,3.28-3.06,7.56,5.22,9.28,10.91,7.65Z"/>
      <path class="st0" d="M209.2,501.47c3.58.09,7.18-.1,10.77-.02,4.35.1,9.07,2.64,10.6-3.35.57-2.24,1.98-12.98,1.61-14.84-.59-3-6.55-2.93-8.97-2.73-1.38,5.78-2.6,12.38-7.29,16.44l-6.73,4.5Z"/>
      <path class="st0" d="M368.81,491.88c-2.74-2.66,2.42-4.85,2.44-7.62.04-5.34-4.91-3.42-8.32-2.27s-7.4,3.33-9.02,6.48c-6.98,13.53,18.61,20.55,17.71,4.84-.39-1.12-2.19-.82-2.82-1.43Z"/>
      <path d="M229.69,269.82c-.1-.11-1.75-.07-2.77-.98-1.83-1.64-1.99-4.87-.98-7.01,1.37-2.89,4.82-1.03,7.47-.98,4.37.09,9.95-.63,13.96-.36,2.43.16,3.56,2.33,3.36,4.58-.18,1.96-2.18,3.26-2.99,5.04-2.09,4.62-.53,10.64-1.14,15.59-3.3,1.33-6.8,2.34-10.31,2.93-14.14,2.4-30.5,1.49-39.31-11.38-11.84-17.3-1.03-41.13,19.2-44.88-8.3,9.16-9.51,31.29-.24,39.92,3.96,3.68,8.5,4.55,13.74,5.01v-7.49Z"/>
      <path d="M343.19,306.26c1.17-2.86.73-12.25,2.73-14,1.39-1.22,7.61-.63,8.79.26s-.24,3.31,1.24,4.24l2.51-3.48,15.67-35.33c.35-1.8-1.6-2.98-1.89-4.9-.31-2.01-.29-5.43,2.19-5.74,3.26-.4,11.18-.3,14.55,0,2.02.18,3.37.54,3.7,2.81.65,4.44-2.69,4.61-4.58,7.35-6.07,11.63-10.12,24.83-15.97,36.48-6.43,12.81-14.84,16.82-28.93,12.3Z"/>
      <path d="M207.69,501.48h-17.75c-.39,0-1.91-1.31-2.19-1.8-2.17-3.77,2.24-6.24,3.2-9.68,2.34-8.37-.23-20.78.77-29.63-4.79-1.34-5.71-5.4-3.54-9.58,4.35.32,18.57-1.44,21.71.33,5.56,3.12-2.19,8.89-2.19,11.68v38.69Z"/>
      <path d="M298.13,279.87c.57,8.59-9.28,12.14-16.2,8.44-7.68-4.11-3.74-20.8-4.71-28.25-.39-3-3.57-3.31-6.05-2.49-2.21.72-1.43,3.84-2.02,5.72-3.83.69-10.31,1.49-12.34-2.82-3.32-7.05,6.34-11.79,11.86-12.89,10.88-2.18,24.02.47,25.05,13.49.33,4.23-.87,12.25.21,15.77.56,1.83,2.53,2.64,4.21,3.03Z"/>
      <path d="M347.83,492.35c.8.64,1.9.63,2.86.65-.27,11.5-17.94,12.9-19.02.77-.95-10.61.73-22.63.04-33.39-.1-.43-3.11-.9-3.54-4.05-1.1-7.97,3.42-5.33,8.77-5.77,3.44-.29,10.73-2.84,12.05,1.49.74,2.42-1.3,3.6-2.04,5.51-1.23,3.17-1.29,26.91-.77,31.21.12.95.98,3.05,1.65,3.59Z"/>
      <path d="M302.94,288.79c-.14-.04-1.89-1.76-1.99-2-1.58-3.7,3.16-7.78,3.69-12.28.22-1.88.26-15.96-.19-16.68-.49-.79-3.04-1.04-3.63-3.36-2.25-8.87,4.39-6.33,10.12-6.62,2.96-.15,9.1-2.44,9.71,1.78,1.1,7.67-.75,17.53.05,25.43.53,5.25,5.35,8.13,2.99,13.74h-20.75Z"/>
      <path d="M366.65,478.47c-5.69,1.64-13.97-.09-10.91-7.65,3.45-8.54,22.94-8.69,29.19-3.28,7.3,6.31,1.26,20.96,4.99,24.48.8.76,3,.95,3.14,1.69-.28,4.01-3.05,7.66-7.16,8.22-16.3,2.25-10.77-15.26-11.68-25.19-.57-6.2-8.58-4.77-7.56,1.73Z"/>
      <path d="M255.63,501.42c-.83.54-18.76.17-19.81-.3-4.52-2.06.63-7.39,1.48-9.76,1.05-2.9,1.48-14.55.9-17.58-.3-1.59-1.55-1.17-2.35-1.9-1.89-1.7-1.84-5.67-.58-7.77,4.14,1.04,15.31-2.7,18.42-1.31,3.85,1.72.56,5.62-.24,7.74-1.21,3.21-1.28,18.31,0,21.46,1.37,3.4,4.87,4.63,2.18,9.42Z"/>
      <path d="M302.61,501.39c-.76.47-16.59.21-17.79-.29-3.73-1.56-.51-7.01.12-9.6.71-2.91,1.63-13.38-.37-15.36-.95-.94-3.55-.23-4.17-1.08-2.26-11.25,14.29-15.62,18.53-5.53,2.58,6.14.42,13.84,1.29,20.18.59,4.31,5.78,6.85,2.37,11.69Z"/>
      <path d="M262.61,473.6c-.1-.16-1.72-.52-2.44-1.31-1.95-2.13-1.61-5.32-.41-7.69,3.56.83,13.29-1.57,15.93-.32.37.17.73.69.94,1.06,1.63,2.86.03,20.01.56,24.91.41,3.79,4.32,7.03,1.52,11-.81.54-16.61.4-17.89-.15-4.75-2.03.05-6.79.91-9.33.76-2.24,1.65-16.98.89-18.18Z"/>
      <path d="M327.57,472.9c-.49.5-2.02.71-2.84,1.41-3.48,2.98-3.24,11.66-.95,15.36s6.42,2.34,4.59,8.24c-1.75,5.63-9.42,4.59-13.51,2.17-14.27-8.42-9.48-39.72,10.58-36.03,2.9.53,3.61,7.33,2.14,8.85Z"/>
      <path d="M356.7,281.3c.12-9.1-2.65-17.96-9.98-23.74-1.07-.84-2.36-.9-3.29-1.71-2.22-1.93-2.36-6.33-.39-8.52,5.89.79,14.35-1,19.9.03,1.6.3,2.88,2.57,2.67,4.12-.16,1.19-1.64,2.61-1.87,4.14-.37,2.4.58,5.22.46,7.95-.27,5.97-2.99,13.66-7.49,17.73Z"/>
      <path d="M233.19,254.34v-10.48c-5.19-.44-10.61-1.36-15.49,1-1.77-6.92,4.24-11.94,10.75-12.47,4.21-.35,7.12.86,11.05,1.43,2.57.37,7.41-1.12,7.16,2.73-.13,1.96-3.46,16.55-4.24,17.78-1.96,3.08-6.48.22-9.22.03Z"/>
      <path d="M274.08,278.91c.6.4.68,2.83.62,3.63-.82,11.09-20.87,8.85-21.05-2.99-.09-5.38,4.48-9.51,9.04-11.47,3.83-1.65,11.83-4.77,11.52,1.98-.14,3.18-4.02,3.09-3.54,6.47.33,2.37,2.61,1.85,3.4,2.38Z"/>
      <path d="M368.81,491.88c.63.61,2.43.31,2.82,1.43.9,15.71-24.69,8.69-17.71-4.84,1.62-3.14,5.77-5.37,9.02-6.48,3.4-1.15,8.36-3.08,8.32,2.27-.02,2.77-5.18,4.96-2.44,7.62Z"/>
      <path d="M331.09,245.46c15.65-1.53,13.32,30.36-3.18,20.86l.62-5.78c-6.19-3.39-4.73-14.37,2.56-15.09Z"/>
      <path d="M209.2,501.47l6.73-4.5c4.68-4.06,5.91-10.66,7.29-16.44,2.41-.2,8.37-.27,8.97,2.73.37,1.87-1.04,12.6-1.61,14.84-1.53,5.99-6.25,3.45-10.6,3.35-3.58-.08-7.19.11-10.77.02Z"/>
      <path d="M243.06,446.18c3.22-.55,6.32-.34,8.65,2.1,4.79,5.02.72,11.92-5.76,12.28-11.55.64-11.52-12.92-2.89-14.39Z"/>
    </g>
  </g>
</svg>