<?xml version="1.0" encoding="UTF-8"?>
<svg id="Layer_1" xmlns="http://www.w3.org/2000/svg" version="1.1" viewBox="0 0 612 792">
  <!-- Generator: Adobe Illustrator 29.1.0, SVG Export Plug-In . SVG Version: 2.1.0 Build 142)  -->
  <defs>
    <style>
      .st0 {
        fill: none;
        stroke: #000;
        stroke-miterlimit: 10;
      }
    </style>
  </defs>
  <path class="st0" d="M65.08,2.76l210.88-.12c10.05.86,18.29,7.49,20.93,17.22.74,37.27.74,74.82,0,112.09-2.44,8.82-9.61,15.63-18.8,16.87H63.55c-10.56-1.62-18.41-9.96-19.26-20.65-.12-1.52.45-5.63-.51-6.56-.58-.56-1.82-.27-2.68-.5-10.81-2.94-17.68-11.1-17.82-22.45-1.9-.76-3.83-.92-5.83-1.59-18.04-6.07-20.27-31.45-3.66-40.69,3.09-1.72,6.09-2.4,9.5-3.22-.19-9.19,5.68-18.14,14.3-21.37,1.13-.42,5.95-1.37,6.18-1.59.94-.9.4-5.34.52-6.89.89-11.03,9.84-19.56,20.77-20.55ZM23.71,67.71c-6.93,1.06-9.42,10.46-3.62,14.74,7.11,5.25,16.58-2.95,11.91-10.84-1.55-2.63-5.29-4.36-8.29-3.9Z"/>
</svg>