<?xml version="1.0" encoding="UTF-8"?>
<svg id="Layer_1" xmlns="http://www.w3.org/2000/svg" version="1.1" viewBox="0 0 612 792">
  <!-- Generator: Adobe Illustrator 29.1.0, SVG Export Plug-In . SVG Version: 2.1.0 Build 142)  -->
  <path d="M83.82,17.26c-4.88-1.14-9.93-1.73-14.93-2.14-16.58-1.35-34.23-1.36-50.81-.16-5.72.41-11.49,1.02-17.08,2.31,1.2-1.57,3.63-2.28,5.48-2.85,13.63-4.2,33.33-4.32,47.56-3.59,6.91.36,23.2,1.89,28.83,5.48.3.19.93.56.93.96h0Z"/>
  <path d="M15.19,21.06c.04-.25.56-.37.78-.45,4.7-1.85,12.19-1.85,17.29-2.01,9.52-.31,19.89-.5,29.34.67.87.1,6.99.96,7.03,1.71-.37.3-1.1.33-1.58.39-4.53.56-9.15.44-13.67.85-1.61.15-1.43.67-2.51,1.45-6.21,4.58-15.05,3.81-20.59-1.45-5.38-.13-10.76-.44-16.08-1.16h0Z"/>
  <path d="M83,17.93c.33.42-3.63,1.53-3.92,1.6-2.82.71-5.75.98-8.59,1.52-.78-1.43-3.25-1.78-4.77-2.08-8.32-1.61-18.36-1.48-26.83-1.36-6.27.09-12.76.1-18.95,1.18-2.21.38-4.28.88-6.13,2.14-2.27-.36-4.57-.62-6.82-1.12-1.68-.37-3.81-.79-5.14-1.86,2.59-.56,5.22-.99,7.85-1.3,17.97-2.15,38.67-2.16,56.73-.84,1.88.14,16.07,1.48,16.58,2.15h0Z"/>
  <path d="M57.75,8.35c-2.99-.39-5.99-.38-9-.49-3.93-.13-7.92-.29-11.88-.18-2.69.08-7.06.14-9.6.63-.68.13.43-1.18.52-1.29,6.29-7.53,20.42-7.97,27.64-1.57.29.26,2.61,2.61,2.31,2.89h0Z"/>
  <path d="M58.91,10.33l-11.13-.67h-10.57l-11.3.58.49-1.15c.58-.04,1.16-.18,1.74-.24,7.77-.83,15.95-.37,23.75-.33,1.78.46,4.41-.01,6.09.5.69.21.65.74.92,1.31,0,0,0,0,0,0Z"/>
  <path d="M45.22,27.16l-2.6,6.72-.37.21-2.64-6.93c1.88.18,3.73.18,5.61,0h0Z"/>
  <polygon points="39.28 27 34.17 32.11 36.14 26.24 39.28 27"/>
  <path d="M48.68,26.17l1.98,6.1-5.11-5.03c-.07-.35.14-.23.36-.29.91-.27,1.87-.44,2.77-.78Z"/>
</svg>