<?xml version="1.0" encoding="UTF-8"?>
<svg id="Layer_1" xmlns="http://www.w3.org/2000/svg" version="1.1" viewBox="0 0 612 792">
  <!-- Generator: Adobe Illustrator 29.1.0, SVG Export Plug-In . SVG Version: 2.1.0 Build 142)  -->
  <defs>
    <style>
      .st0 {
        fill: #fff;
      }
    </style>
  </defs>
  <path d="M135.73,127.66c.32-.34-2.16-2.05-2.45-2.26-4.75-3.41-11.18-5.63-10.46-12.77.64-6.32,6.9-11.2,13.19-10.64s7.44,7.28,3.43,11.54c-.64.68-2.99,1.72-3.16.19-.18-1.66,1.82-2.2,1.66-4.04-.37-4.13-6.58-4.33-8.7-.79-5.02,8.38,8.66,12.04,13.8,15.26,7.24,4.54,12.81,12.06,10.68,21.02-2.16,9.07-9.98,15.21-19.38,14.81-6.35-.27-13.76-2.92-16.19-9.3-.3-.79-.59-2.88-.97-3.27-.42-.44-3.35-1.34-4.34-1.94-5-3.07-6.53-8.69-9.29-13.43-1.5-2.57-3.37-5.45-6.8-4.93-.03.47.18.91.19,1.38.15,4.12.07,8.28.35,12.39.05.73.31,4.48.69,4.72.72.24,2.56.41,2.25,1.51-.42,1.5-3.58.57-4.87.69-1.49.14-2.48.82-4.17.47-2.34-.48-2.03-2.49.02-2.98.11-.69-.18-1.36-.2-2.01-.22-6.09-.53-12.02-.91-18.1-.27-4.23-.04-8.53-.76-12.72-.45-.7-2.52-1.01-2.73-1.72-.33-1.14,1.87-2.16,2.86-2.25,1.42-.13,2.26.7,3.12.7,1.08,0,2.37-1.59,3.77-.7.16,1.05-.79,1.66-.91,2.66-.31,2.57.51,5.62.56,8.22,10.57-1.63,7.28-15.23-3-13.98-.76.09-3.69.89-4.34,1.2-1.55.74-3.64,5.67-5.96,3.82-1.03-.82-.03-1.2.34-1.68,3.75-4.93,7.47-7.12,13.95-6.51,8.83.84,13.87,10.2,7.42,17.15-.35.38-2.36,1.91-2.31,2.12,3.29,1.69,5.3,3.53,6.66,7.01,2.17,5.59,1.66,10.35,6.93,14.49.37.29,1.47,1.22,1.92.91.94-7.12,8.87-12.38,15.8-10.31,4.37,1.3,4.86,6.52,1.48,9.22-.78.63-2.53,1.77-3.42.84-.67-.69-.03-2.3-.17-3.34-.25-1.97-3.48-1.68-4.88-1.17-2.47.91-3.3,3.06-3.62,5.52,1.15.1,2.55-.56,3.41-1.3.53-.45,1.08-1.75,1.76-1.02.41.43.47,1.24.32,1.81-.05.19-1.33,2.17-1.53,2.35-1.07,1.03-2.47,1.02-3.72,1.46-.19.07-.33-.08-.23.27.95,3.37,4,6.39,7.28,7.5,10.83,3.68,20.06-7.33,15.65-17.48-.78-1.79-2.19-3.56-3.45-5.05-1.06-1.25-4.7-5.13-6.11-5.53"/>
  <path d="M154.37,103.12c-5.6-1.15-8.68-7.7-10.09-12.72-1.07-3.79-.62-6.57-4.55-8.75-1.17-.65-2.46-1.17-3.82-1.08-.16,1.57.14,3.18.19,4.7.07,1.93-.02,4,.18,5.91.29,2.86.41,4.37,3.88,3.97-.87,3.33-4.57,1.55-6.93,1.84-1.35.17-2.03.54-3.64.33-3.82-.52-1.99-3.05.75-3.13.08-.25.18-.54.18-.79,0-2.74-.53-5.9-.7-8.68-.3-5.01-.25-10.38-.74-15.32-.23-2.34-2.27-1.84-4.05-2.32-.08-1.76,1.87-2.64,3.43-2.73,1.71-.1,3.49,1.05,4.41,1.01.57-.02,2.49-2.01,3.56-.99.84.81-1.16,2.23-1.26,2.99-.24,1.8.17,3.94.38,5.73.04.39-.17,1.65.27,1.72,3-.81,5.8-2.09,6.3-5.5,1.12-7.72-6.84-11.45-13.22-8.22-1.46.74-2.63,3.08-4.02,3.37-.64.13-1.77.27-1.72-.59.03-.4,2.15-3.1,2.58-3.53,7.83-7.77,24.51-2.27,21.16,9.89-.79,2.89-2.5,4.02-4.33,6.17,1.15,1.04,2.48,1.57,3.5,2.79,5.77,6.94,1.24,24.95,16.86,22.2,3.97-.7,8.56-3.98,8.09-8.44-1.86.64-3.44,2.02-5.31,2.72-5.46,2.05-11.46-1.27-11.88-7.24-.38-5.3,3.48-14.92.11-19.12-.57-.71-2.29-1.59-2.14-2.46.02-.13.3-.15.37-.26.43-.67.3-.84,1.23-.95,8.22-.99,10.18,6.74,9.07,13.31-.59,3.51-3.21,10.43-.44,13.38,1.73,1.84,5.06.27,6.18-1.54,1.59-2.56,2.1-4.72,2.25-7.72s-.11-9.96-1.77-12.26c-.6-.83-3.41-2.87-2.95-3.89.03-.07.89-1.06.95-1.1,1.42-.89,3.42.89,4.78.91,2,.02,4.12-2.85,6.56-.83,1.49,1.24-1.75,2.27-1.49,3.69.58,7.53,1.8,15.54,1.12,23.08-.51,5.69-4.01,9.57-9.42,11.08-4.39,1.22-8.24.72-12.64-.1"/>
  <path d="M70.67,97.73l-1.09-30.26c-1.43,5.16-2.37,10.75-4.3,15.74-.19.49-1.26,3.04-1.48,3.23-.18.15-.85.21-1.02,0-1.43-3.89-3.13-7.68-4.95-11.4-.13-.27.04-.46-.45-.37.15,2.86.57,5.73.74,8.59.51,8.59,1.68,18.15-5.63,24.28-6.28,5.27-16.56,3.05-20.39-4.01-2.77-5.11.53-12.44,5.38-15.04,5.4-2.9,12.87-.1,10.06,6.91-.5,1.25-2.55,4.06-4.07,3.8-1.7-.29-.47-2.75-.5-3.75-.09-2.71-4.33-4-5.89-1.82-2.1,2.94-1.13,8.63,1.35,11.15,2.91,2.95,11.06,3.48,12.94-.74,2.51-5.63.47-15.41.09-21.51-.32-5.18.13-11.21-.57-16.23-.33-2.35-4.28-2.32-4.52-3.42-.04-.19.79-1.49.95-1.66,1.1-1.21,3.56-1.24,5.03-.81.64.19,2.13,1.17,2.53,1.16.29,0,.8-.63,1.19-.84.74-.4,2.88-1.02,3.52-.36.78,1.13-.85,1.62-.52,2.73,1.86,4.09,3.35,8.34,5.09,12.48.06.15-.01.57.32.4.31-.16,1.87-5.78,2.08-6.61.35-1.41,1.44-4.98.69-6.12-.44-.66-2.28-.7-1.47-2.04.05-.08,1.27-1.12,1.39-1.19,1.13-.71,3.15.02,4.52-.1.84-.08,3.96-1.25,4.45-.56.58.82-.73,1.59-.84,2.14-.45,2.35.4,6.2.55,8.68.3,5.02.59,10.13.75,15.13.1,3.21-.22,6.62,0,9.79.03.4.18,1.88.28,2.12.34.78,1.58.35,1.54.98-.55,2.5-2.29,1.24-3.93,1.44-1.95.24-4.87,2.42-6.35-.26.2-1.24,1.51-1.43,2.53-1.62Z"/>
  <path d="M186.17,131.72l3.52-14.32c.05-1.94-2.37-1.21-1.68-2.77.85-1.95,2.8-.99,4.17-.99,1.16,0,5.56-1.02,6.29.16.43.7-.7,1.25-.83,1.95-.42,2.31.44,6.36.55,8.85.37,7.88-.22,16.42.55,24.19.16,1.63.49,1.58,1.84,2.23.14.48-1.09,1.8-1.61,1.89-.62.11-1.45-.37-2.15-.33-2.09.11-4.99,2.4-6.75.04-.05-.19.76-1.49.84-1.55.47-.3,1.39-.01,1.82-.54.03-.82.24-1.67.28-2.49.34-6.33-.69-13.87-.94-20.31-.07-1.74.15-3.65,0-5.36-.01-.15-.18-1.66-.55-1.2-1.26,5.37-2.36,11.17-4.25,16.34-.44,1.22-1.07,2.36-1.49,3.59l-.82-.17-6.37-15.7c.04.34-.15.7-.15,1.01.07,8.19,1.52,16.89,1.07,25.11-.57,10.35-7.4,17.11-18.02,16.17-9.46-.84-13.73-10.21-7.47-17.64,2.75-3.27,7.82-3.63,11.69-2.27,4.74,1.66,5.08,6.41,2.61,10.28-1.08,1.69-3.86,4.71-6,2.89-2.33-1.99,3-4.74,2.96-6.45-.14-4.87-9.26-5.53-10.11-.16s4.17,10.28,9.28,10.58c6.79.41,9.36-4.19,9.71-10.26.54-9.29-.97-18.98-1.47-28.25-.12-2.18.27-4.89-.23-6.98-.43-1.82-3.82-2.08-4.38-3.02-.41-.7,1.18-2.23,1.82-2.57.94-.49,2.35-.57,3.39-.41.93.15,2.34,1.17,3,1.17,1.23,0,4.05-2.79,5.28-1.13.7.94-1.34,2.14-1.09,3.1,1.8,4.57,3.2,9.31,4.95,13.9.17.44.32,1.13.74,1.38Z"/>
  <path d="M81.4,132.09l.95,14.28c.53.89,1.23.12,1.91.12,1.51,0,1.45,1.89.46,2.5-.46.28-3.65.02-4.52.1-.94.08-2,.48-2.96.55-1.13.08-4.26-.02-4.15-1.74.01-.22.68-1.3.78-1.36.51-.29,2.24.26,2.36.14l-.76-14.75-9.67-.58c-.1.01-.3,1.71-.3,1.93.01,2.31.47,4.88.57,7.2.04,1.01-.25,6.23.31,6.57.48.29,1.56.09,2.14.22,1.12.24,1.45,1.95.37,2.52-3.34-.6-6.76.59-10.11.19-.5-.06-1.25-.25-1.59-.62-.91-.98.29-1.27.55-2.23l2.41-.18-.73-16.77c-1.99-1.05-3.82-1.32-4.66-3.69-.31-.89-.68-4.02.68-4.01.44,0,2.79,2.87,3.79,2.78l-.75-9.32c-.23-1.81.6-6.74-.72-7.95-.62-.57-2.04-.45-2.21-.94-.3-.87.99-2.34,1.82-2.56,1.75-.47,3.05,1.09,4.15,1.02,1.01-.06,2.75-1.84,4.17-1.29.36,1.38-1.35,1.8-1.49,2.85-.15,1.16.15,2.42.19,3.52.23,5.47.48,10.97.91,16.45.18.56,1.07.73,1.61.79.78.09,1.94.17,2.74.21.66.03,5.77.09,5.84-.3.06-.56-.18-1.09-.2-1.64-.2-5.46.15-11.82-.56-17.16-.13-.97-.55-1.92-1.61-2.1-.52-.09-1.6.35-1.45-.59.3-1.8,1.51-2.59,3.27-2.31.78.12,2.36,1.03,2.67,1.02.34-.01.78-.53,1.16-.68.7-.28,2.48-.96,3.02-.34s-.99,1.5-1.21,1.96c-.68,1.39.19,5.05.28,6.72.1,1.89.11,3.84.18,5.72.11,3.01-.03,6.05.17,9.06.1.5,1.58.8,2.22,1.29,3.56,2.7,2.17,4.72-2.04,3.42Z"/>
  <path d="M163.26,109.57l1.66,30.7c.27.72,5.02,1.21,5.9,1.44.34.41-1.06,2.06-1.52,2.25-2.25.94-5.36-.62-7.81-.42-1.58.13-3.46,1.38-4.94.2-.95-.76,1.12-3.58,2.46-2.96l-1.5-31.46c-.79-1.23-5.33-1.34-6.68-1.17-4.1.52-5.65,4.8-4.86,8.46.62,2.89,5.8,5.03,6.2,1.19.13-1.24-.94-5.21,1.55-4.89,2.95.38,2.64,5.02,1.48,7-1.41,2.41-3.19,3.63-6.06,3.32-10.91-1.18-8.55-16.94,2.74-17.71,9.91-.68,19.92,2.52,30,.07,3.2-.78,8.57-2.59,8.9-6.43.25-2.9-1.49-6.55-4.85-6.13-.97.12-2.06.48-2.4,1.48-.43,1.25.28,1.1.69,1.98,1.46,3.15-3.79,4.35-4.16.46s4.23-7.83,8.03-7.67c3.36.15,7.54,3.49,7.86,6.93.69,7.53-7.08,11.91-13.45,13.14s-12.97.97-19.25.24Z"/>
  <path d="M53.55,141.01c.78-.64,1.68-.03,1.98.78,1.15,3.12-1.46,8.03-3.51,10.33-6.96,7.8-19.41,6.47-27.06.28-12.99-10.51-8.83-30.92,4.72-38.85,8.56-5.01,21.87-2.72,22.89,8.67.38,4.21-2.74,10.48-7.29,10.98s-3.63-2.55-1.2-4.71c1.41-1.26,4.2-1.99,4.44-4.06,1.23-10.75-13.74-12.04-19.21-5.54-7.6,9.02-5.34,27.74,5.42,33.54,7.31,3.94,14.1-.68,17.16-7.48.4-.89,1.02-3.41,1.68-3.95Z"/>
  <path d="M130.74,99.97c-.36,2.4-2.3,2.49-4.34,2.4-.8-.04-2-.37-2.77-.37-1.31.01-2.82,1.13-4.16.28-.84-1.87,1.06-2.22,2.42-2.6-1.13-6.37-3.06-13.17-10.73-13.56l.59,14.46c.3.81,2.89.69,3.66.68-.43,3.49-3.75,1.83-6,1.83s-3.13.98-5.9.19c-3.41-.97.17-3.57,2.19-2.6.22-.08.26-.24.29-.44.23-1.31.03-4.24,0-5.73-.08-4.58-.32-9.27-.56-13.84-.13-2.49-.05-8.96-1.33-10.86-.88-1.31-4.57-1.33-4.2-2.76.02-.08.91-1.18.99-1.24.74-.58,2.89-.62,3.79-.37-.9-2.09,1.96-3.52,3.6-4.07,3.46-1.16,8.75-1.16,11.91.85,5.19,3.31,6,12.33,2.14,16.88-.98,1.16-2.4,1.8-3.23,3.02,1.06.94,2.24,1.43,3.23,2.51,3.03,3.34,2.78,7.76,3.66,11.86.69,3.21,1.32,3.58,4.75,3.47ZM105.79,65.81c.52-.07,1,.21,1.52.15,1.18-.13,2.22-1.34,3.61-.75,1.5.64-.22,1.47-.59,2.09-.44.75.06,1.82.09,2.65.05,1.47,0,10.55.72,11.1,3.36-.39,7.81-3.22,8.13-6.85.27-2.98-1.06-8.08-3.82-9.66-1.7-.98-5.34-1.33-7.12-.54-.48.21-.73.76-1.19,1.03s-1.43.21-1.36.77Z"/>
  <path d="M219.27,107.93c-.22.33.28,3.94.37,4.66,1.13,8.93,3.35,17.73,3.96,26.73.28,1.2,3.46.18,2.76,1.81-.81,1.9-3.06.84-4.59.82-1.17-.01-5.74.95-6.19-.57-.11-.36.4-1.63.62-1.9.25-.3,1.32-.4,1.39-.68l-1.03-6.51c-1.98-1.47-4.36-2.62-6.63-3.52-.53,3.17-2.11,7.04-1.77,10.26.19,1.79,2.2.37,2.77,2.03-.61.2-.53.8-.92,1.11-1.18.92-2.94-.55-4.19-.63-1.02-.07-2.3.54-3.3.54-1.68,0-4.41-1.42-2.32-3.05,1.15-.9,1.8.23,2.99-.19l1.84-12.35c0-.24,0-.47-.06-.7-.22-.96-3.59-3.26-4.36-4.5-.43-.69-.54-1.53-.36-2.33.05-.24,1.03-1.7,1.2-1.8.98-.58,1.73.08,2.37.75.45.47,1.38,2.07,1.75,2.31.24.16.3.1.47-.09l2.12-12.29c-1.13-.35-3.61,1.45-4.51.27-.17-.22-.26-.58-.15-.86.04-.12,1.41-1.88,1.54-1.98,2.04-1.61,6.27-.07,8.58.09,1.18.09,3.08.09,4.25-.01.82-.07,3.05-.95,3.52-.18.18,1.2-.88,2.61-2.11,2.8ZM215.73,127.29l-3.32-14.59c-.24,3.03-1.26,5.97-1.64,8.98-.1.76-.33,2.01-.17,2.7.3,1.31,3.95,2.37,5.13,2.9Z"/>
  <path d="M235.48,102.23c5.27-.12,8.09,4.43,5.79,9.13-.67,1.38-3.6,5.45-4.99,2.96,1.71-2.24,2.52-6.23-.94-7.21-4.45-1.27-7.97,3.67-6.52,7.77,2.36,6.66,16.71,7.2,19.81,15.47,1.8,4.79-.91,10.7-4.72,13.76-7.3,5.85-20.81.6-16.72-9.88.87-2.22,2.56-5,5.37-4.25.76.53-.78,4.97-.76,6.11s.63,4.17,1.23,5.06c1.77,2.62,6.43,1.27,8.48-.36,1.68-1.33,1.71-2.64,1.34-4.66-1.79-9.87-15.3-10.31-17.96-18.61-2.39-7.46,2.63-15.09,10.59-15.27Z"/>
  <path d="M96.05,75.18c-.83-.78-.59-4.37-1.37-5.46l-5.77.38-.29.25,1.01,11.89c.99,1.47,5.75-.58,6.3.17.23.32-.13,1.24-.39,1.49-.18.17-.48.14-.59.23-.16.14-.12.47-.29.64-.96.95-3.62,1.21-4.94,1.16l.58,10.59c.15.47,1.95.33,2.48.31,1.44-.05,3.05-.32,4.5-.4.25-1.14.45-3.27,1.68-3.77,1.53-.62,2.04.03,2.2,1.5.08.79.24,2.56.22,3.29-.01.45-.27.85-.36,1.28-.08.11-1.16.27-1.41.29-3.29.25-6.68.21-9.98.36-2.22.1-6.86,1-8.65-.21-.68-.46-1.21-1.2-.75-1.98.9-1.53,2.09-.21,3.4-.39l-.74-10.89c-.12-.13-1.91,1.03-2.59.28-.9-1.95,1.51-3.14,2.4-4.44l-.58-10.4-3.48-1.04c-.97-2.54,2.21-2.85,3.98-3.05,2.57-.3,5.34-.2,7.94-.37s5.38-.82,8.1-.52l.28.26c-.58,2.1.82,4.69.35,6.78-.07.29-1.13,1.6-1.37,1.77-.5.35-1.42.4-1.87-.03Z"/>
  <path d="M118.38,106.45l.35,22.51c1.5-.58,5.64-.51,6.06,1.43.32,1.49-.76,1.71-1.93,1.88-1.35.2-2.19-.11-3.33-.1-2.53.01-5.15.87-7.69.45-3.36-.56-1.47-4.02,1.16-2.73-.05-.41.17-.81.19-1.2.09-2.05-.48-4.85-.56-7-.16-4.29.44-9.32-.19-13.48-.37-2.42-5.25-.78-4.58-2.93.02-.06.85-.9.91-.94,1.22-.78,5.39.02,7.11-.11.93-.07,1.9-.46,2.79-.54,2.44-.2,5.94,1.17,3.76,3.96-.58.28-1.61-.88-2.43-1.08-.53-.13-1.06-.19-1.61-.11Z"/>
  <path class="st0" d="M215.73,127.29c-1.18-.53-4.83-1.59-5.13-2.9-.16-.69.08-1.95.17-2.7.38-3.01,1.4-5.96,1.64-8.98l3.32,14.59Z"/>
</svg>