<?xml version="1.0" encoding="UTF-8"?>
<svg id="Layer_1" xmlns="http://www.w3.org/2000/svg" version="1.1" viewBox="0 0 612 792">
  <!-- Generator: Adobe Illustrator 29.1.0, SVG Export Plug-In . SVG Version: 2.1.0 Build 142)  -->
  <defs>
    <style>
      .st0 {
        fill: #fff;
      }

      .st1 {
        fill: #962422;
      }
    </style>
  </defs>
  <path class="st1" d="M115.06,72.8c3.22-5.27,8.93-7.73,15.14-6.62,10.59,1.9,12.83,13.35,4.06,19.23,2.3,1.28,4.39,2.44,5.77,4.79,2.78,4.72,2.28,10.55,5.97,14.94.5.59,3.48,3.62,4.2,3.01.97-7.23,8.53-12.15,15.59-10.5,3.75.88,5.1,4.66,3.18,7.93-.84-.14-1.16,1.03-1.81,1.33-.44.2-2.5.61-2.5-.15v-3.45c0-1.3-3.17-1.53-4.15-1.35-1.65.31-2.81,1.4-3.61,2.75s-1.45,2.63-1.51,4.31c1.28-.05,2.59-.69,3.56-1.5.54-.45,1.04-1.84,1.81-.74.84,1.18-.25,2.28-.85,3.11-.58.53-1.95.97-2.76,1.23-1.02.33-1.96-.26-1.77,1.14.02.14-.03.32,0,.43l.22.22c2.58,7.83,12.46,10.35,18.96,5.48,2.19-1.64,3.18-3.48,4.33-5.91,4.7-9.93-3.57-17.57-11.07-22.9-4.43-3.14-10.78-5.56-11.79-11.7v-4c1.8-5.61,9.61-9.83,15.1-7.44,4.64,2.02,4.33,6.8,1.51,10.24-1,.75-3.38,1.39-3.02-.65.37-.52.73-1,1.08-1.51,0-.02.37.1.44-.14.29-1.1.06-2.89-.75-3.75-2.08-2.18-5.75-1.65-7.6.51-.11.13-.04.33-.06.36-6.81,9.11,5.97,12.6,11.79,15.92,6.84,3.9,13.14,10.68,12.57,19.12-.27,3.95-2.47,9.08-5.17,11.97-.93-.21-.51.39-.69.59s-.94.03-.82.71c-.05.03-.16-.03-.22,0-2.79,1.55-6.39,3.41-9.59,3.67-7.13.6-17.05-2.37-19.45-9.67-.23-.69-.43-2.69-.82-3.06-.36-.35-2.2-.74-2.7-.96-7.14-3.16-8.45-10.96-12.72-16.66-.5-.66-.69-1.46-1.47-1.98-.94-.62-4.39-1.77-4.34-.02.23,2.22.38,18.07,1.13,18.71.26.22,1.61.35,2.1.7.03.75.14.6-.53.65-1.36.1-3,.04-4.34.2-.41.05-.2.41-.62.47-1.51.19-4.03.01-4.43-1.74.09-.08.09-.3.36-.39.25-.08.48-.03.71-.04.17-.01.62.04.65,0,.14-.16.07-3.78.01-4.22-.07-.52-.47-.84-.45-1.26s.44-.72.43-1.29c-.01-.51-.38-1.15-.42-1.75-.32-5.16-.32-10.4-.64-15.51-.18-2.82-.12-5.79-.46-8.61-.3-2.53-1.78-2-3.21-3.37.06-.07,0-.39.34-.62.91-.63,2.09-.77,3.16-.62.67.09,1.48.61,2,.61.82,0,2.47-1.64,3.68-.68.39,1-.72,1.49-.79,2.5-.05.78.02,3,.06,3.88.06,1.53.48,3.09.39,4.64,2.69-.15,5.45-1.86,6.25-4.53.57.12.43-.29.53-.64,1.44-4.85-1.12-8.6-5.87-9.87-1.94-.51-6.65.17-8.15,1.44-.28.24-.24.58-.31.66s-.15.14-.22.22c-.41-.07-.5.02-.43.43-.36.44-.7.86-1.08,1.29-.46-.05-.48-.03-.43.43-.04.04.04.18,0,.22-1.49.33-2.3,1.44-3.45-.22v-.02ZM160.12,71.94c-.64-.63-1.49,1.75-.75,1.72.33-.01,1.01-1.47.75-1.72ZM158.94,74.1c-.5.1-.78,2.98,0,3.01.27.01.97-3.21,0-3.01ZM125.62,77.76c-.06-.68.34-1.94-.64-1.94v1.94h.64ZM180.61,114.41c1.94-1.23,2.87-5.01,3.02-7.21.86-12.25-13.55-17.89-21.14-24.37-1.6-1.37-1.92-2.52-2.97-4.14-.14-.21-.24-.57-.58-.49-.81.18.36,2.07.58,2.44,2.3,3.77,9.2,7.2,12.88,9.98,6.65,5.02,12.22,11.17,9.57,20.1-.4,1.33-1.25,2.38-1.35,3.71v-.02ZM125.84,82.5v-3.13c0-.1-.49-1.02-.76-.54-.47.85.22,2.7.11,3.67h.65ZM127.13,109.45l-1.08-25.12c-.1-.53-.34-.6-.86-.54.46,8.44.88,16.86,1.33,25.3l.61.36Z"/>
  <path class="st1" d="M203.89,59.22l.22-.22c.02-.06,0-.14,0-.22.47-.92.73-1.98.65-3.02-.4-.39-2.09,1.03-2.51,1.26-3.88,2.1-6.73,3.24-10.83.76-2.78-1.68-3.74-3.62-3.92-6.86-.15-2.6.65-4.74.87-7.12.21-2.23.49-7.17.2-9.25-.22-1.56-1.96-4.01-3.43-4.65.49-.77.26-.77,1.39-.87,3.86-.35,6.83,1.06,8.26,4.7,2.61,6.61-.57,11.11-1.02,17.42-.25,3.44,1.27,6.98,5.26,5.26,2.93-1.27,2.6-3.73,4.01-5.15.04-.04.38.06.43,0,.16-.23.84-4.87.88-5.49.19-3.16-.24-6.99-.93-10.08-.32-1.45-.97-2.46-1.96-3.54-.65-.72-1.67-1.06-2.08-2.23.06-.07.02-.41.33-.63,1.33-.9,3.34.61,4.57.8,2.21.33,3.59-2.6,6.58-.98,2.3,1.25-1.02,2.2-1.15,3.5.69,7.87,1.61,15.66,1.1,23.52-.21,3.33-1.36,5.95-3.67,8.29-1.02,0-1.84.93-2.69,1.3-4.98,2.19-10.09,2.05-15.26.8-6.53-1.58-9.46-6.66-11.31-12.84-.66-2.19-1.03-5.98-2.47-7.67-.92-1.07-5.19-3.37-6.51-2.92-.44.15-.38.7-.36,1.06.25,3.97.27,8.29.65,12.18.24,2.39,1.43,2.89,3.66,2.48.06.34-.07.58-.21.86-1.79.88-3.46.16-5.29.21-2.22.06-5.11,1.27-6.78-1.07.82-.75,1.35-.68,2.37-.86.32-.06.68.1.83-.35s.08-2.6.04-3.21c-.37-5.87-.93-11.78-1.31-17.66-.12-1.92.67-5.97-1.67-6.74-.77-.26-2.13.02-2.63-.71.15-.18.02-.49.57-.83,1.04-.66,2.6-.75,3.79-.61.76.09,2.92.97,3.08.96.11,0,1.19-.91,1.87-1.08,2.65-.66,2.02,1.36.51,2.44-.54,2.65.26,5.48.32,8.19,2.76-.61,5.84-1.87,6.47-4.96.48.1.52-.22.59-.59,1.19-6.06-2.49-10.6-8.69-10.42-1.12.03-4.39.8-5.22,1.46-.36.28-.57.38-.48.92-.58.37-.98,1-1.51,1.51-.94.2-2.55,1.55-3.02,0,3.9-6.48,11.79-7.8,18.32-4.42,5.77,2.99,7.06,10.49,3.02,15.52-.35.43-2.63,2.41-2.58,2.59.94.74,2.03,1.23,2.92,2.05,5.72,5.27,2.65,17.95,10.03,22.09,5.2,2.92,13.43.92,15.73-4.84l-.03-.04ZM164.87,33.56c.84.03.85-1.11.32-1.51l-.32,1.51ZM192.03,34.2c.25-.26-.42-1.71-.75-1.72-.77-.03.11,2.39.75,1.72ZM207.13,34.64c.28-.28-.11-2.68-.86-1.94-.28.28.11,2.68.86,1.94ZM165.51,34.21c-.99-.75-.32,2.84-.43,3.02h.65c-.02-.53.1-2.78-.22-3.02ZM192.04,39.6c.88.04.68-1.2.65-1.84-.02-.51-.16-2.81-.76-2.68-.81.17.46,3.76.11,4.53h0ZM207.56,39.38c.29-.21.03-2.62-.05-3.07-.21-1.14-1.04-1.53-.97-.12.02.32.27,3.75,1.02,3.19ZM167.02,57.71c.02-4.64-.53-9.28-.86-13.91-.07-.93.06-1.87,0-2.8-.04-.51-.16-2.26-.25-2.55s-.32-.42-.61-.36l1.08,19.62h.64ZM203.03,63.96c.35.06.58-.17.84-.34,5.74-3.72,4.26-14.2,3.9-20.04-.04-.67.24-3.06-.33-3.34-.37-.12-.45.33-.46.57-.17,6.34,2.3,15.13-2.02,20.66-.31.4-2.36,2.04-1.93,2.48h0ZM190.6,52.05c-.55-1.21,1.99-8.55,2.04-10.68.02-.75-.65-1.07-.81-.36-.65,2.95-2.08,8.4-1.71,11.19.16,1.22,1,2.46,1.82,3.36.73-1.01,0-.74-.51-1.43-.65-.91-.4-1.11-.47-1.89,0-.15-.32-.12-.35-.19h0Z"/>
  <path class="st1" d="M98.46,24.07c.48-.47.55-.93,1.41-1.07,1.11-.18,2.55.3,3.87.2.97-.08,5.48-1.92,4.48.38-.35.82-.89.47-.93,1.89-.08,2.79.54,6.37.67,9.26.2,4.67.47,9.37.65,14.02.16,3.99-.22,8.01.3,11.99.46,1.42,2.1.11,1.41,1.71-1.07.51-2.02-.14-3.11.01-.49.07-1.04.43-1.62.54-1.56.28-3.94.71-4.97-.77.64-.62,1.31-.46,2.16-.86.11-.05.3.13.44-.14.17-.34.41-2.27.43-2.76.26-6.23-.61-13.36-.88-19.62-.15-3.33,0-6.7-.21-10.03-.77-.05-.68,1.06-.86,1.72-1.23,4.48-3.55,15.24-5.61,18.76-.65.26-.96-.86-1.16-1.32-1.46-3.34-2.99-6.65-4.45-10-.15-.35-.72-2.35-.87-2.47-.09-.07-.45,0-.63,0-.13.89.12,1.73.21,2.59.41,3.73.7,7.55.87,11.31.35,7.91,1.24,14.62-4.54,20.82-.46-.05-.48-.03-.43.43-.07.07-.14.15-.22.22-.53,0-1.01.48-1.48.79-6.27,4.05-16.89.8-19.54-6.39-.95-2.58-.91-4.27-.11-6.9,2.19-4.83,6.66-8.53,12.3-7.02,5.31,1.43,4.61,7.68,1.07,10.68-3.51.87-1.54-2.64-1.81-4.1s-2.43-3.05-3.89-2.79c-.11.02-1.73.63-1.8.69-.05.05-.57,1.04-.7,1.24-2.14,3.34-1.64,8.01.87,11.1,2.22,2.74,7.56,3.58,10.71,2.09.75-.36,2.26-1.48,2.66-2.2l.22-.43c.04-.11-.04-.31,0-.43.57.12.43-.28.53-.64,2.25-7.92.58-13.65.1-21.45-.33-5.45.01-10.97-.62-16.41-.67-1.01-1.7-1.83-2.76-2.42-.57-.32-1.73-.21-1.78-1.13.06-.09.03-.38.2-.54,1.44-1.35,3.57-1.37,5.35-.81.65.2,1.98,1.07,2.35,1.1s.78-.66,1.21-.87c.77-.39,4.02-1.33,3.79.31-.1.7-1.14,1.28-.74,2.11,1.75,4.38,3.73,8.7,5.3,13.15.04.11-.05.39,0,.43.57.41.87-.6,1.02-1.03,1.07-3.18,1.86-7.15,2.49-10.45.17-.88.86-2.04.38-2.82s-2.13-.42-1.74-1.66h0ZM86.6,31.62c-.02-.37.07-.8-.04-1.15-.41-1.31-1.68,1.33.04,1.15ZM86.6,32.48h-.65c.09.57-.27,3.11.33,3.23,1.05.22.2-2.74.32-3.23ZM85.52,66.76c.8.87,1.81-3.73,1.87-4.06.65-3.5.17-6.37.06-9.84-.17-5.1-.26-10.23-.63-15.33-.09-1.25-.57-1.25-.67,0-.4,5.34.75,12.54.88,18.11.09,3.92-.07,7.43-1.52,11.11h0Z"/>
  <path class="st1" d="M219.2,95.87l.32.43c.76.01.61-1.76.78-2.45,1-3.99,2.94-9.26,3.4-13.2.18-1.53-.08-.88-.55-1.23-.14-.1-.17-.36-.31-.45-.4-.25-1-.12-1.28-.78,1.42-1.59,2.5-.61,4.2-.69,1.91-.09,3.3-.71,5.34-.12,1.77.51.35,1.36-.03,2.02-.42.74.36,7.54.41,9.02.27,6.74.31,13.52.41,20.29.5,1.23-.17,5.46.78,6.12.31.22,1.31.19,1.39.56.06.37-.32.54-.43.75-1,.46-1.87-.03-2.9,0-1.18.04-1.97.65-2.86.82-1.33.25-3.03.27-3.94-.81.07-.09,0-.4.34-.63.46-.31,1.3-.24,1.66-.46.23-.14.14-.42.16-.43.12-.06.59.14.66-.12.1-.36-.05-1.21,0-1.71.53-7.08-.29-15.87-.65-23.08-.12-2.41.08-4.82-.22-7.22-.28,0-.47.65-.54.86-.14.46-.19.99-.32,1.51-1.07,4.19-3.88,16.87-5.82,19.84-2.5-5.32-4.37-11.02-6.78-16.4l-.77-.2c.12.56-.22,1.13-.23,1.63s.22.5.23.53c.39,5.93.75,11.91.87,17.78.15,7.02,1.01,13.51-4.11,19.09-.36.25-1.13.63-1.41.85-.21.16-.25.55-.36.61-.23.13-.67-.05-.79.07-.08.08.04.48-.05.57-.11.12-.59.02-.83.14-6.03,2.92-15.81,2.63-19.35-3.93-1.31-2.42-.91-5.18-.7-7.82.84-1.98,2.68-4.68,4.68-5.56,3.46-1.51,11.05-1.08,12.82,2.83,1.16,2.56-.09,6.97-2.19,8.77-.71.6-2.61,1.21-3.54,1.07-1.1-.17-1.25-1.2-1.2-2.15.86-1.28,2.07-2.15,2.8-3.45.02-.04.28-.07.38-.36.47-1.37-.13-2.98-1.26-3.83-1.91-1.43-5.58-1.53-7.4.08-.21.18-.08.51-.19.61-.12.11-.45,0-.55.09-.14.11-.02.35-.05.39-3.21,4.09.46,10.41,4.67,12.26,4.49,1.98,10.43.79,12.37-4.07,1.04-.62.85-1.87,1.09-2.86.04-.18.37-.16.41-.31.22-.92-.05-2.95,0-4.06.39-9.14-.93-18.51-1.29-27.58-.08-2.01.3-4.83,0-6.68s-2.89-2.58-4.34-3.21c-.32-.14-.72,0-.6-.57,1.07-1.89,3.41-2.2,5.43-1.66.7.19,1.94.98,2.45,1.01,1.11.07,3.01-2,4.57-1.59,2.31.62-.43,2.54-.35,3.36l5.57,15.69v.02ZM209.28,84.45c-.06-.68.34-1.94-.64-1.94v1.94h.64ZM209.5,88.76v-3.13c0-.08-.32-.36-.54-.32-.77.15,0,2.87-.11,3.45h.65ZM209.5,90.05c-1.13-.82-.43,3.69-.42,3.98.15,4.62.24,9.21.41,13.82.11,2.93.63,5.89.45,8.84s-1.1,5.8-2.38,8.51c.43.06.74-.36.95-.66,3.41-4.67,1.67-19.38,1.41-25.31-.05-1.18-.05-8.9-.42-9.17h0Z"/>
  <path class="st1" d="M117.65,95.66l-4.1-.22v.86c.03,2.44.68,4.96.42,7.45l.47,6.86c.64.99,1.45.17,1.98.19.75.02,1.43.68,1.22,1.46-1.35.42-2.81.12-4.2.22-1.79.12-3.57.6-5.39.43-1.15-.11-2.01-.23-2.27-1.51.05-.05,0-.42.2-.54.48-.32,1.62.23,2.38.11.14-.02.32,0,.44-.09.68-.57-.15-7.13-.22-8.43-.14-2.48-.01-4.98-.31-7.45l-10.69-.42c-.01.29.02.58,0,.86-.21,3.42.29,6.83.44,10.23.04.86-.26,5.59.35,5.73,1.16.27,3.4-.46,3.09,1.93-1.51.02-2.9-.27-4.43-.22-2.35.07-6.42,1.6-7.65-1.07.06-.07-.04-.49.35-.62.49-.16,1.62-.01,2.24-.03h.65c-.14-3.55-.03-7.14-.21-10.68-.07-1.44-.34-3.07-.44-4.52-.05-.8.13-1.87,0-2.59-.16-.84-2.34-1.22-3.18-1.79-1.59-1.08-1.77-3.22-2-5,.81-.82,1.31.47,2.05,1.07s1.39,1.18,2.26,1.52c.15.06.28.36.65.21.29-3.08-.46-6.12-.64-9.16-.16-2.64.24-5.81-.23-8.4-.07-.38-.85-1.46-1.16-1.64-.8-.45-1.85.21-1.63-1.28.65-.72.99-.91,2.05-.88,1.13.03,2.73,1.1,3.24,1.09.57-.02,3.02-1.83,4.2-1.29.41,1.65-1.35,1.66-1.52,2.9l1.13,20.24c.2.67,2.13.75,2.87.8,2,.13,5.49.21,7.44,0,1.54-.16.67-1.35.64-2.47-.07-2.04-.34-3.89-.43-5.82-.18-3.95.2-7.85-.63-11.48-.3-1.28.66-1.79-1.25-2.38-.62-.2-1.4.09-1.78-.7.88-1.78,2.25-1.67,4-1.09.4.13,1.56.82,1.72.81.17-.01.52-.5.81-.63.59-.27,3.11-1.25,3.37-.47.28.86-.92,1.31-1.25,1.94-.64,1.24.13,5.06.2,6.65l.42,15.1c.09.67.95.53,1.53.85.88.48,2.95,2.34,2.79,3.36h0ZM109.89,74.53c.73.55.94-2.24.32-2.37-.85-.18-.53,2.21-.32,2.37ZM93.93,73.02h-.65c-.25,2.79.89,2.79.65,0ZM110.53,75.17c-.1-.1-.76,0-.81.31.36.63-.04,3.25.38,3.57.98.74.64-3.68.43-3.88ZM93.5,79.7c.13.12.79-.03.85-.35-.53-1.01.47-3.89-1.06-3.42.1.51.08,3.64.22,3.77h-.01ZM112.26,110.32c.28-.28-.39-6.86-.44-7.86-.3-6.11-.53-12.21-.86-18.33-.04-.67.3-3.99-.53-3.99-.46,0-.35,2.27-.33,2.7.3,7.99.58,16.12,1.09,24.14.03.53.27,3.14.42,3.25.21.15.43.09.66.09h0ZM94.36,80.99c-.78-.11-.89.27-.88.97.05,4.44.63,9.34.88,13.8.19,3.44.49,6.91.66,10.34.06,1.29-.18,2.91-.02,4.12.14,1.04.78,1.37.88,0,.12-1.54-.37-3.78-.45-5.39l-1.07-23.83h0Z"/>
  <path class="st1" d="M81.42,94.58c-.53-.08-.54.49-.8.66-1.78,1.13-6.6,2.48-6.1-1.09,1.73-2.78,4.21-2.74,5.61-4.74,1.52-2.18,1.01-6.38-.89-8.28-4.22-4.22-11.31-4.05-16-.74-.84.6-1.3,1.23-1.88,1.9-7.58,8.8-6.5,25.28,2.47,32.78,7.84,6.55,15.91,2.48,19.85-5.82.44-.93,1.3-4.59,2.52-4.29,2.03.5,1.32,4.1.96,5.62-.53,2.22-3.03,5.94-4.9,7.29-5.48,3.95-13.37,3.61-19.52,1.3-2.91-1.09-7.48-4.04-9.09-6.54-4.09-6.36-5.75-13.61-3.52-21.28,1.76-6.05,7.55-12.57,13.37-14.98,7.67-3.18,17.35-1.51,20.21,7.17,1.46,4.45.75,7.62-2.31,11.05h.02ZM57.49,83.15c.43.45,2.31-1.75,1.4-1.94-.38-.08-1.74,1.36-1.4,1.94ZM54.47,88.11c.12.12.57-.01.75-.21.12-.13,1.55-3,1.58-3.17.04-.26-.05-.71-.28-.7-.45.01-2.39,3.75-2.05,4.09h0ZM54.47,89.19c-.67-.65-1.12,1.67-1.23,2.11-1.81,7.22-.5,16.75,4.67,22.37.36.39,2.63,2.48,2.92,2.47.24,0,.43-.53.22-.87-.13-.2-.8-.39-1.09-.64-5.58-4.78-7.47-13-6.55-20.13.1-.78,1.24-5.12,1.05-5.31h0Z"/>
  <path class="st1" d="M227.18,66.76c-.65-.11-1.01,1.1-1.14,1.22-4.98,4.92-18.18,5.59-24.84,5.03-1.32-.11-4.55-1.46-4.85.43-.14.89.21,1.67.22,2.47.08,3.61.19,7.18.2,10.8l1.13,17.63c.32,1.11,5.67,1.27,5.99,1.67.37.46-.35.95-.42,1.07-.94.24-2.15.65-3.13.65-1.53,0-3.19-.86-4.74-.88-1.79-.02-5.08,1.95-5.72-.63.07-.1.05-.37.2-.54.77-.84,1.02-.55,1.95-.75.21-.05.59.14.66-.12-.08-1.79.08-3.6,0-5.39-.29-6.82-.89-13.67-1.3-20.48-.13-2.21.05-4.43-.26-6.64-.51-1.17-1.51-.65-2.42-.81-2.44-.43-4.38-1.01-6.69.45-.42.26-.92.45-.76,1.07-2.43,1.61-2.84,4.04-2.6,6.8.21,2.35,2.79,4.62,5.2,3.88.81-.25.77-.8,1.07-1.2.04-.06.5.18.63-.77.19-1.45-.09-3.14.02-4.62,1.3-1.2,3.17,1,3.4,2.32.3,1.76-.29,4.24-1.67,5.45-.08.05-.18.12-.22.22-.03.07.03.17,0,.22-.94,0-1.48.73-2.5.85-4.98.58-9.17-2.49-9.17-7.64,0-.83.37-1.63.24-2.48,2.12-5.06,4.97-6.63,10.47-6.69,11.06-.13,23.55,3.32,34.03-1.75,2.55-1.23,2.24-1.42,3.8-3.42.02-.03.38.11.44-.13.19-.79.28-3.64.18-4.48-.03-.28-.11-.56-.21-.82-.05-.12-1.39-2.1-1.5-2.2-1.21-1.15-3.9-1.05-5.16,0-.41.34-.3.54-.43.75-1.47,2.17-.13,1.7.33,3.22.89,2.92-3.57,3.63-4.16.72-.89-4.37,3.97-8.49,8.05-8.26,1.7.1,3.65,1.09,4.96,2.16,2.02,1.66,2.89,3.02,2.91,5.73.02,2.36-.83,4.1-2.16,5.92l-.03-.03ZM194.19,74.53c.23-2.51-.88-2.51-.65,0h.65ZM194.41,78.84v-3.13c0-.07-.35-.4-.54-.32-.64.14.15,2.79-.11,3.45h.65ZM194.4,80.13c-.84-.04-.68,1.02-.65,1.63.13,3.73.5,7.49.67,11.19.17,3.84.06,7.72.42,11.55h.65l-1.08-24.36h0Z"/>
  <path class="st1" d="M162.93,65.04c-2.2.38-4.35-.14-6.58,0-1.25.07-3.73,1.25-3.98-.85.56-.44,1.41-.45,2.16-.65.17-.04.44.05.64,0,.32-1.1-.27-1.81-.46-2.65-1.03-4.59-2.44-9.93-7.46-11.52-.54-.17-2.71-.58-3.17-.5-.61.1-.51.39-.55.87-.05.66.21,1.2.22,1.82.06,2.17.13,4.32.22,6.47s-.05,4.3.2,6.44c1.1.69,2.44.58,3.68.57.15.41-.14.63-.22.86-1.77.91-3.46-.12-5.28,0-1.34.09-2.32.77-3.88.64-.49-.04-2.65-.6-3.08-.79-.32-.14-.27-.5-.48-.72,1.06-1.05,2.06-.58,3.45-.65.14,0,.29.01.43,0,.02-3.35.06-6.68,0-10.04-.06-4,.04-8.3-.22-12.29-.06-1-.63-2.02-.67-2.35-.41-3.12,1.36-6.85-2.35-8.43-.83-.35-2.47-.3-2.81-1.4.67-1.16.48-.83,1.72-1.08.71.03,1.44-.04,2.16,0,.14,0,.29,0,.43,0,.33.03.69.17,1.08.22.55.06.93.3,1.6.21,1.3-.18,2.96-1.88,4.4-.1-.29.9-1.41,1.21-1.49,2.16-.05.59.23,1.14.24,1.72.09,3.85.05,7.73.65,11.54,3.18-.29,7.4-3.01,8.18-6.25.54.12.46-.27.54-.64,1.01-4.44-1.22-11.12-6.47-11.65-1.33-.14-4.49-.34-4.85,1.29-.13.03-.29.19-.43.22-1.19.25-2.31.57-3.23-.43.07-.11.02-.33.22-.52,3.41-3.25,11.86-3.55,15.63-.77,4.86,3.6,5.6,12.1,1.83,16.71-1.01,1.23-2.46,1.99-3.44,3.24,1.32.78,2.43,1.41,3.45,2.59,3.06,3.52,2.8,7.92,3.73,12.23.41,1.91.42,2.77,2.68,3.14,1.21.2,2.85-.67,1.57,1.35h0ZM139.64,35.07c1.01.15.73-2.15.32-2.15-.48,0-.31,1.78-.32,2.15ZM140.5,39.17v-3.13s-.5-.53-.54-.53c-.74-.03.03,3.18-.11,3.66h.65ZM140.72,40.24c-1.37-.08-.67.86-.65,1.62.25,7.05.77,14.08,1.08,21.13l.64.54-1.08-23.28h0Z"/>
  <path class="st1" d="M254.78,70.21c-.77.25-1.25.84-2.16.65-.18.36.2.73.22.86.02.14-.02.29,0,.43-.36.12-.28.66,0,.86,1.17,10.1,3.59,20.07,4.37,30.24.19,1.46,2.11.74,2.69,1.3.63.61-.05.84-.16,1.02-1.17.23-2.52-.24-3.56-.24-.4,0-.75.24-.86.24h-4.1c-.7,0-1.36-.68-1.62-1.29.1-.18.04-.42.31-.66.18-.17.4-.13.55-.2h1.73l-1.19-7.76c-.36-.81-2.38-1.34-3.18-1.78-.68-.37-3.97-2.61-4.47-2.11-.04.34.06.76,0,1.08-.45,2.5-2,8.27-1.74,10.47.17,1.46,1.87.55,2.61,1.49.48.62-.12.58-.23.76-1.56.42-2.87-.55-4.19-.66-1.39-.11-2.42.61-3.66.43-1.12-.16-2.25-.82-2.93-1.71,1.19-1.61,2.2-.19,3.45-.43.97-.18.75-2.93.88-3.75.34-2.09.92-4.22,1.22-6.32.17-1.19.76-3.92.14-4.78-1.4-1.97-5.73-3.34-4.4-6.7.26-.28.38-.64.86-.78,1.51-.42,2.92,2.89,4.1,3.58.19.11.27.34.65.22l2.16-13.69c0-.19-.18-.51-.33-.54-.77-.15-3.82,2.24-4.41,0,.71-1.04.87-1.56,2.32-1.89,3.02-.68,4.59.38,7.27.6,1.21.1,3.32.1,4.53-.01s4.4-1.52,3.13,1.08h0ZM243.78,73.23c.74.06,1.14-1.44.53-1.72-.51-.24-.55,1.49-.53,1.72ZM243.14,77.76c.64.5,1.01-2.5,1.02-2.76.07-1.19-.51-1.08-.79-.14-.11.39-.45,2.72-.23,2.89h0ZM246.15,76.47c-.53,3.35-1.61,7.16-1.91,10.48-.04.45-.1,1.05-.02,1.48.23,1.2,4.06,2.47,5.17,2.92.07.03.36.84.76,0,.34-.73-.24-.9-.32-1.41-.41-2.65-.86-4.82-1.42-7.42-.46-2.11-.78-5.01-1.44-6.97-.11-.33-.43-.65-.81-.59-.05.48.07,1.05,0,1.51h0ZM239.47,102.99l3.86-22.99c.16-1.41-.57-1.47-.78-.12-1.21,7.71-2.71,15.4-3.73,23.12.18-.03.58.05.64,0h0Z"/>
  <path class="st1" d="M274.18,76.68c-.97.62-2.9,2.36-3.45.43.19-.38.54-.93.65-1.29.82-.51.89-2.13.84-3.09-.1-1.98-2.2-2.73-3.96-2.74-.73,0-2.85.44-3.29.95-.09.11,0,.42-.11.51-.25.25-.32.11-.81.71-3.45,4.22-1.88,8.31,2.52,10.96,4.97,2.99,10.96,4.25,14.84,9.3,3.69,4.81.98,11.62-2.92,15.31l-4.17,1.98c-3.72.67-9.92-.37-12.09-3.71-1.76-2.71-1.64-5.33-.99-8.39.81-1.61,2.18-3.76,4.21-3.69.36.01.73,0,.99.32.55.68-.83,4.45-.89,5.64s.57,4.58,1.2,5.48c2.11,3.05,7.86.94,9.78-1.43.17-.21.21-.69.24-.72.06-.05.39.05.43,0,.04-.06-.01-.83.05-1.14.68-3.22-1.43-7.36-3.89-9.43-2.93-2.46-12.22-7.16-13.51-10.14-.44-1.02-1.4-4.85-1.41-5.94s.82-2.74.65-3.98c1.18-2.44,2.84-4.23,5.31-5.36,2.95-1.35,7.84-2.03,10.11.83s1.64,5.9-.33,8.63h0ZM261.46,72.59c-.51-.5-1.08.86-.86,1.08.51.5,1.08-.86.86-1.08ZM260.82,74.52h-.64v2.59h.64v-2.59ZM263.26,82.43c-1.14-1.14-1.85-2.6-2.56-4.02-1.1-.26.11,1.98.29,2.3,3.87,6.74,16.89,7.91,18.52,16.62.49,2.61.15,2.98-.64,5.29-.35,1.02.35.91.74.09.61-1.29.72-3.57.57-4.98-.84-8.44-12.05-10.42-16.93-15.3h.01Z"/>
  <path class="st1" d="M111.18,31.62c1.43-1.19,8.69-1.15,10.89-1.3,2.5-.17,5.05-.57,7.55-.66.33,0,1.55,0,1.63.37-.54,2,.86,5.26.33,6.99-.13.41-.44.46-.55.63-.44.24-2.12.33-2.34-.03-.27-.44-.12-2.66-.25-3.27-.02-.08-.48-1-.63-1.35-.66-1.51-.58-.76-1.65-.76-1.59,0-2.15.23-3.67.42-.6.08-1.21,0-1.81.03-.2.49.18,1.01.22,1.29.52,3.93.51,7.93.97,11.86.33.56,2.38.49,3.03.44,1.04-.09,4.25-1.55,3.12.85-.92.19-.64.24-.86.65-.17.05-.46-.03-.7.05-1.51.5-2.75,1.06-4.48.81v.86l.53,10.79c.11.16.27.17.44.2.65.12,6.35-.17,6.67-.41.18-.13.27-3.44,2.01-3.85.97-.23,1.6-.14,1.77.93.11.73.28,3.66.23,4.41-1.93-.32-3.68.49-5.5.64-2.07.17-4.37-.07-6.47,0-1.76.05-4.62.59-6.24.45-1.08-.09-2.48-1.07-2.7-2.17.84-.79,1.44-.08,2.6.12.26.05.4-.12.42-.12.14,0,.41.28.65.21.26-4.07-.67-8.04-.65-12.07-1.39.31-2.94,1.12-2.8-1.08.7-1.03.81-1.24,1.94-1.94.1-.06.41.02.55-.2.38-.6-.29-4.68-.34-5.72-.05-1.1.33-5.58-.43-6.04-.92-.56-3.92,0-3.45-2.05l-.03.02ZM118.72,39.6c.1-.1-.24-2.81-.54-2.8-.44,0-.4,2.08-.29,2.44s.71.48.83.36ZM118.71,40.9c-.84-.51-.68.98-.64,1.61.37,5.56.6,11.28,1.09,16.81.06.64.11,1.14.86.97l-1.31-19.39Z"/>
  <path class="st1" d="M155.6,70.43c-1.5,0-1.74-1.09-3.34-1.09-.68,0-1.28.14-1.4.88-.29,1.83,0,5.2,0,7.23,0,2.99.15,6.05.22,9.05.05,2.19-.18,4.42.22,6.57.1.09,2.19-.45,2.68-.44,1.29.03,4.2,1.21,3.35,2.81-2.41.05-4.83-.07-7.23,0-1.96.05-6.36,1.39-7-1.28.13-.11.1-.39.54-.44.39-.04,1.29.18,1.83.22.45.04.75.59.87-.53.26-2.39-.39-5.35-.45-7.76-.11-4.24.05-8.54.02-12.72,0-1.49-.38-2.84-1.94-3.25-1-.27-3.36.39-3.03-1.18.1-.1.16-.31.34-.4,1.42-.72,4.88.08,6.67-.02,2.29-.13,3.57-1.17,5.98-.18,1.19.49,2.04,1.21,1.66,2.54h0ZM148.05,72.59c-.83-.63-.68,2.23-.43,2.59,1.07.19.6-2.46.43-2.59ZM148.26,76.25h-.65c.04.82-.05,1.67,0,2.49.17,3.22.52,6.47.66,9.68.07,1.48-.21,3.37-.02,4.76.04.3.28.95.55.96.52,0,.27-2.27.33-2.7-.48-5.04-.43-10.13-.87-15.19h0Z"/>
  <path class="st0" d="M180.61,114.41c.1-1.33.96-2.38,1.35-3.71,2.66-8.92-2.92-15.08-9.57-20.1-3.67-2.77-10.57-6.21-12.88-9.98-.22-.36-1.39-2.26-.58-2.44.34-.07.44.29.58.49,1.05,1.62,1.37,2.77,2.97,4.14,7.59,6.48,22,12.12,21.14,24.37-.16,2.21-1.08,5.99-3.02,7.21v.02Z"/>
  <path class="st0" d="M127.13,109.45l-.61-.36c-.45-8.44-.87-16.85-1.33-25.3.52-.06.77,0,.86.54l1.08,25.12Z"/>
  <path class="st0" d="M125.84,82.5h-.65c.11-.97-.58-2.82-.11-3.67.27-.48.76.45.76.54v3.13Z"/>
  <path class="st0" d="M158.94,74.1c.97-.2.26,3.02,0,3.01-.77-.03-.5-2.91,0-3.01Z"/>
  <path class="st0" d="M125.62,77.76h-.65v-1.94c.98,0,.58,1.27.64,1.94h.01Z"/>
  <path class="st0" d="M160.12,71.94c.25.25-.42,1.71-.75,1.72-.74.03.12-2.35.75-1.72Z"/>
  <path class="st0" d="M203.03,63.96c-.42-.44,1.62-2.08,1.93-2.48,4.32-5.53,1.86-14.33,2.02-20.66,0-.24.09-.69.46-.57.57.28.29,2.67.33,3.34.36,5.84,1.84,16.32-3.9,20.04-.26.17-.49.4-.84.34h0Z"/>
  <path class="st0" d="M167.02,57.71h-.64l-1.08-19.62c.29-.06.52.08.61.36s.21,2.04.25,2.55c.07.93-.06,1.87,0,2.8.33,4.63.87,9.27.86,13.91Z"/>
  <path class="st0" d="M190.6,52.05c.03.06.34.04.35.19.06.77-.19.98.47,1.89.5.69,1.24.42.51,1.43-.81-.9-1.65-2.14-1.82-3.36-.37-2.79,1.07-8.25,1.71-11.19.15-.7.83-.39.81.36-.05,2.13-2.59,9.48-2.04,10.68h0Z"/>
  <path class="st0" d="M207.56,39.38c-.75.55-1.01-2.88-1.02-3.19-.07-1.41.77-1.02.97.12.08.45.34,2.86.05,3.07Z"/>
  <path class="st0" d="M192.04,39.6c.36-.76-.92-4.35-.11-4.53.6-.13.74,2.18.76,2.68.02.64.23,1.88-.65,1.84h0Z"/>
  <path class="st0" d="M165.51,34.21c.32.24.2,2.49.22,3.02h-.65c.11-.18-.56-3.77.43-3.02Z"/>
  <path class="st0" d="M207.13,34.64c-.75.74-1.14-1.66-.86-1.94.75-.74,1.14,1.66.86,1.94Z"/>
  <path class="st0" d="M192.03,34.2c-.64.67-1.52-1.75-.75-1.72.33,0,1.01,1.45.75,1.72Z"/>
  <path class="st0" d="M164.87,33.56l.32-1.51c.54.4.53,1.54-.32,1.51Z"/>
  <path class="st0" d="M85.52,66.76c1.45-3.68,1.61-7.19,1.52-11.11-.13-5.57-1.28-12.78-.88-18.11.09-1.26.58-1.25.67,0,.37,5.1.46,10.23.63,15.33.11,3.47.59,6.34-.06,9.84-.06.33-1.07,4.93-1.87,4.06h0Z"/>
  <path class="st0" d="M86.6,32.48c-.12.5.73,3.46-.32,3.23-.59-.12-.23-2.66-.33-3.23h.65Z"/>
  <path class="st0" d="M86.6,31.62c-1.71.18-.45-2.46-.04-1.15.11.35.02.78.04,1.15Z"/>
  <path class="st0" d="M209.5,90.05c.37.27.37,7.99.42,9.17.26,5.93,2,20.65-1.41,25.31-.22.3-.53.72-.95.66,1.28-2.7,2.19-5.49,2.38-8.51s-.34-5.91-.45-8.84c-.17-4.61-.26-9.2-.41-13.82,0-.29-.71-4.8.42-3.98h0Z"/>
  <path class="st0" d="M209.5,88.76h-.65c.12-.58-.66-3.3.11-3.45.21-.04.54.24.54.32v3.13Z"/>
  <path class="st0" d="M209.28,84.45h-.65v-1.94c.98,0,.58,1.27.64,1.94h0Z"/>
  <path class="st0" d="M112.26,110.32c-.23,0-.45.06-.66-.09-.15-.11-.38-2.71-.42-3.25-.51-8.02-.79-16.15-1.09-24.14-.02-.43-.13-2.7.33-2.7.83,0,.49,3.33.53,3.99.34,6.11.57,12.21.86,18.33.05,1,.72,7.58.44,7.86h0Z"/>
  <path class="st0" d="M94.36,80.99l1.07,23.83c.08,1.61.57,3.85.45,5.39-.1,1.37-.74,1.04-.88,0-.16-1.21.08-2.83.02-4.12-.17-3.43-.47-6.89-.66-10.34-.25-4.46-.83-9.36-.88-13.8,0-.7.1-1.08.88-.97h0Z"/>
  <path class="st0" d="M110.53,75.17c.21.2.55,4.62-.43,3.88-.42-.31-.02-2.94-.38-3.57.05-.31.71-.41.81-.31Z"/>
  <path class="st0" d="M93.5,79.7c-.13-.13-.11-3.26-.22-3.77,1.53-.47.53,2.41,1.06,3.42-.06.32-.72.47-.85.35h.01Z"/>
  <path class="st0" d="M109.89,74.53c-.21-.16-.53-2.55.32-2.37.62.13.41,2.92-.32,2.37Z"/>
  <path class="st0" d="M93.93,73.02c.25,2.79-.89,2.79-.65,0h.65Z"/>
  <path class="st0" d="M54.47,89.19c.19.19-.95,4.53-1.05,5.31-.92,7.13.96,15.35,6.55,20.13.29.25.96.44,1.09.64.21.33,0,.86-.22.87-.29,0-2.56-2.08-2.92-2.47-5.17-5.62-6.48-15.14-4.67-22.37.11-.44.56-2.76,1.23-2.11h0Z"/>
  <path class="st0" d="M54.47,88.11c-.34-.34,1.6-4.08,2.05-4.09.24,0,.32.44.28.7-.03.18-1.46,3.04-1.58,3.17-.19.2-.63.34-.75.21h0Z"/>
  <path class="st0" d="M57.49,83.15c-.34-.58,1.01-2.02,1.4-1.94.92.19-.96,2.39-1.4,1.94Z"/>
  <path class="st0" d="M194.4,80.13l1.08,24.36h-.65c-.36-3.83-.25-7.7-.42-11.55-.17-3.7-.53-7.47-.67-11.19-.02-.61-.19-1.67.65-1.63h0Z"/>
  <path class="st0" d="M194.41,78.84h-.65c.26-.65-.53-3.31.11-3.45.18-.08.54.26.54.32v3.13Z"/>
  <path class="st0" d="M194.19,74.53h-.65c-.23-2.51.88-2.51.65,0Z"/>
  <path class="st0" d="M151.71,38.3c-.78,3.24-5,5.96-8.18,6.25-.6-3.8-.56-7.69-.65-11.54,0-.58-.29-1.13-.24-1.72.08-.94,1.2-1.26,1.49-2.16-1.44-1.78-3.1-.08-4.4.1-.67.09-1.05-.15-1.6-.21.93-.43,1.86-.45,2.37-1.51.14-.03.3-.19.43-.22,3.21-.62,6.5-.73,8.74,2.15,1.44,1.85,2.58,6.6,2.04,8.85h0Z"/>
  <path class="st0" d="M140.72,40.24l1.08,23.28-.64-.54c-.31-7.05-.83-14.08-1.08-21.13-.03-.75-.72-1.7.65-1.62h0Z"/>
  <path class="st0" d="M140.5,39.17h-.65c.14-.48-.63-3.69.11-3.66.04,0,.54.5.54.53v3.13Z"/>
  <path class="st0" d="M139.64,35.07c.02-.37-.16-2.15.32-2.15.41,0,.69,2.3-.32,2.15Z"/>
  <path class="st0" d="M249.39,91.34c-1.11-.45-4.94-1.72-5.17-2.92-.08-.43-.02-1.03.02-1.48.3-3.32,1.38-7.14,1.91-10.48l3.23,14.88h0Z"/>
  <path class="st0" d="M239.47,102.99c-.06.05-.46-.03-.64,0,1.01-7.72,2.51-15.41,3.73-23.12.21-1.35.94-1.28.78.12l-3.86,22.99h0Z"/>
  <path class="st0" d="M243.14,77.76c-.22-.17.12-2.5.23-2.89.27-.94.86-1.05.79.14,0,.26-.38,3.25-1.02,2.76h0Z"/>
  <path class="st0" d="M243.78,73.23c0-.23.03-1.96.53-1.72.6.28.2,1.78-.53,1.72Z"/>
  <path class="st0" d="M263.26,82.43c4.88,4.88,16.09,6.86,16.93,15.3.14,1.41.04,3.69-.57,4.98-.39.81-1.09.93-.74-.09.79-2.31,1.13-2.68.64-5.29-1.64-8.71-14.65-9.88-18.52-16.62-.19-.32-1.39-2.56-.29-2.3.71,1.42,1.42,2.88,2.56,4.02h-.01Z"/>
  <rect class="st0" x="260.17" y="74.52" width=".64" height="2.59"/>
  <path class="st0" d="M261.46,72.59c.22.22-.35,1.58-.86,1.08-.22-.22.35-1.58.86-1.08Z"/>
  <path class="st0" d="M118.71,40.9l1.31,19.39c-.76.17-.81-.33-.86-.97-.49-5.53-.72-11.25-1.09-16.81-.04-.63-.2-2.12.64-1.61Z"/>
  <path class="st0" d="M118.72,39.6c-.12.12-.71.02-.83-.36s-.15-2.43.29-2.44c.3,0,.64,2.69.54,2.8Z"/>
  <path class="st0" d="M148.26,76.25c.44,5.06.39,10.16.87,15.19-.06.43.19,2.7-.33,2.7-.27,0-.51-.66-.55-.96-.19-1.39.09-3.28.02-4.76-.15-3.22-.5-6.47-.66-9.68-.04-.82.05-1.67,0-2.49h.65Z"/>
  <path class="st0" d="M148.05,72.59c.17.13.64,2.78-.43,2.59-.25-.36-.41-3.21.43-2.59Z"/>
  <path class="st0" d="M83.38,127.12c-.46-.32-.17-2.21,1.06-1.6s-.42,2.04-1.06,1.6Z"/>
</svg>